SplineFontDB: 2.0
FontName: FreeSerifBoldItalic
FullName: Free Serif Bold Italic
FamilyName: FreeSerif
Weight: Bold
Copyright: Copyleft 2002, 2003, 2005, 2008 Free Software Foundation.
Version: $Revision: 1.60 $
ItalicAngle: -15.3
UnderlinePosition: -100
UnderlineWidth: 50
Ascent: 800
Descent: 200
LayerCount: 2
Layer: 0 0 "Back" 
Layer: 1 0 "Fore" 
NeedsXUIDChange: 1
FSType: 0
OS2Version: 0
OS2_WeightWidthSlopeOnly: 0
OS2_UseTypoMetrics: 0
CreationTime: 1203284335
ModificationTime: 1208026464
PfmFamily: 17
TTFWeight: 700
TTFWidth: 5
LineGap: 90
VLineGap: 0
Panose: 2 2 7 3 6 5 5 9 3 4
OS2TypoAscent: 0
OS2TypoAOffset: 1
OS2TypoDescent: 0
OS2TypoDOffset: 1
OS2TypoLinegap: 0
OS2WinAscent: 900
OS2WinAOffset: 0
OS2WinDescent: 300
OS2WinDOffset: 0
HheadAscent: 900
HheadAOffset: 0
HheadDescent: -300
HheadDOffset: 0
OS2SubXSize: 650
OS2SubYSize: 699
OS2SubXOff: 47
OS2SubYOff: 140
OS2SupXSize: 650
OS2SupYSize: 699
OS2SupXOff: -163
OS2SupYOff: 479
OS2StrikeYSize: 49
OS2StrikeYPos: 258
OS2Vendor: 'GNU '
Lookup: 4 8 0 "'dlig' Discretionary Ligatures in Latin"  {"'dlig' Discretionary Ligatures in Latin subtable"  } ['dlig' ('latn' <'dflt' > ) ]
Lookup: 4 0 1 "'liga' Standard Ligatures in Latin"  {"'liga' Standard Ligatures in Latin subtable"  } ['liga' ('latn' <'dflt' > ) ]
Lookup: 4 0 0 "'frac' Diagonal Fractions lookup 1"  {"'frac' Diagonal Fractions lookup 1 subtable"  } ['frac' ('DFLT' <'dflt' > ) ]
Lookup: 260 0 0 "'abvm' Above Base Mark in Latin lookup 0"  {"'abvm' Above Base Mark in Latin lookup 0 subtable"  } ['abvm' ('latn' <'dflt' > ) ]
Lookup: 258 0 0 "'kern' Horizontal Kerning in Latin lookup 1"  {"'kern' Horizontal Kerning in Latin lookup 1 subtable"  } ['kern' ('latn' <'dflt' > ) ]
Lookup: 258 0 0 "'kern' Horizontal Kerning lookup 2"  {"'kern' Horizontal Kerning lookup 2 subtable"  } ['kern' ('DFLT' <'dflt' > ) ]
DEI: 0
ShortTable: maxp 16
  0
  0
  0
  0
  0
  0
  0
  2
  1
  0
  9
  0
  256
  0
  0
  0
EndShort
TtTable: prep
PUSHW_1
 511
SCANCTRL
SVTCA[y-axis]

StartChar: exclam
Encoding: 33 33 1
Width: 389
Flags: MW
LayerCount: 2
Fore
SplineSet
167 212 m 1
 243 608 199 684 301 684 c 0
 342 684 370 655 370 611 c 0
 370 540 316 513 196 204 c 1
 167 212 l 1
140 133 m 0
 178 133 213 97 213 58 c 0
 213 19 180 -13 139 -13 c 0
 98 -13 67 17 67 58 c 0
 67 100 99 133 140 133 c 0
EndSplineSet
Validated: 1
EndChar

StartChar: quotedbl
Encoding: 34 34 2
Width: 555
Flags: MW
LayerCount: 2
Fore
SplineSet
177 398 m 1
 136 398 l 1
 152 612 l 1
 155 650 192 685 230 685 c 0
 256 685 276 663 276 636 c 0
 276 624 276 622 259 584 c 2
 177 398 l 1
437 398 m 1
 396 398 l 1
 412 612 l 1
 415 650 452 685 490 685 c 0
 516 685 536 663 536 636 c 0
 536 624 536 622 519 584 c 2
 437 398 l 1
EndSplineSet
Validated: 1
EndChar

StartChar: numbersign
Encoding: 35 35 3
Width: 500
Flags: MW
LayerCount: 2
Fore
SplineSet
449 283 m 1
 429 210 l 1
 332 210 l 1
 247 0 l 1
 169 0 l 1
 254 210 l 1
 141 210 l 1
 56 0 l 1
 -22 0 l 1
 63 210 l 1
 -33 210 l 1
 -13 283 l 1
 93 283 l 1
 147 417 l 1
 51 417 l 1
 71 490 l 1
 176 490 l 1
 263 700 l 1
 340 700 l 1
 254 490 l 1
 367 490 l 1
 454 700 l 1
 531 700 l 1
 445 490 l 1
 533 490 l 1
 513 417 l 1
 416 417 l 1
 362 283 l 1
 449 283 l 1
338 417 m 1
 225 417 l 1
 171 283 l 1
 284 283 l 1
 338 417 l 1
EndSplineSet
Validated: 1
EndChar

StartChar: dollar
Encoding: 36 36 4
Width: 500
Flags: MW
LayerCount: 2
Fore
SplineSet
292 410 m 1
 370 342 432 290 432 201 c 0
 432 87 331 0 201 0 c 2
 178 0 l 1
 150 -100 l 1
 98 -100 l 1
 127 7 l 1
 64 22 33 39 -20 86 c 1
 22 228 l 1
 44 222 l 1
 47 114 67 74 137 42 c 1
 211 303 l 1
 105 384 79 420 79 488 c 0
 79 591 164 670 275 670 c 0
 283 670 291 670 313 668 c 1
 331 733 l 1
 381 733 l 1
 361 661 l 1
 394 655 441 636 479 612 c 1
 497 598 l 1
 455 465 l 1
 434 470 l 1
 435 481 435 494 435 500 c 0
 435 569 411 605 351 625 c 1
 292 410 l 1
248 436 m 1
 303 635 l 1
 298 637 294 637 288 637 c 0
 222 637 178 599 178 542 c 0
 178 502 195 476 248 436 c 1
186 32 m 1
 302 32 323 106 323 157 c 0
 323 204 308 230 253 274 c 1
 186 32 l 1
EndSplineSet
Validated: 1
EndChar

StartChar: percent
Encoding: 37 37 5
Width: 833
Flags: MW
LayerCount: 2
Fore
SplineSet
450 128 m 0
 450 233 550 376 676 376 c 0
 746 376 793 329 793 260 c 0
 793 203 748 -10 583 -10 c 0
 503 -10 450 45 450 128 c 0
759 257 m 0
 759 298 735 325 706 325 c 0
 628 325 567 133 567 89 c 0
 567 59 588 36 617 36 c 0
 693 36 759 174 759 257 c 0
263 679 m 0
 341 679 332 623 436 623 c 0
 499 623 549 643 605 692 c 1
 644 692 l 1
 250 -8 l 1
 194 -8 l 1
 543 612 l 1
 500 594 461 585 424 585 c 0
 414 585 401 587 381 590 c 1
 379 411 282 294 168 294 c 0
 93 294 39 351 39 431 c 0
 39 555 151 679 263 679 c 0
285 631 m 0
 223 631 154 442 154 390 c 0
 154 361 174 340 202 340 c 0
 272 340 347 463 347 577 c 0
 347 618 328 597 302 623 c 0
 297 627 292 631 285 631 c 0
EndSplineSet
Validated: 1
EndChar

StartChar: ampersand
Encoding: 38 38 6
Width: 778
Flags: MW
LayerCount: 2
Fore
SplineSet
5 148 m 0
 5 298 186 359 245 384 c 1
 237 429 234 452 234 476 c 0
 234 598 309 682 419 682 c 0
 499 682 557 634 557 568 c 0
 557 501 499 446 375 396 c 1
 387 322 420 235 461 169 c 1
 518 241 535 270 535 298 c 0
 535 320 521 329 479 336 c 1
 479 361 l 1
 691 361 l 1
 691 336 l 1
 629 324 624 319 486 133 c 1
 525 82 557 61 596 61 c 0
 623 61 644 72 673 101 c 1
 699 80 l 1
 638 7 595 -18 529 -18 c 0
 476 -18 435 0 390 44 c 1
 324 -1 268 -19 198 -19 c 0
 84 -19 5 49 5 148 c 0
253 343 m 1
 169 302 138 260 138 190 c 0
 138 111 193 52 265 52 c 0
 296 52 322 60 362 80 c 1
 306 167 279 232 253 343 c 1
366 434 m 1
 391 449 477 493 477 582 c 0
 477 624 458 649 425 649 c 0
 380 649 355 607 355 530 c 0
 355 505 357 488 366 434 c 1
EndSplineSet
Validated: 1
EndChar

StartChar: quotesingle
Encoding: 39 39 7
Width: 278
Flags: MW
LayerCount: 2
Fore
SplineSet
169 398 m 1
 128 398 l 1
 144 612 l 1
 147 650 184 685 222 685 c 0
 248 685 268 663 268 636 c 0
 268 624 268 622 251 584 c 2
 169 398 l 1
EndSplineSet
Validated: 1
EndChar

StartChar: parenleft
Encoding: 40 40 8
Width: 333
Flags: MW
LayerCount: 2
Fore
SplineSet
344 665 m 1
 255 583 122 443 122 110 c 0
 122 -6 138 -68 193 -164 c 1
 170 -179 l 1
 69 -41 28 70 28 207 c 0
 28 494 252 631 326 685 c 1
 344 665 l 1
EndSplineSet
Validated: 1
EndChar

StartChar: parenright
Encoding: 41 41 9
Width: 333
Flags: MW
LayerCount: 2
Fore
SplineSet
128 685 m 1
 211 571 271 457 271 299 c 0
 271 18 46 -127 -27 -179 c 1
 -44 -159 l 1
 32 -89 63 -51 95 14 c 0
 145 114 177 266 177 399 c 0
 177 513 159 580 105 670 c 1
 128 685 l 1
EndSplineSet
Validated: 1
EndChar

StartChar: asterisk
Encoding: 42 42 10
Width: 500
Flags: MW
LayerCount: 2
Fore
SplineSet
144 497 m 0
 77 497 65 529 65 549 c 0
 65 577 89 603 114 603 c 0
 168 603 175 527 242 488 c 2
 253 482 l 1
 253 494 l 2
 253 575 210 585 210 633 c 0
 210 664 230 685 261 685 c 0
 291 685 311 664 311 633 c 0
 311 587 268 573 268 494 c 2
 268 482 l 1
 279 488 l 2
 348 528 352 603 407 603 c 0
 432 603 456 577 456 548 c 0
 456 526 440 497 377 497 c 0
 333 496 320 493 287 474 c 2
 276 468 l 1
 287 462 l 2
 320 443 331 441 377 439 c 0
 444 439 456 408 456 388 c 0
 456 359 433 334 406 334 c 0
 354 334 347 407 279 448 c 2
 268 454 l 1
 268 442 l 2
 268 364 311 351 311 303 c 0
 311 273 291 252 260 252 c 0
 230 252 210 273 210 304 c 0
 210 352 253 360 253 442 c 2
 253 454 l 1
 242 448 l 2
 170 405 168 334 115 334 c 0
 88 334 65 359 65 388 c 0
 65 408 77 439 144 439 c 0
 190 441 201 443 234 462 c 2
 245 468 l 1
 234 474 l 2
 201 493 188 496 144 497 c 0
EndSplineSet
Validated: 1
EndChar

StartChar: plus
Encoding: 43 43 11
Width: 570
Flags: MW
LayerCount: 2
Fore
SplineSet
241 297 m 1
 241 506 l 1
 329 506 l 1
 329 297 l 1
 537 297 l 1
 537 209 l 1
 329 209 l 1
 329 0 l 1
 241 0 l 1
 241 209 l 1
 33 209 l 1
 33 297 l 1
 241 297 l 1
EndSplineSet
Validated: 1
EndChar

StartChar: comma
Encoding: 44 44 12
Width: 250
Flags: MW
LayerCount: 2
Fore
SplineSet
58 -41 m 0
 58 1 -12 -4 -12 61 c 0
 -12 103 18 134 59 134 c 0
 110 134 144 95 144 36 c 0
 144 -45 68 -131 -47 -182 c 1
 -60 -158 l 1
 18 -116 58 -77 58 -41 c 0
EndSplineSet
Validated: 1
EndChar

StartChar: hyphen
Encoding: 45 45 13
Width: 333
Flags: MW
LayerCount: 2
Fore
SplineSet
271 282 m 1
 248 166 l 1
 2 166 l 1
 26 282 l 1
 271 282 l 1
EndSplineSet
Validated: 1
EndChar

StartChar: period
Encoding: 46 46 14
Width: 250
Flags: MW
LayerCount: 2
Fore
SplineSet
66 135 m 0
 106 135 139 101 139 61 c 0
 139 19 106 -13 64 -13 c 0
 23 -13 -9 19 -9 60 c 0
 -9 103 23 135 66 135 c 0
EndSplineSet
Validated: 1
EndChar

StartChar: slash
Encoding: 47 47 15
Width: 278
Flags: MW
LayerCount: 2
Fore
SplineSet
255 685 m 1
 342 685 l 1
 23 -18 l 1
 -64 -18 l 1
 255 685 l 1
EndSplineSet
Validated: 1
EndChar

StartChar: zero
Encoding: 48 48 16
Width: 500
Flags: MW
LayerCount: 2
Fore
SplineSet
17 206 m 0
 17 404 141 683 327 683 c 0
 418 683 477 588 477 442 c 0
 477 254 357 -14 177 -14 c 0
 81 -14 17 73 17 206 c 0
325 654 m 0
 288 654 260 614 223 510 c 0
 176 380 120 145 120 81 c 0
 120 41 140 15 170 15 c 0
 211 15 240 53 273 149 c 0
 299 224 374 510 374 582 c 0
 374 627 356 654 325 654 c 0
EndSplineSet
Validated: 1
EndChar

StartChar: one
Encoding: 49 49 17
Width: 500
Flags: MW
LayerCount: 2
Fore
SplineSet
5 0 m 1
 5 23 l 1
 77 23 109 42 124 97 c 0
 252 556 l 1
 254 565 256 574 256 580 c 0
 256 602 241 613 210 613 c 0
 191 613 174 612 147 608 c 1
 149 631 l 1
 265 648 328 661 419 683 c 1
 265 123 l 2
 254 83 253 78 253 69 c 0
 253 32 271 24 350 23 c 1
 350 0 l 1
 5 0 l 1
EndSplineSet
Validated: 1
EndChar

StartChar: two
Encoding: 50 50 18
Width: 500
Flags: MW
LayerCount: 2
Fore
SplineSet
64 519 m 1
 89 567 151 683 281 683 c 0
 374 683 446 609 446 515 c 0
 446 440 396 358 302 278 c 2
 106 111 l 1
 255 111 l 2
 333 111 356 125 394 191 c 1
 419 191 l 1
 340 0 l 1
 -27 0 l 1
 -27 24 l 1
 63 114 l 2
 251 301 312 392 312 483 c 0
 312 552 277 593 219 593 c 0
 167 593 126 566 86 507 c 1
 64 519 l 1
EndSplineSet
Validated: 1
EndChar

StartChar: three
Encoding: 51 51 19
Width: 500
Flags: MW
LayerCount: 2
Fore
SplineSet
285 189 m 0
 285 252 263 341 128 347 c 1
 132 369 l 1
 261 396 321 445 321 522 c 0
 321 577 287 612 234 612 c 0
 187 612 159 594 118 537 c 1
 97 550 l 1
 159 643 220 683 301 683 c 0
 386 683 450 625 450 547 c 0
 450 487 414 438 343 403 c 2
 331 397 l 1
 388 354 408 316 408 250 c 0
 408 104 279 -13 118 -13 c 0
 36 -13 -15 18 -15 67 c 0
 -15 101 9 123 45 123 c 0
 119 123 102 27 175 27 c 0
 236 27 285 100 285 189 c 0
EndSplineSet
Validated: 1
EndChar

StartChar: four
Encoding: 52 52 20
Width: 500
Flags: MW
LayerCount: 2
Fore
SplineSet
453 248 m 1
 426 150 l 1
 358 150 l 1
 316 0 l 1
 188 0 l 1
 229 150 l 1
 -15 150 l 1
 13 255 l 1
 440 683 l 1
 503 683 l 1
 384 248 l 1
 453 248 l 1
53 248 m 1
 256 248 l 1
 335 528 l 1
 53 248 l 1
EndSplineSet
Validated: 1
EndChar

StartChar: five
Encoding: 53 53 21
Width: 500
Flags: MW
LayerCount: 2
Fore
SplineSet
307 189 m 0
 307 260 266 363 73 372 c 1
 204 669 l 1
 487 669 l 1
 451 560 l 1
 197 560 l 1
 163 484 l 1
 255 465 282 456 316 433 c 0
 378 393 412 328 412 250 c 0
 412 102 284 -13 120 -13 c 0
 41 -13 -11 19 -11 66 c 0
 -11 99 14 123 48 123 c 0
 119 123 116 27 173 27 c 0
 243 27 307 104 307 189 c 0
EndSplineSet
Validated: 1
EndChar

StartChar: six
Encoding: 54 54 22
Width: 500
Flags: MW
LayerCount: 2
Fore
SplineSet
503 679 m 1
 509 655 l 1
 374 604 292 530 231 409 c 1
 261 419 273 422 293 422 c 0
 386 422 443 357 443 251 c 0
 443 103 334 -15 197 -15 c 0
 88 -15 23 64 23 195 c 0
 23 336 98 475 224 569 c 0
 305 628 369 653 503 679 c 1
251 382 m 0
 219 382 210 373 189 320 c 0
 156 238 135 148 135 95 c 0
 135 42 153 17 190 17 c 0
 215 17 238 32 251 56 c 0
 284 119 319 253 319 315 c 0
 319 361 298 382 251 382 c 0
EndSplineSet
Validated: 1
EndChar

StartChar: seven
Encoding: 55 55 23
Width: 500
Flags: MW
LayerCount: 2
Fore
SplineSet
83 479 m 1
 57 479 l 1
 144 669 l 1
 525 669 l 1
 144 0 l 1
 52 0 l 1
 384 556 l 1
 251 556 l 2
 147 556 120 544 83 479 c 1
EndSplineSet
Validated: 1
EndChar

StartChar: eight
Encoding: 56 56 24
Width: 500
Flags: MW
LayerCount: 2
Fore
SplineSet
300 683 m 0
 391 683 476 629 476 540 c 0
 476 469 436 425 333 381 c 1
 333 376 l 1
 394 309 419 257 419 193 c 0
 419 74 325 -13 197 -13 c 0
 82 -13 3 54 3 153 c 0
 3 238 59 296 183 340 c 1
 183 345 l 1
 127 404 109 441 109 499 c 0
 109 605 190 683 300 683 c 0
209 321 m 1
 177 299 100 249 100 141 c 0
 100 64 138 17 199 17 c 0
 261 17 306 72 306 147 c 0
 306 199 295 219 209 321 c 1
310 403 m 1
 367 463 383 493 383 544 c 0
 383 608 351 650 302 650 c 0
 254 650 220 609 220 553 c 0
 220 504 241 468 310 403 c 1
EndSplineSet
Validated: 1
EndChar

StartChar: nine
Encoding: 57 57 25
Width: 500
Flags: MW
LayerCount: 2
Fore
SplineSet
299 683 m 0
 440 683 475 558 475 476 c 0
 475 334 398 191 273 99 c 0
 193 40 129 15 -6 -10 c 1
 -12 15 l 1
 110 52 204 135 265 259 c 1
 241 248 226 245 204 245 c 0
 114 245 53 312 53 412 c 0
 53 564 161 683 299 683 c 0
314 651 m 0
 228 651 177 455 177 352 c 0
 177 311 200 288 243 288 c 0
 285 288 293 298 320 377 c 0
 332 413 363 494 363 582 c 0
 363 628 347 651 314 651 c 0
EndSplineSet
Validated: 1
EndChar

StartChar: colon
Encoding: 58 58 26
Width: 333
Flags: MW
LayerCount: 2
Fore
SplineSet
98 135 m 0
 138 135 171 101 171 61 c 0
 171 19 138 -13 96 -13 c 0
 55 -13 23 19 23 61 c 0
 23 103 56 135 98 135 c 0
191 459 m 0
 231 459 264 425 264 385 c 0
 264 343 231 311 189 311 c 0
 148 311 116 343 116 385 c 0
 116 427 149 459 191 459 c 0
EndSplineSet
Validated: 1
EndChar

StartChar: semicolon
Encoding: 59 59 27
Width: 333
Flags: MW
LayerCount: 2
Fore
SplineSet
93 -42 m 0
 93 0 23 -5 23 60 c 0
 23 102 53 133 94 133 c 0
 145 133 179 94 179 35 c 0
 179 -46 104 -132 -12 -183 c 1
 -25 -159 l 1
 53 -117 93 -78 93 -42 c 0
191 459 m 0
 231 459 264 425 264 385 c 0
 264 343 231 311 189 311 c 0
 148 311 116 343 116 385 c 0
 116 427 149 459 191 459 c 0
EndSplineSet
Validated: 1
EndChar

StartChar: less
Encoding: 60 60 28
Width: 570
Flags: MW
LayerCount: 2
Fore
SplineSet
539 -12 m 1
 31 211 l 1
 31 295 l 1
 539 518 l 1
 539 422 l 1
 154 253 l 1
 539 84 l 1
 539 -12 l 1
EndSplineSet
Validated: 1
EndChar

StartChar: equal
Encoding: 61 61 29
Width: 570
Flags: MW
LayerCount: 2
Fore
SplineSet
537 399 m 1
 537 311 l 1
 33 311 l 1
 33 399 l 1
 537 399 l 1
537 195 m 1
 537 107 l 1
 33 107 l 1
 33 195 l 1
 537 195 l 1
EndSplineSet
Validated: 1
EndChar

StartChar: greater
Encoding: 62 62 30
Width: 570
Flags: MW
LayerCount: 2
Fore
SplineSet
31 -12 m 1
 31 84 l 1
 416 253 l 1
 31 422 l 1
 31 518 l 1
 539 295 l 1
 539 211 l 1
 31 -12 l 1
EndSplineSet
Validated: 1
EndChar

StartChar: question
Encoding: 63 63 31
Width: 500
Flags: MW
LayerCount: 2
Fore
SplineSet
212 615 m 0
 212 601 241 579 241 547 c 0
 241 515 214 488 180 488 c 0
 146 488 119 517 119 555 c 0
 119 630 193 684 294 684 c 0
 399 684 470 626 470 539 c 0
 470 477 433 427 344 369 c 2
 278 326 l 2
 240 301 224 278 196 208 c 1
 167 215 l 1
 171 270 192 316 238 374 c 2
 279 425 l 2
 323 480 343 526 343 573 c 0
 343 622 316 653 274 653 c 0
 242 653 212 634 212 615 c 0
154 135 m 0
 194 135 227 101 227 61 c 0
 227 19 194 -13 152 -13 c 0
 111 -13 79 19 79 61 c 0
 79 103 112 135 154 135 c 0
EndSplineSet
Validated: 1
EndChar

StartChar: at
Encoding: 64 64 32
Width: 832
Flags: MW
LayerCount: 2
Fore
SplineSet
272 257 m 0
 272 312 315 515 473 515 c 0
 509 515 523 505 545 463 c 1
 556 501 l 1
 627 501 l 1
 562 244 l 1
 560 238 560 233 560 224 c 0
 560 195 574 179 597 179 c 0
 673 179 724 298 724 379 c 0
 724 525 594 646 437 646 c 0
 272 646 154 511 154 322 c 0
 154 151 277 28 449 28 c 0
 518 28 569 40 647 76 c 1
 660 41 l 1
 563 -4 511 -18 439 -18 c 0
 228 -18 63 134 63 328 c 0
 63 527 228 685 436 685 c 0
 624 685 770 555 770 387 c 0
 770 255 683 142 583 142 c 0
 534 142 492 176 490 217 c 1
 455 171 408 143 365 143 c 0
 313 143 272 193 272 257 c 0
528 409 m 0
 528 455 503 467 482 467 c 0
 432 467 348 390 348 275 c 0
 348 223 371 190 407 190 c 0
 476 190 528 329 528 409 c 0
EndSplineSet
Validated: 1
EndChar

StartChar: A
Encoding: 65 65 33
Width: 667
Flags: MW
LayerCount: 2
Fore
SplineSet
368 84 m 0
 368 110 360 151 353 208 c 1
 138 208 l 1
 79 106 l 2
 69 89 64 73 64 60 c 0
 64 36 83 25 129 25 c 1
 129 0 l 1
 -67 0 l 1
 -67 25 l 1
 -31 33 -15 46 16 95 c 2
 388 683 l 1
 413 683 l 1
 509 111 l 2
 522 35 527 30 593 25 c 1
 593 0 l 1
 289 0 l 1
 289 25 l 1
 353 31 368 42 368 84 c 0
161 248 m 1
 346 248 l 1
 309 491 l 1
 161 248 l 1
EndSplineSet
Validated: 1
EndChar

StartChar: B
Encoding: 66 66 34
Width: 667
Flags: MW
LayerCount: 2
Fore
SplineSet
189 603 m 0
 189 636 162 641 116 644 c 1
 116 669 l 1
 388 669 l 2
 543 669 624 619 624 523 c 0
 624 397 485 367 435 355 c 1
 536 322 572 284 572 206 c 0
 572 78 460 0 277 0 c 2
 -24 0 l 1
 -24 25 l 1
 24 31 42 45 56 97 c 2
 178 546 l 2
 185 571 189 593 189 603 c 0
255 32 m 0
 355 32 419 120 419 229 c 0
 419 326 357 335 269 338 c 1
 203 94 l 2
 200 81 198 72 198 65 c 0
 198 43 217 32 255 32 c 0
277 368 m 1
 397 373 477 397 477 536 c 0
 477 603 448 637 390 637 c 0
 358 637 348 629 338 593 c 2
 277 368 l 1
EndSplineSet
Validated: 1
EndChar

StartChar: C
Encoding: 67 67 35
Width: 667
Flags: MW
LayerCount: 2
Fore
SplineSet
440 685 m 0
 532 685 576 656 609 656 c 0
 624 656 633 663 647 685 c 1
 677 685 l 1
 626 451 l 1
 594 457 l 1
 596 470 597 479 597 492 c 0
 597 590 547 650 466 650 c 0
 298 650 186 383 186 209 c 0
 186 100 242 35 336 35 c 0
 454 35 515 116 546 153 c 1
 576 131 l 1
 544 87 528 69 498 47 c 0
 441 4 375 -18 304 -18 c 0
 141 -18 32 86 32 241 c 0
 32 483 217 685 440 685 c 0
EndSplineSet
Validated: 1
EndChar

StartChar: D
Encoding: 68 68 36
Width: 744
Flags: MW
LayerCount: 2
Fore
SplineSet
189 602 m 0
 189 635 168 637 116 644 c 1
 116 669 l 1
 406 669 l 2
 595 669 707 567 707 396 c 0
 707 169 517 0 262 0 c 2
 -24 0 l 1
 -24 25 l 1
 25 31 42 46 56 97 c 2
 177 543 l 2
 185 575 189 592 189 602 c 0
340 600 m 2
 211 122 l 2
 204 95 199 80 199 68 c 0
 199 45 216 34 253 34 c 0
 348 34 419 71 472 147 c 0
 526 224 560 343 560 457 c 0
 560 579 506 638 395 638 c 0
 363 638 347 627 340 600 c 2
EndSplineSet
Validated: 1
EndChar

StartChar: E
Encoding: 69 69 37
Width: 670
Flags: MW
LayerCount: 2
Fore
SplineSet
259 32 m 0
 431 32 507 106 564 199 c 1
 589 194 l 1
 530 0 l 1
 -24 0 l 1
 -24 25 l 1
 28 33 41 44 56 97 c 2
 179 546 l 2
 185 568 189 591 189 606 c 0
 189 635 164 637 116 644 c 1
 116 669 l 1
 656 669 l 1
 613 479 l 1
 586 484 l 1
 586 573 569 637 402 637 c 0
 361 637 349 628 339 593 c 2
 278 370 l 1
 291 370 l 2
 412 370 438 385 483 476 c 1
 511 472 l 1
 437 199 l 1
 409 204 l 1
 412 223 413 234 413 248 c 0
 413 317 383 336 269 338 c 1
 213 129 l 2
 213 123 198 83 198 66 c 0
 198 42 216 32 259 32 c 0
EndSplineSet
Validated: 1
EndChar

StartChar: F
Encoding: 70 70 38
Width: 656
Flags: MW
LayerCount: 2
Fore
SplineSet
579 484 m 1
 579 577 555 637 402 637 c 0
 362 637 349 628 339 593 c 2
 278 370 l 1
 409 371 429 382 476 476 c 1
 504 472 l 1
 430 199 l 1
 402 204 l 1
 405 223 406 234 406 248 c 0
 406 316 376 336 269 338 c 1
 215 137 l 2
 213 131 200 84 200 69 c 0
 200 38 215 29 271 25 c 1
 271 0 l 1
 -24 0 l 1
 -24 25 l 1
 28 33 41 44 56 97 c 2
 179 546 l 2
 185 568 189 592 189 606 c 0
 189 636 166 637 116 644 c 1
 116 669 l 1
 649 669 l 1
 606 479 l 1
 579 484 l 1
EndSplineSet
Validated: 1
EndChar

StartChar: G
Encoding: 71 71 39
Width: 722
Flags: MW
LayerCount: 2
Fore
SplineSet
493 268 m 0
 493 298 460 300 419 304 c 1
 419 330 l 1
 706 330 l 1
 706 304 l 1
 653 300 646 292 627 222 c 2
 579 41 l 1
 551 28 l 2
 494 2 394 -18 317 -18 c 0
 142 -18 21 92 21 251 c 0
 21 404 108 555 240 632 c 0
 301 667 372 685 448 685 c 0
 544 685 577 655 608 655 c 0
 628 655 639 663 650 685 c 1
 681 685 l 1
 630 464 l 1
 601 468 l 1
 598 579 566 649 462 649 c 0
 280 649 177 382 177 208 c 0
 177 86 235 20 341 20 c 0
 380 20 421 33 435 50 c 0
 441 58 493 222 493 268 c 0
EndSplineSet
Validated: 1
EndChar

StartChar: H
Encoding: 72 72 40
Width: 778
Flags: MW
LayerCount: 2
Fore
SplineSet
574 607 m 0
 574 635 554 636 501 644 c 1
 501 669 l 1
 799 669 l 1
 799 644 l 1
 748 637 734 625 718 572 c 2
 603 153 l 2
 589 103 584 80 584 66 c 0
 584 37 602 27 657 25 c 1
 657 0 l 1
 340 0 l 1
 340 25 l 1
 407 29 426 43 441 97 c 2
 505 329 l 1
 266 329 l 1
 216 148 l 2
 212 126 199 94 199 68 c 0
 199 36 209 30 272 25 c 1
 272 0 l 1
 -24 0 l 1
 -24 25 l 1
 26 32 42 44 56 97 c 2
 178 546 l 2
 185 572 189 593 189 604 c 0
 189 634 168 637 116 644 c 1
 116 669 l 1
 433 669 l 1
 433 644 l 1
 368 642 347 627 332 572 c 2
 278 373 l 1
 517 373 l 1
 564 546 l 2
 569 564 574 595 574 607 c 0
EndSplineSet
Validated: 1
EndChar

StartChar: I
Encoding: 73 73 41
Width: 393
Flags: MW
LayerCount: 2
Fore
SplineSet
189 607 m 0
 189 635 169 636 116 644 c 1
 116 669 l 1
 414 669 l 1
 414 644 l 1
 363 638 346 625 332 572 c 10
 218 152 l 2
 205 103 200 80 200 65 c 0
 200 37 215 28 272 25 c 1
 272 0 l 1
 -24 0 l 1
 -24 25 l 1
 25 31 42 45 56 97 c 2
 179 546 l 2
 184 564 189 595 189 607 c 0
EndSplineSet
Validated: 1
EndChar

StartChar: J
Encoding: 74 74 42
Width: 500
Flags: MW
LayerCount: 2
Fore
SplineSet
300 607 m 0
 300 629 286 636 227 644 c 1
 227 669 l 1
 524 669 l 1
 524 644 l 1
 475 638 457 626 443 572 c 2
 315 93 l 2
 280 -38 214 -99 106 -99 c 0
 18 -99 -46 -56 -46 2 c 0
 -46 41 -18 72 18 72 c 0
 53 72 81 44 81 9 c 0
 81 -23 58 -24 58 -45 c 0
 58 -57 67 -63 85 -63 c 0
 121 -63 136 -35 175 114 c 2
 289 546 l 2
 296 572 300 595 300 607 c 0
EndSplineSet
Validated: 1
EndChar

StartChar: K
Encoding: 75 75 43
Width: 664
Flags: MW
LayerCount: 2
Fore
SplineSet
189 604 m 0
 189 634 168 637 116 644 c 1
 116 669 l 1
 426 669 l 1
 426 644 l 1
 367 639 346 624 332 572 c 2
 270 344 l 1
 476 520 544 588 544 617 c 0
 544 632 534 639 509 642 c 0
 506 642 497 643 488 644 c 1
 488 669 l 1
 699 669 l 1
 699 644 l 1
 656 638 648 635 605 596 c 2
 389 398 l 1
 546 60 l 2
 557 36 571 29 609 25 c 1
 609 0 l 1
 329 0 l 1
 329 25 l 1
 367 28 394 30 394 52 c 0
 394 63 390 75 381 95 c 2
 268 337 l 1
 201 88 l 2
 200 83 199 77 199 71 c 0
 199 38 213 29 265 25 c 1
 265 0 l 1
 -24 0 l 1
 -24 25 l 1
 25 31 41.6263 44.1001 56 97 c 0
 178 546 l 2
 185 572 189 593 189 604 c 0
EndSplineSet
Validated: 1
EndChar

StartChar: L
Encoding: 76 76 44
Width: 609
Flags: MW
LayerCount: 2
Fore
SplineSet
189 607 m 0
 189 635 169 636 116 644 c 1
 116 669 l 1
 433 669 l 1
 433 644 l 1
 367 640 347 627 332 572 c 2
 203 94 l 2
 200 83 198 70 198 62 c 0
 198 41 218 32 262 32 c 0
 344 32 415 52 469 90 c 0
 508 118 530 143 564 199 c 1
 588 194 l 1
 529 0 l 1
 -24 0 l 1
 -24 25 l 1
 25 32 42 45 56 97 c 2
 179 546 l 2
 184 564 189 595 189 607 c 0
EndSplineSet
Validated: 1
EndChar

StartChar: M
Encoding: 77 77 45
Width: 896
Flags: MW
LayerCount: 2
Fore
SplineSet
917 669 m 1
 917 644 l 1
 866 638 850 624 836 572 c 2
 711 113 l 2
 705.1 91.3365 703 78 703 68 c 0
 703 36 717 28 775 25 c 1
 775 0 l 1
 463 0 l 1
 463 25 l 1
 528 29 548 43 563 97 c 2
 688 561 l 1
 313 -12 l 1
 285 -12 l 1
 218 547 l 1
 117 178 l 2
 104 130 98 102 98 86 c 0
 98 45 114 33 178 25 c 1
 178 0 l 1
 -29 0 l 1
 -29 25 l 1
 25 37 34 47 72 178 c 2
 181 551 l 2
 188 576 192 596 192 609 c 0
 192 637 183 641 120 644 c 1
 120 669 l 1
 341 669 l 1
 395 189 l 1
 705 669 l 1
 917 669 l 1
EndSplineSet
Validated: 1
EndChar

StartChar: N
Encoding: 78 78 46
Width: 722
Flags: MW
LayerCount: 2
Fore
SplineSet
304 669 m 1
 519 204 l 1
 599 491 l 2
 610 531 617 567 617 585 c 0
 617 623 596 639 537 644 c 1
 537 669 l 1
 746 669 l 1
 746 644 l 1
 688 631 681 623 644 491 c 2
 501 -15 l 1
 473 -15 l 1
 216 534 l 1
 117 178 l 2
 106 137 99 102 99 84 c 0
 99 45 120 30 179 25 c 1
 179 0 l 1
 -29 0 l 1
 -29 25 l 1
 26 36 34 47 72 178 c 2
 192 589 l 1
 173 633 164 639 109 644 c 1
 109 669 l 1
 304 669 l 1
EndSplineSet
Validated: 1
EndChar

StartChar: O
Encoding: 79 79 47
Width: 722
Flags: MW
LayerCount: 2
Fore
SplineSet
27 221 m 0
 27 412 204 685 449 685 c 0
 588 685 691 587 691 454 c 0
 691 250 520 -18 263 -18 c 0
 122 -18 27 78 27 221 c 0
445 651 m 0
 381 651 328 610 277 520 c 0
 222 424 171 239 171 137 c 0
 171 63 210 16 273 16 c 0
 327 16 372 46 418 113 c 0
 485 211 547 411 547 531 c 0
 547 603 506 651 445 651 c 0
EndSplineSet
Validated: 1
EndChar

StartChar: P
Encoding: 80 80 48
Width: 614
Flags: MW
LayerCount: 2
Fore
SplineSet
189 606 m 0
 189 636 166 637 116 644 c 1
 116 669 l 1
 403 669 l 2
 542 669 616 615 616 514 c 0
 616 394 509 317 343 317 c 0
 317 317 298 318 262 322 c 1
 208 123 l 2
 203.521 106.494 198 74 198 64 c 0
 198 37 214 28 270 25 c 1
 270 0 l 1
 -24 0 l 1
 -24 25 l 1
 28 33 41.2171 43.0363 56 97 c 2
 179 546 l 2
 185 568 189 592 189 606 c 0
386 637 m 0
 344 637 342 613 336 593 c 2
 272 354 l 1
 289 353 300 352 314 352 c 0
 384 352 421 375 447 434 c 0
 461 465 470 511 470 546 c 0
 470 604 439 637 386 637 c 0
EndSplineSet
Validated: 1
EndChar

StartChar: Q
Encoding: 81 81 49
Width: 722
Flags: MW
LayerCount: 2
Fore
SplineSet
396 -208 m 0
 296 -208 234 -161 156 -161 c 0
 124 -161 97 -168 42 -189 c 1
 28 -165 l 1
 184 -35 l 2
 202 -19 197 -25 203 -16 c 1
 190 1 148 -5 97 44 c 0
 52 86 27 146 27 211 c 0
 27 454 233 685 449 685 c 0
 589 685 691 587 691 452 c 0
 691 319 624 179 514 80 c 0
 437 11 382 -9 252 -17 c 1
 231 -37 206 -62 206 -64 c 0
 206 -74 294 -70 354 -90 c 2
 396 -103 l 2
 432 -114 453 -118 479 -118 c 0
 539 -118 576 -99 634 -40 c 1
 655 -59 l 1
 574 -168 505 -208 396 -208 c 0
445 651 m 0
 381 651 328 610 277 520 c 0
 222 423 171 239 171 136 c 0
 171 63 210 17 273 17 c 0
 327 17 372 47 418 114 c 0
 485 212 547 411 547 531 c 0
 547 603 506 651 445 651 c 0
EndSplineSet
Validated: 1
EndChar

StartChar: R
Encoding: 82 82 50
Width: 672
Flags: MW
LayerCount: 2
Fore
SplineSet
189 607 m 0
 189 635 169 636 116 644 c 1
 116 669 l 1
 392 669 l 2
 550 669 628 622 628 526 c 0
 628 485 612 378 436 343 c 1
 519 97 l 2
 539.318 36.7819 551 30 607 25 c 1
 607 0 l 1
 405 0 l 1
 298 331 l 1
 269 331 l 1
 214 138 l 2
 205 107 200 81 200 67 c 0
 200 37 214 29 272 25 c 1
 272 0 l 1
 -24 0 l 1
 -24 25 l 1
 25 31 42 45 56 97 c 2
 179 546 l 2
 184 563 189 595 189 607 c 0
338 593 m 2
 278 363 l 1
 340 364 379 371 405 388 c 0
 448 415 477 476 477 542 c 0
 477 602 444 637 387 637 c 0
 356 637 347 629 338 593 c 2
EndSplineSet
Validated: 1
EndChar

StartChar: S
Encoding: 83 83 51
Width: 556
Flags: MW
LayerCount: 2
Fore
SplineSet
239 -18 m 0
 154 -18 104 17 70 17 c 0
 51 17 44 11 32 -18 c 1
 2 -18 l 1
 38 206 l 1
 67 204 l 1
 72 123 98 16 221 16 c 0
 298 16 347 73 347 142 c 0
 347 269 102 328 102 491 c 0
 102 601 189 685 303 685 c 0
 364 685 422 655 452 655 c 0
 473 655 487 663 496 681 c 1
 526 681 l 1
 486 480 l 1
 459 484 l 1
 446 601 407 650 327 650 c 0
 263 650 223 609 223 545 c 0
 223 500 238 478 300 431 c 0
 422 338 468 271 468 185 c 0
 468 61 379 -18 239 -18 c 0
EndSplineSet
Validated: 1
EndChar

StartChar: T
Encoding: 84 84 52
Width: 611
Flags: MW
LayerCount: 2
Fore
SplineSet
650 669 m 1
 614 477 l 1
 587 479 l 1
 582 590 543 633 449 634 c 1
 309 128 l 2
 302 102 298 81 298 66 c 0
 298 34 311 28 381 25 c 1
 381 0 l 1
 50 0 l 1
 50 25 l 1
 64 25 l 2
 115 25 141 46 155 97 c 2
 303 634 l 1
 201 632 138 591 86 491 c 1
 61 498 l 1
 99 669 l 1
 650 669 l 1
EndSplineSet
Validated: 1
EndChar

StartChar: U
Encoding: 85 85 53
Width: 722
Flags: MW
LayerCount: 2
Fore
SplineSet
744 669 m 1
 744 644 l 1
 689 633 680 623 642 491 c 2
 576 263 l 2
 553 183 519 -18 290 -18 c 0
 159 -18 67 50 67 148 c 0
 67 181 78 243 100 323 c 2
 156 529 l 2
 165 562 171 593 171 605 c 0
 171 627 161 635 129 640 c 0
 125 640 112 642 98 644 c 1
 98 669 l 1
 409 669 l 1
 409 644 l 1
 347 641 331 629 315 572 c 0
 233 272 l 2
 208 181 205 166 205 139 c 0
 205 76 251 38 327 38 c 0
 382 38 426 58 460 98 c 0
 490 135 512 185 539 282 c 2
 597 491 l 2
 608 532 616 571 616 588 c 0
 616 623 593 639 536 644 c 1
 536 669 l 1
 744 669 l 1
EndSplineSet
Validated: 1
EndChar

StartChar: V
Encoding: 86 86 54
Width: 667
Flags: MW
LayerCount: 2
Fore
SplineSet
715 669 m 1
 715 644 l 1
 687 635 668 623 656 604 c 2
 263 -18 l 1
 231 -18 l 1
 155 491 l 2
 133 634 127 644 65 644 c 1
 65 669 l 1
 363 669 l 1
 363 644 l 1
 296 638 287 633 287 599 c 0
 287 593 287 589 288 583 c 2
 339 182 l 1
 529 484 l 2
 568 545 588 589 588 611 c 0
 588 630 576 639 548 642 c 0
 544 642 534 643 523 644 c 1
 523 669 l 1
 715 669 l 1
EndSplineSet
Validated: 1
EndChar

StartChar: W
Encoding: 87 87 55
Width: 889
Flags: MW
LayerCount: 2
Fore
SplineSet
940 669 m 1
 940 645 l 1
 898 639 883 628 856 572 c 2
 570 -18 l 1
 541 -18 l 1
 482 471 l 1
 249 -18 l 1
 220 -18 l 1
 142 561 l 2
 132 632 130 634 65 645 c 1
 65 669 l 1
 342 669 l 1
 342 644 l 1
 295 638 281 627 281 591 c 0
 281 587 281 580 282 575 c 2
 321 226 l 1
 471 537 l 1
 470 623 460 637 400 645 c 1
 400 669 l 1
 669 669 l 1
 669 644 l 1
 616 639 606 630 606 586 c 0
 606 575 606 572 612 521 c 2
 645 226 l 1
 801 553 l 2
 813 579 816 587 816 599 c 0
 816 635 809 640 753 644 c 1
 753 669 l 1
 940 669 l 1
EndSplineSet
Validated: 1
EndChar

StartChar: X
Encoding: 88 88 56
Width: 667
Flags: MW
LayerCount: 2
Fore
SplineSet
586 25 m 1
 586 0 l 1
 278 0 l 1
 278 25 l 1
 332 30 346 38 346 63 c 0
 346 103 302 218 289 264 c 1
 155 116 l 2
 133 92 125 78 125 65 c 0
 125 42 145 29 190 25 c 1
 190 0 l 1
 -24 0 l 1
 -24 25 l 1
 18 33 49 61 207 235 c 2
 275 309 l 1
 191 581 l 2
 176.629 627.535 160 638 100 644 c 1
 100 669 l 1
 405 669 l 1
 405 644 l 1
 391 642 380 641 375 641 c 0
 342 637 331 628 331 605 c 0
 331 578 370 460 371 458 c 2
 382 421 l 1
 476 520 l 2
 527 574 546 600 546 618 c 0
 546 633 536 640 513 642 c 0
 509 642 501 643 491 644 c 1
 491 669 l 1
 694 669 l 1
 694 644 l 1
 658 639 638 628 595 583 c 2
 396 378 l 1
 470 141 l 2
 499 47 514 33 586 25 c 1
EndSplineSet
Validated: 1
EndChar

StartChar: Y
Encoding: 89 89 57
Width: 611
Flags: MW
LayerCount: 2
Fore
SplineSet
234 313 m 1
 146 581 l 2
 128.436 634.493 124 637 73 644 c 1
 73 669 l 1
 356 669 l 1
 356 644 l 1
 301 643 286 635 286 607 c 0
 286 578 302 542 363 352 c 1
 492 538 l 2
 512 567 518 580 518 598 c 0
 518 633 504 642 451 644 c 1
 451 669 l 1
 659 669 l 1
 659 644 l 1
 621 636 601 622 568 575 c 2
 378 308 l 1
 326 117 l 2
 320 94 318 84 318 72 c 0
 318 35 330 28 395 25 c 1
 395 0 l 1
 73 0 l 1
 73 25 l 1
 142 30 157.968 39.2865 174 97 c 2
 234 313 l 1
EndSplineSet
Validated: 1
EndChar

StartChar: Z
Encoding: 90 90 58
Width: 611
Flags: MW
LayerCount: 2
Fore
SplineSet
226 35 m 2
 388 35 458 88 527 199 c 1
 554 194 l 1
 495 0 l 1
 -11 0 l 1
 -11 29 l 1
 423 634 l 1
 345 634 l 2
 235 634 172 597 93 487 c 1
 65 491 l 1
 122 669 l 1
 590 669 l 1
 590 640 l 1
 156 35 l 1
 226 35 l 2
EndSplineSet
Validated: 1
EndChar

StartChar: bracketleft
Encoding: 91 91 59
Width: 333
Flags: MW
LayerCount: 2
Fore
SplineSet
355 639 m 1
 286 639 l 2
 250 639 248 636 234 576 c 2
 76 -100 l 2
 75.6612 -101.129 75.4882 -102.31 75.4882 -103.515 c 0
 75.4882 -112.984 86.1621 -124 111 -124 c 2
 189 -124 l 1
 182 -159 l 1
 -37 -159 l 1
 162 674 l 1
 362 674 l 1
 355 639 l 1
EndSplineSet
EndChar

StartChar: backslash
Encoding: 92 92 60
Width: 278
Flags: MW
LayerCount: 2
Fore
SplineSet
-1 685 m 1
 84 685 l 1
 279 -18 l 1
 195 -18 l 1
 -1 685 l 1
EndSplineSet
Validated: 1
EndChar

StartChar: bracketright
Encoding: 93 93 61
Width: 333
Flags: MW
LayerCount: 2
Fore
SplineSet
-49 -122 m 1
 19 -122 l 2
 55 -122 57 -119 71 -61 c 0
 229 616 l 2
 229 619 l 0
 229 630 214 639 194 639 c 2
 116 639 l 1
 123 674 l 1
 343 674 l 1
 143 -157 l 1
 -56 -157 l 1
 -49 -122 l 1
EndSplineSet
Validated: 1
EndChar

StartChar: asciicircum
Encoding: 94 94 62
Width: 570
Flags: MW
LayerCount: 2
Fore
SplineSet
156 304 m 1
 67 304 l 1
 245 669 l 1
 325 669 l 1
 503 304 l 1
 414 304 l 1
 285 576 l 1
 156 304 l 1
EndSplineSet
Validated: 1
EndChar

StartChar: underscore
Encoding: 95 95 63
Width: 500
Flags: MW
LayerCount: 2
Fore
SplineSet
500 -125 m 1
 0 -125 l 1
 0 -75 l 1
 500 -75 l 1
 500 -125 l 1
EndSplineSet
Validated: 1
EndChar

StartChar: grave
Encoding: 96 96 64
Width: 333
Flags: MW
LayerCount: 2
Fore
SplineSet
297 516 m 1
 252 516 l 1
 119 605 l 2
 97 620 85 637 85 652 c 0
 85 676 106 697 130 697 c 0
 149 697 170 684 186 663 c 2
 297 516 l 1
EndSplineSet
Validated: 1
EndChar

StartChar: a
Encoding: 97 97 65
Width: 500
Flags: MW
AnchorPoint: "above" 280 449 basechar 0
LayerCount: 2
Fore
SplineSet
434 127 m 1
 455 112 l 1
 398 25 351 -14 304 -14 c 0
 267 -14 237 15 237 52 c 0
 237 66 240 80 251 119 c 1
 194 24 148 -13 87 -13 c 0
 22 -13 -21 38 -21 114 c 0
 -21 270 129 462 252 462 c 0
 295 462 317 441 326 390 c 1
 344 449 l 1
 455 456 l 1
 384 220 l 2
 360 139 350 97 350 72 c 0
 350 63 355 57 362 57 c 0
 378 57 393 72 434 127 c 1
303 373 m 0
 303 402 285 420 264 420 c 0
 201 420 102 214 102 112 c 0
 102 81 121 58 147 58 c 0
 235 58 303 305 303 373 c 0
EndSplineSet
Validated: 1
EndChar

StartChar: b
Encoding: 98 98 66
Width: 500
Flags: MW
LayerCount: 2
Fore
SplineSet
76 642 m 1
 76 669 l 1
 165 679 214 686 284 699 c 1
 194 371 l 1
 245 438 281 462 332 462 c 0
 398 462 444 411 444 338 c 0
 444 159 287 -13 124 -13 c 0
 59 -13 -14 19 -14 47 c 0
 -14 52 -3 96 6 128 c 2
 100 455 l 2
 126 546 139 599 139 612 c 0
 139 635 125 642 76 642 c 1
140 20 m 0
 237 20 319 214 319 325 c 0
 319 371 304 394 275 394 c 0
 177 394 109 86 109 47 c 0
 109 32 122 20 140 20 c 0
EndSplineSet
Validated: 1
EndChar

StartChar: c
Encoding: 99 99 67
Width: 444
Flags: MW
AnchorPoint: "above" 290 449 basechar 0
LayerCount: 2
Fore
SplineSet
271 429 m 0
 172 429 123 200 123 141 c 0
 123 87 153 51 196 51 c 0
 239 51 270 74 318 141 c 1
 346 123 l 1
 318 83 259 -13 148 -13 c 0
 58 -13 -5 49 -5 138 c 0
 -5 298 139 462 280 462 c 0
 346 462 392 425 392 372 c 0
 392 331 366 302 330 302 c 0
 297 302 272 324 272 354 c 0
 272 380 293 400 293 412 c 0
 293 422 283 429 271 429 c 0
EndSplineSet
Validated: 1
EndChar

StartChar: d
Encoding: 100 100 68
Width: 500
Flags: MW
LayerCount: 2
Fore
SplineSet
427 131 m 1
 449 115 l 1
 394 27 349 -11 300 -11 c 0
 262 -11 240 12 240 51 c 0
 240 66 243 81 251 118 c 1
 194 23 148 -13 85 -13 c 0
 24 -13 -21 40 -21 112 c 0
 -21 269 129 462 251 462 c 0
 280 462 299 453 323 429 c 1
 342 497 l 2
 362.308 569.679 370 606 370 615 c 0
 370 633 355 643 329 643 c 2
 308 643 l 1
 308 670 l 1
 408 678 457 685 517 699 c 1
 406 294 l 2
 371 167 349 80 349 71 c 0
 349 65 355 59 360 59 c 0
 375 59 400 86 427 131 c 1
308 370 m 0
 308 399 293 420 268 420 c 0
 183 420 103 187 103 117 c 0
 103 84 120 59 144 59 c 0
 231 59 308 319 308 370 c 0
EndSplineSet
Validated: 1
EndChar

StartChar: e
Encoding: 101 101 69
Width: 444
Flags: MW
AnchorPoint: "above" 310 449 basechar 0
LayerCount: 2
Fore
SplineSet
317 142 m 1
 346 125 l 1
 286 26 232 -13 156 -13 c 0
 69 -13 5 50 5 134 c 0
 5 299 149 462 293 462 c 0
 354 462 398 426 398 375 c 0
 398 332 368 226 141 182 c 1
 137 162 135 149 135 133 c 0
 135 79 157 51 200 51 c 0
 242 51 270 73 317 142 c 1
148 214 m 1
 225 242 306 285 306 395 c 0
 306 417 297 429 278 429 c 0
 230 429 184 352 148 214 c 1
EndSplineSet
Validated: 1
EndChar

StartChar: f
Encoding: 102 102 70
Width: 333
Flags: MW
LayerCount: 2
Fore
SplineSet
346 614 m 0
 346 636 362 648 362 656 c 0
 362 664 355 669 345 669 c 0
 310 669 279 619 254 520 c 2
 236 449 l 1
 328 449 l 1
 319 407 l 1
 229 407 l 1
 151 43 109 -205 -70 -205 c 0
 -130 -205 -169 -174 -169 -126 c 0
 -169 -97 -145 -72 -117 -72 c 0
 -92 -72 -68 -96 -68 -120 c 0
 -68 -145 -84 -154 -84 -163 c 0
 -84 -169 -76 -174 -66 -174 c 0
 -4 -174 -2 -95 112 407 c 1
 39 407 l 1
 48 449 l 1
 121 449 l 1
 157 574 211 698 347 698 c 0
 407 698 446 667 446 618 c 0
 446 587 425 565 395 565 c 0
 368 565 346 587 346 614 c 0
EndSplineSet
Validated: 1
EndChar

StartChar: g
Encoding: 103 103 71
Width: 500
Flags: MW
LayerCount: 2
Fore
SplineSet
-52 -97 m 0
 -52 -16 50 0 81 7 c 1
 37 22 19 42 19 73 c 0
 19 110 34 124 115 170 c 1
 61 193 35 229 35 280 c 0
 35 381 134 462 257 462 c 0
 303 462 334 453 367 429 c 1
 478 429 l 1
 478 373 l 1
 411 373 l 1
 416 357 417 347 417 331 c 0
 417 182 249 153 201 153 c 0
 170 153 167 161 150 161 c 0
 137 161 122 141 122 125 c 0
 122 110 141 96 173 87 c 2
 226 72 l 2
 335 41 375 7 375 -53 c 0
 375 -141 276 -203 136 -203 c 0
 21 -203 -52 -162 -52 -97 c 0
114 -6 m 0
 102 -6 35 -42 35 -91 c 0
 35 -137 81 -169 146 -169 c 0
 222 -169 266 -143 266 -100 c 0
 266 -74 253 -56 225 -43 c 0
 204 -33 123 -6 114 -6 c 0
194 184 m 0
 260 184 300 309 300 372 c 0
 300 406 281 431 255 431 c 0
 190 431 151 305 151 243 c 0
 151 205 166 184 194 184 c 0
EndSplineSet
Validated: 1
EndChar

StartChar: h
Encoding: 104 104 72
Width: 556
Flags: MW
LayerCount: 2
Fore
SplineSet
187 283 m 1
 254 379 314 462 399 462 c 0
 446 462 475 434 475 387 c 0
 475 368 464.888 326.036 445 265 c 0
 387 87 l 2
 384 78 384 77 384 75 c 0
 384 68 394 59 401 59 c 0
 414 59 433 80 476 142 c 1
 498 127 l 1
 432 24 392 -9 331 -9 c 0
 292 -9 265 15 265 49 c 0
 265 103 290 172 337 313 c 0
 344 333 348 344 348 346 c 0
 351 355 353 363 353 369 c 0
 353 380 343 390 331 390 c 0
 305 390 272 361 230 301 c 0
 180 228 159 178 108 0 c 1
 -13 0 l 1
 141 567 l 2
 146 586 149 601 149 610 c 0
 149 632 135 643 108 643 c 0
 103 643 94 643 86 642 c 1
 86 669 l 1
 167 676 217 684 294 699 c 1
 187 283 l 1
EndSplineSet
Validated: 1
EndChar

StartChar: i
Encoding: 105 105 73
Width: 278
Flags: MW
LayerCount: 2
Fore
SplineSet
216 141 m 1
 238 127 l 1
 168 22 131 -9 71 -9 c 0
 30 -9 2 17 2 54 c 0
 2 67 7 95 15 123 c 2
 73 338 l 2
 77 355 80 370 80 378 c 0
 80 399 64 407 21 407 c 1
 21 434 l 1
 99 440 169 450 223 462 c 1
 132 128 l 2
 129 116 123 82 123 76 c 0
 123 68 130 61 138 61 c 0
 153 61 176 82 202 121 c 2
 216 141 l 1
194 685 m 0
 231 685 263 654 263 617 c 0
 263 580 232 550 194 550 c 0
 157 550 128 580 128 619 c 0
 128 654 159 685 194 685 c 0
EndSplineSet
Validated: 1
EndChar

StartChar: j
Encoding: 106 106 74
Width: 278
Flags: MW
LayerCount: 2
Fore
SplineSet
-91 -126 m 0
 -91 -148 -106 -155 -106 -164 c 0
 -106 -169 -93 -176 -82 -176 c 0
 -54 -176 -37 -145 -11 -45 c 2
 81 310 l 2
 88 339 93 364 93 376 c 0
 93 402 81 407 31 407 c 1
 31 434 l 1
 143 444 180 449 239 462 c 1
 125 24 l 2
 85 -131 16 -207 -84 -207 c 0
 -146 -207 -189 -176 -189 -130 c 0
 -189 -101 -166 -77 -140 -77 c 0
 -113 -77 -91 -99 -91 -126 c 0
210 685 m 0
 248 685 279 654 279 617 c 0
 279 580 248 550 210 550 c 0
 173 550 144 580 144 619 c 0
 144 654 175 685 210 685 c 0
EndSplineSet
Validated: 1
EndChar

StartChar: k
Encoding: 107 107 75
Width: 500
Flags: MW
LayerCount: 2
Fore
SplineSet
149 188 m 1
 99 0 l 1
 -23 0 l 1
 133 567 l 2
 138 586 141 600 141 609 c 0
 141 632 127 643 99 643 c 0
 95 643 86 643 78 642 c 1
 78 669 l 1
 157 677 209 685 286 699 c 1
 163 239 l 1
 289 338 327 375 327 401 c 0
 327 417 315 422 276 424 c 1
 276 449 l 1
 483 449 l 1
 483 424 l 1
 437 418 416 406 348 348 c 2
 285 293 l 1
 323 98 335 63 363 63 c 0
 382 63 398 80 425 127 c 1
 447 116 l 1
 397 25 361 -8 311 -8 c 0
 249 -8 219 45 188 215 c 1
 149 188 l 1
EndSplineSet
Validated: 1
EndChar

StartChar: l
Encoding: 108 108 76
Width: 278
Flags: MW
LayerCount: 2
Fore
SplineSet
216 141 m 1
 238 127 l 1
 169 22 131 -9 69 -9 c 0
 29 -9 2 15 2 51 c 0
 2 75 15 133 36 209 c 2
 110 473 l 2
 130 540 144 602 144 615 c 0
 144 633 129 643 102 643 c 0
 98 643 92 643 81 642 c 1
 81 669 l 1
 156 676 204 682 290 699 c 1
 145 176 l 2
 131 124 123 90 123 76 c 0
 123 68 130 61 138 61 c 0
 155 61 176 82 216 141 c 1
EndSplineSet
Validated: 1
EndChar

StartChar: m
Encoding: 109 109 77
Width: 778
Flags: MW
LayerCount: 2
Fore
SplineSet
631 59 m 0
 645 59 668 84 700 135 c 1
 722 122 l 1
 664 24 624 -9 562 -9 c 0
 519 -9 495 13 495 54 c 0
 495 82 509 144 531 207 c 2
 576 338 l 2
 580 351 583 362 583 368 c 0
 583 379 572 389 560 389 c 0
 530 389 490 347 448 273 c 0
 412 210 406 192 347 0 c 1
 227 0 l 1
 292 207 l 2
 325 309 337 351 337 366 c 0
 337 379 328 389 318 389 c 0
 305 389 276 368 254 343 c 0
 198 276 160 190 107 0 c 1
 -14 0 l 1
 53 238 l 2
 80 333 88 367 88 381 c 0
 88 399 74 407 42 407 c 2
 34 407 l 1
 34 434 l 1
 149 443 170 446 234 461 c 1
 170 262 l 1
 233 360 300 462 388 462 c 0
 430 462 455 436 455 394 c 0
 455 366 448 340 429 290 c 1
 513 422 559 462 627 462 c 0
 671 462 704 431 704 391 c 0
 704 365 696 327 681 284 c 2
 636 151 l 2
 616.149 92.3322 614.979 85.0334 614.979 76.5781 c 0
 614.979 75.4479 615 74.297 615 73 c 0
 615 66 622 59 631 59 c 0
EndSplineSet
EndChar

StartChar: n
Encoding: 110 110 78
Width: 556
Flags: MW
LayerCount: 2
Fore
SplineSet
178 263 m 1
 268 396 315 462 401 462 c 0
 448 462 474 435 474 387 c 0
 474 363 463 318 448 272 c 2
 412 163 l 2
 394 109 387 86 387 76 c 0
 387 66 393 59 401 59 c 0
 418 59 431 73 471 135 c 1
 493 122 l 1
 435 25 393 -9 334 -9 c 0
 292 -9 266 14 266 51 c 0
 266 77 278 134 294 182 c 2
 349 348 l 2
 352 358 354 366 354 369 c 0
 354 379 341 390 329 390 c 0
 311 390 280 368 260 341 c 0
 198 260 162 173 115 0 c 1
 -6 0 l 1
 50 204 l 2
 84 324 96 371 96 382 c 0
 96 401 84 406 42 407 c 1
 42 434 l 1
 98 436 178 447 242 461 c 1
 178 263 l 1
EndSplineSet
Validated: 1
EndChar

StartChar: o
Encoding: 111 111 79
Width: 500
Flags: MW
LayerCount: 2
Fore
SplineSet
284 462 m 0
 375 462 441 399 441 311 c 0
 441 142 305 -13 156 -13 c 0
 64 -13 -3 50 -3 135 c 0
 -3 303 137 462 284 462 c 0
165 16 m 0
 271 16 322 309 322 375 c 0
 322 411 304 433 275 433 c 0
 181 433 116 200 116 78 c 0
 116 40 135 16 165 16 c 0
EndSplineSet
Validated: 1
EndChar

StartChar: p
Encoding: 112 112 80
Width: 500
Flags: MW
LayerCount: 2
Fore
SplineSet
23 407 m 1
 23 434 l 1
 75 440 114 446 216 462 c 1
 178 347 l 1
 237 430 281 462 338 462 c 0
 404 462 446 415 446 341 c 0
 446 168 304 -13 169 -13 c 0
 148 -13 136 -9 101 9 c 1
 89 -32 l 2
 71 -100 64 -133 64 -145 c 0
 64 -169 80 -177 129 -178 c 1
 129 -205 l 1
 -120 -205 l 1
 -120 -178 l 1
 -114 -178 l 2
 -73 -178 -61 -165 -45 -104 c 2
 55 284 l 2
 68 333 77 373 77 382 c 0
 77 401 68 405 23 407 c 1
321 340 m 0
 321 371 304 391 279 391 c 0
 198 391 160 235 148 195 c 0
 121 104 113 74 113 58 c 0
 113 38 130 22 152 22 c 0
 254 22 321 276 321 340 c 0
EndSplineSet
Validated: 1
EndChar

StartChar: q
Encoding: 113 113 81
Width: 500
Flags: MW
LayerCount: 2
Fore
SplineSet
276 462 m 0
 334 462 341 424 347 390 c 1
 362 449 l 1
 471 449 l 1
 429 294 410 223 386 145 c 0
 344 5 306 -134 306 -150 c 0
 306 -170 321 -178 357 -178 c 2
 371 -178 l 1
 371 -205 l 1
 104 -205 l 1
 104 -178 l 1
 166 -175 179 -167 194 -115 c 0
 257 98 l 1
 205 16 165 -13 105 -13 c 0
 41 -13 1 37 1 117 c 0
 1 264 142 462 276 462 c 0
325 371 m 0
 325 408 303 419 287 419 c 0
 218 419 126 219 126 116 c 0
 126 78 139 59 165 59 c 0
 260 59 325 311 325 371 c 0
EndSplineSet
Validated: 1
EndChar

StartChar: r
Encoding: 114 114 82
Width: 389
Flags: MW
LayerCount: 2
Fore
SplineSet
330 323 m 0
 296 323 282 361 270 361 c 0
 243 361 188 278 133 104 c 0
 129 89 115 46 100 0 c 1
 -21 0 l 1
 47 229 81 357 81 382 c 0
 81 401 72 405 27 407 c 1
 27 434 l 1
 148 444 167 447 227 462 c 1
 161 253 l 1
 240 411 281 462 332 462 c 0
 366 462 389 436 389 396 c 0
 389 354 364 323 330 323 c 0
EndSplineSet
Validated: 1
EndChar

StartChar: s
Encoding: 115 115 83
Width: 389
Flags: MW
LayerCount: 2
Fore
SplineSet
181 462 m 0
 220 462 253 440 275 440 c 0
 290 440 293 442 304 461 c 1
 333 461 l 1
 310 308 l 1
 283 310 l 1
 267 393 241 429 195 429 c 0
 163 429 142 408 142 376 c 0
 142 313 279 224 279 119 c 0
 279 44 215 -13 131 -13 c 0
 86 -13 57 7 37 7 c 0
 24 7 12 -1 8 -13 c 1
 -19 -13 l 1
 3 153 l 1
 30 150 l 1
 35 118 49 17 126 17 c 0
 158 17 183 41 183 71 c 0
 183 144 47 221 47 336 c 0
 47 412 100 462 181 462 c 0
EndSplineSet
Validated: 1
EndChar

StartChar: t
Encoding: 116 116 84
Width: 278
Flags: MW
LayerCount: 2
Fore
SplineSet
281 449 m 1
 281 407 l 1
 198 407 l 1
 165 289 l 2
 130.741 166.5 111 94 111 76 c 0
 111 69 119 61 127 61 c 0
 143 61 169 88 203 141 c 1
 225 127 l 1
 159 24 119 -9 59 -9 c 0
 17 -9 -11 17 -11 56 c 0
 -11 73 -2 118 13 169 c 2
 81 407 l 1
 30 407 l 1
 30 442 l 1
 109 472 159 513 213 594 c 1
 248 594 l 1
 209 449 l 1
 281 449 l 1
EndSplineSet
Validated: 1
EndChar

StartChar: u
Encoding: 117 117 85
Width: 556
Flags: MW
LayerCount: 2
Fore
SplineSet
471 133 m 1
 492 120 l 1
 440 31 391 -9 331 -9 c 0
 287 -9 266 11 266 51 c 0
 266 79 272 106 290 161 c 1
 187 17 157 -9 90 -9 c 0
 41 -9 15 16 15 65 c 0
 15 89 22 125 36 173 c 2
 76 306 l 2
 85 335 90 363 90 379 c 0
 90 399 80 404 34 407 c 1
 34 434 l 1
 113 437 214 457 243 462 c 1
 149 154 l 2
 136 111 134 103 134 88 c 0
 134 71 141 63 155 63 c 0
 175 63 197 80 228 118 c 0
 285 190 314 256 370 449 c 1
 488 449 l 1
 410 181 l 2
 386.708 100.971 384.944 88.3557 384.944 80.2617 c 0
 384.944 78.8163 385 77.5152 385 76 c 0
 385 67 391 59 399 59 c 0
 416 59 436 80 471 133 c 1
EndSplineSet
EndChar

StartChar: v
Encoding: 118 118 86
Width: 444
Flags: MW
LayerCount: 2
Fore
SplineSet
90 164 m 0
 90 407 59 407 16 407 c 1
 16 434 l 1
 99 446 122 450 171 462 c 1
 192 382 198 324 202 128 c 1
 301 240 328 281 328 316 c 0
 328 341 284 367 284 404 c 0
 284 434 311 462 340 462 c 0
 371 462 401 430 401 395 c 0
 401 308 324 190 111 -13 c 1
 85 -13 l 1
 89 123 l 0
 90 144 90 160 90 164 c 0
EndSplineSet
Validated: 1
EndChar

StartChar: w
Encoding: 119 119 87
Width: 667
Flags: MW
LayerCount: 2
Fore
SplineSet
538 311 m 0
 538 339 497 367 497 402 c 0
 497 434 523 462 553 462 c 0
 585 462 614 433 614 400 c 0
 614 316 527 183 342 -13 c 1
 315 -13 l 1
 292 272 l 1
 273 237 l 2
 229 158 185 81 179 73 c 2
 122 -13 l 1
 95 -13 l 1
 96.1649 39.4227 96.9213 49.7033 96.9213 65.5522 c 0
 96.9213 79.2566 96.3558 97.1241 95 150 c 0
 92 288 78 381 58 399 c 0
 50 406 41 407 16 407 c 1
 16 434 l 1
 99 448 130 453 171 462 c 1
 194 376 201 312 204 187 c 1
 360 462 l 1
 387 462 l 1
 419 130 l 1
 508 235 538 281 538 311 c 0
EndSplineSet
EndChar

StartChar: x
Encoding: 120 120 88
Width: 500
Flags: MW
LayerCount: 2
Fore
SplineSet
413 348 m 0
 392 348 369 368 356 368 c 0
 317 368 281 296 264 273 c 1
 296 117 l 2
 304 79 314 64 333 64 c 0
 351 64 361 73 400 123 c 1
 421 109 l 1
 360 21 318 -13 270 -13 c 0
 212 -13 192 48 173 142 c 1
 149 103 l 2
 91 7 68 -13 18 -13 c 0
 -20 -13 -46 11 -46 46 c 0
 -46 77 -22 102 9 102 c 0
 35 102 56 81 70 81 c 0
 87 81 98 90 118 122 c 2
 162 192 l 1
 132 346 l 2
 122 395 108 413 76 413 c 0
 67 413 62 413 41 411 c 1
 41 438 l 1
 208 462 l 1
 227 434 235 409 253 324 c 1
 333 435 364 462 411 462 c 0
 441 462 469 433 469 400 c 0
 469 372 443 348 413 348 c 0
EndSplineSet
Validated: 1
EndChar

StartChar: y
Encoding: 121 121 89
Width: 444
Flags: MW
LayerCount: 2
Fore
SplineSet
50 -125 m 0
 85 -125 142 -55 142 -4 c 0
 142 52 83 383 44 406 c 0
 37 410 32 411 14 411 c 1
 14 438 l 1
 79 444 115 450 163 462 c 1
 181 415 210.036 303.525 229 185 c 2
 241 110 l 1
 310 243 328 285 328 315 c 0
 328 353 273 347 273 404 c 0
 273 435 300 462 330 462 c 0
 363 462 392 432 392 398 c 0
 392 277 157 -205 -32 -205 c 0
 -67 -205 -94 -178 -94 -145 c 0
 -94 -116 -70 -90 -44 -90 c 0
 -4 -90 29 -125 50 -125 c 0
EndSplineSet
Validated: 1
EndChar

StartChar: z
Encoding: 122 122 90
Width: 389
Flags: MW
LayerCount: 2
Fore
SplineSet
34 5 m 0
 24 5 17 3 -18 -23 c 1
 -43 -1 l 1
 249 353 l 1
 104 353 l 2
 74 353 58 338 41 292 c 1
 13 295 l 1
 56 449 l 1
 368 449 l 1
 368 439 l 1
 87 104 l 1
 209 51 186 -49 241 -49 c 0
 253 -49 263 -42 263 -33 c 0
 263 -23 243 -8 243 13 c 0
 243 41 266 65 293 65 c 0
 321 65 346 41 346 13 c 0
 346 -38 299 -78 238 -78 c 0
 150 -78 80 5 34 5 c 0
EndSplineSet
Validated: 1
EndChar

StartChar: braceleft
Encoding: 123 123 91
Width: 348
Flags: MW
LayerCount: 2
Fore
SplineSet
28 -96 m 0
 28 -21 89 121 89 179 c 0
 89 214 67 233 5 249 c 1
 94 268 123 293 142 365 c 2
 188 544 l 2
 216.205 653.756 277 686 436 686 c 1
 433 674 l 1
 352 659 315 626 295 550 c 2
 250 379 l 2
 227 294 197 268 99 249 c 1
 174 229 191 215 191 173 c 0
 191 116 132 -33 132 -97 c 0
 132 -143 154 -164 213 -175 c 1
 210 -187 l 1
 95 -185 28 -173 28 -96 c 0
EndSplineSet
Validated: 1
EndChar

StartChar: bar
Encoding: 124 124 92
Width: 220
Flags: MW
LayerCount: 2
Fore
SplineSet
66 -18 m 1
 66 685 l 1
 154 685 l 1
 154 -18 l 1
 66 -18 l 1
EndSplineSet
Validated: 1
EndChar

StartChar: braceright
Encoding: 125 125 93
Width: 348
Flags: MW
LayerCount: 2
Fore
SplineSet
279 598 m 0
 279 519 218 380 218 320 c 0
 218 285 240 266 302 250 c 1
 213 230 184 206 165 134 c 2
 119 -45 l 1
 88 -154 30 -187 -129 -187 c 1
 -126 -175 l 1
 -45 -160 -8 -127 12 -51 c 2
 57 120 l 2
 80 205 110 231 208 250 c 1
 133 270 116 284 116 326 c 0
 116 384 175 537 175 597 c 0
 175 641 151 663 94 674 c 1
 97 686 l 1
 204 684 279 673 279 598 c 0
EndSplineSet
Validated: 1
EndChar

StartChar: asciitilde
Encoding: 126 126 94
Width: 570
Flags: MW
LayerCount: 2
Fore
SplineSet
175 331 m 0
 253 331 345 263 393 263 c 0
 416 263 436 276 461 308 c 1
 516 260 l 1
 470 197 439 175 393 175 c 0
 307 175 266 243 176 243 c 0
 147 243 131 233 107 201 c 1
 54 247 l 1
 87 305 125 331 175 331 c 0
EndSplineSet
Validated: 1
EndChar

StartChar: cent
Encoding: 162 162 96
Width: 500
Flags: MW
LayerCount: 2
Fore
SplineSet
431 576 m 1
 386 449 l 1
 422 429 439 404 439 370 c 0
 439 331 411 302 374 302 c 0
 360 302 349 306 339 313 c 1
 247 52 l 1
 289 54 324 81 365 141 c 1
 392 123 l 1
 329 33 292 3 225 -10 c 1
 178 -143 l 1
 144 -143 l 1
 190 -13 l 1
 96 -7 42 48 42 138 c 0
 42 299 185 462 327 462 c 0
 336 462 343 461 355 459 c 1
 396 576 l 1
 431 576 l 1
317 429 m 0
 224 429 169 210 169 147 c 0
 169 129 172 80 214 57 c 1
 339 413 l 2
 339 416 l 0
 339 423 329 429 317 429 c 0
EndSplineSet
Validated: 1
EndChar

StartChar: sterling
Encoding: 163 163 97
Width: 500
Flags: MW
LayerCount: 2
Fore
SplineSet
396 575 m 0
 396 596 403 617 403 628 c 0
 403 640 393 649 379 649 c 0
 350 649 329 622 319 572 c 0
 280 370 l 1
 394 370 l 1
 384 310 l 1
 269 310 l 1
 256 252 231 184 205 141 c 2
 194 124 l 1
 254 101 287 92 319 92 c 0
 367 92 387 106 409 155 c 1
 434 155 l 1
 426 117 400 -12 283 -12 c 0
 241 -12 208 4 156 49 c 1
 129 6 101 -11 58 -11 c 0
 5 -11 -32 25 -32 75 c 0
 -32 127 7 162 64 162 c 0
 85 162 100 159 125 148 c 1
 132 215 134 226 144 310 c 1
 35 310 l 1
 45 370 l 1
 150 370 l 1
 179 512 241 683 401 683 c 0
 464 683 510 644 510 592 c 0
 510 554 483 524 449 524 c 0
 419 524 396 546 396 575 c 0
113 90 m 1
 91 111 71 120 49 120 c 0
 18 120 -2 100 -2 70 c 0
 -2 40 21 19 54 19 c 0
 84 19 102 41 113 90 c 1
EndSplineSet
Validated: 1
EndChar

StartChar: currency
Encoding: 164 164 98
Width: 500
Flags: MW
LayerCount: 2
Fore
SplineSet
-26 92 m 1
 72 190 l 1
 46 228 35 263 35 310 c 0
 35 356 46 393 72 432 c 1
 -26 530 l 1
 32 586 l 1
 128 490 l 1
 168 515 204 525 250 525 c 0
 296 525 332 515 372 490 c 1
 468 586 l 1
 526 530 l 1
 428 432 l 1
 455 389 465 356 465 310 c 0
 465 263 454 226 428 190 c 1
 526 92 l 1
 468 34 l 1
 372 132 l 1
 331 106 294 95 250 95 c 0
 206 95 169 106 128 132 c 1
 32 34 l 1
 -26 92 l 1
250 443 m 0
 179 443 123 385 123 310 c 0
 123 236 179 177 250 177 c 0
 319 177 377 237 377 308 c 0
 377 383 321 443 250 443 c 0
EndSplineSet
Validated: 1
EndChar

StartChar: yen
Encoding: 165 165 99
Width: 500
Flags: MW
LayerCount: 2
Fore
SplineSet
504 342 m 1
 491 292 l 1
 341 292 l 1
 320 214 l 1
 472 214 l 1
 458 164 l 1
 306 164 l 1
 303 153 l 2
 291 110 287 87 287 68 c 0
 287 36 301 28 368 25 c 1
 368 0 l 1
 46 0 l 1
 46 25 l 1
 123 30 139 39 155 97 c 0
 174 164 l 1
 33 164 l 1
 47 214 l 1
 188 214 l 1
 210 292 l 1
 68 292 l 1
 82 342 l 1
 207 342 l 1
 128 581 l 1
 108 632 101 638 46 644 c 1
 46 669 l 1
 326 669 l 1
 326 644 l 1
 269 642 251 635 251 612 c 0
 251 603 253 592 257 580 c 2
 337 344 l 1
 472 538 l 2
 492 567 498 580 498 598 c 0
 498 633 484 642 428 644 c 1
 428 669 l 1
 628 669 l 1
 628 644 l 1
 588 636 568 622 535 575 c 0
 369 342 l 1
 504 342 l 1
EndSplineSet
Validated: 1
EndChar

StartChar: brokenbar
Encoding: 166 166 100
Width: 220
Flags: MW
LayerCount: 2
Fore
SplineSet
66 -18 m 1
 66 241 l 1
 154 241 l 1
 154 -18 l 1
 66 -18 l 1
66 426 m 1
 66 685 l 1
 154 685 l 1
 154 426 l 1
 66 426 l 1
EndSplineSet
Validated: 1
EndChar

StartChar: section
Encoding: 167 167 101
Width: 500
Flags: MW
LayerCount: 2
Fore
SplineSet
346 580 m 0
 346 612 382 622 382 635 c 0
 382 650 354 663 323 663 c 0
 274 663 238 633 238 590 c 0
 238 558 256 526 306 467 c 2
 375 386 l 2
 413 341 435 290 435 243 c 0
 435 177 382 121 318 121 c 0
 308 121 300 122 288 125 c 1
 286 121 l 1
 329 67 345 33 345 -9 c 0
 345 -84 273 -143 181 -143 c 0
 99 -143 36 -97 36 -38 c 0
 36 -3 61 22 94 22 c 0
 126 22 150 1 150 -28 c 0
 150 -69 115 -76 115 -91 c 0
 115 -106 148 -120 182 -120 c 0
 232 -120 268 -88 268 -44 c 0
 268 -11 256 9 185 95 c 2
 119 175 l 2
 84 217 68 256 68 299 c 0
 68 368 115 425 172 425 c 0
 184 425 209 422 221 419 c 1
 223 422 l 1
 188 461 168 507 168 551 c 0
 168 630 232 685 323 685 c 0
 402 685 459 644 459 587 c 0
 459 552 434 526 401 526 c 0
 371 526 346 551 346 580 c 0
139 342 m 0
 139 296 235 148 305 148 c 0
 336 148 364 175 364 206 c 0
 364 273 253 400 195 400 c 0
 164 400 139 374 139 342 c 0
EndSplineSet
Validated: 1
EndChar

StartChar: dieresis
Encoding: 168 168 102
Width: 333
Flags: MW
LayerCount: 2
Fore
SplineSet
119 655 m 0
 155 655 185 625 185 589 c 0
 185 555 154 525 119 525 c 0
 85 525 55 555 55 589 c 0
 55 625 84 655 119 655 c 0
331 655 m 0
 367 655 397 625 397 589 c 0
 397 555 366 525 331 525 c 0
 297 525 267 555 267 589 c 0
 267 625 296 655 331 655 c 0
EndSplineSet
Validated: 1
EndChar

StartChar: copyright
Encoding: 169 169 103
Width: 747
Flags: MW
LayerCount: 2
Fore
SplineSet
405 538 m 0
 453 538 527 522 527 499 c 2
 527 428 l 1
 510 428 l 1
 497 488 461 518 400 518 c 0
 314 518 265 454 265 342 c 0
 265 228 315 163 403 163 c 0
 461 163 497 189 526 250 c 1
 544 250 l 1
 527 178 l 1
 525 168 524 167 515 164 c 0
 487 152 429 140 396 140 c 0
 262 140 180 214 180 335 c 0
 180 457 269 538 405 538 c 0
374 685 m 0
 566 685 718 530 718 334 c 0
 718 134 568 -18 369 -18 c 0
 182 -18 30 139 30 332 c 0
 30 529 182 685 374 685 c 0
374 639 m 0
 219 639 91 501 91 333 c 0
 91 168 220 28 370 28 c 0
 530 28 657 164 657 334 c 0
 657 500 528 639 374 639 c 0
EndSplineSet
Validated: 1
EndChar

StartChar: ordfeminine
Encoding: 170 170 104
Width: 266
Flags: MW
LayerCount: 2
Fore
SplineSet
267 442 m 0
 279 442 311 482 313 484 c 1
 326 475 l 1
 288 422 259 399 229 399 c 0
 206 399 185 417 185 437 c 0
 185 448 186 454 196 488 c 1
 159 423 130 400 86 400 c 0
 45 400 16 431 16 476 c 0
 16 572 114 685 196 685 c 0
 222 685 236 672 243 640 c 1
 254 676 l 1
 330 680 l 1
 284 540 l 1
 268 493 262 467 262 451 c 0
 262 446 264 442 267 442 c 0
218 630 m 0
 218 654 201 658 196 658 c 0
 161 658 94 537 94 473 c 0
 94 458 105 445 118 445 c 0
 174 445 218 590 218 630 c 0
EndSplineSet
Validated: 1
EndChar

StartChar: guillemotleft
Encoding: 171 171 105
Width: 500
Flags: MW
LayerCount: 2
Fore
SplineSet
195 32 m 0
 186 32 167 60 12 217 c 1
 12 226 l 1
 182 350 l 2
 242 393 253 415 270 415 c 0
 277 415 283 409 283 403 c 0
 283 382 252 341 182 269 c 1
 137 220 l 1
 177 137 l 2
 200 90 210 62 210 47 c 0
 210 39 203 32 195 32 c 0
380 32 m 0
 371 32 352 60 197 217 c 1
 197 226 l 1
 367 350 l 2
 427 393 438 415 455 415 c 0
 462 415 468 409 468 403 c 0
 468 382 437 341 367 269 c 1
 322 220 l 1
 362 137 l 2
 385 90 395 62 395 47 c 0
 395 39 388 32 380 32 c 0
EndSplineSet
Validated: 1
EndChar

StartChar: logicalnot
Encoding: 172 172 106
Width: 606
Flags: MW
LayerCount: 2
Fore
SplineSet
467 108 m 1
 467 311 l 1
 51 311 l 1
 51 399 l 1
 555 399 l 1
 555 108 l 1
 467 108 l 1
EndSplineSet
Validated: 1
EndChar

StartChar: registered
Encoding: 174 174 107
Width: 747
Flags: MW
LayerCount: 2
Fore
SplineSet
492 151 m 2
 460 151 439 214 372 317 c 1
 328 317 l 1
 328 215 l 2
 328 172 328 172 376 167 c 1
 376 151 l 1
 210 151 l 1
 210 167 l 1
 257 172 257 172 257 215 c 2
 257 464 l 2
 257 506 257 506 210 511 c 1
 210 527 l 1
 393 527 l 2
 465 527 510 490 510 432 c 0
 510 384 483 348 429 328 c 1
 488 246 l 2
 519 204 542 178 562 162 c 1
 562 151 l 1
 492 151 l 2
328 506 m 1
 328 337 l 1
 369 337 l 2
 412 337 437 370 437 428 c 0
 437 480 414 506 368 506 c 2
 328 506 l 1
374 685 m 0
 566 685 718 530 718 334 c 0
 718 134 568 -18 369 -18 c 0
 182 -18 30 139 30 332 c 0
 30 529 182 685 374 685 c 0
374 639 m 0
 219 639 91 501 91 333 c 0
 91 168 220 28 370 28 c 0
 530 28 657 164 657 334 c 0
 657 500 528 639 374 639 c 0
EndSplineSet
Validated: 1
EndChar

StartChar: macron
Encoding: 175 175 108
Width: 333
Flags: MW
LayerCount: 2
Fore
SplineSet
393 623 m 1
 377 553 l 1
 51 553 l 1
 68 623 l 1
 393 623 l 1
EndSplineSet
Validated: 1
EndChar

StartChar: degree
Encoding: 176 176 109
Width: 400
Flags: MW
LayerCount: 2
Fore
SplineSet
226 683 m 0
 306 683 369 620 369 540 c 0
 369 459 306 397 224 397 c 0
 146 397 83 461 83 540 c 0
 83 620 146 683 226 683 c 0
226 647 m 0
 170 647 124 598 124 540 c 0
 124 482 170 433 225 433 c 0
 282 433 328 481 328 540 c 0
 328 598 281 647 226 647 c 0
EndSplineSet
Validated: 1
EndChar

StartChar: plusminus
Encoding: 177 177 110
Width: 570
Flags: MW
LayerCount: 2
Fore
SplineSet
241 359 m 1
 241 568 l 1
 329 568 l 1
 329 359 l 1
 537 359 l 1
 537 271 l 1
 329 271 l 1
 329 128 l 1
 241 128 l 1
 241 271 l 1
 33 271 l 1
 33 359 l 1
 241 359 l 1
33 0 m 1
 33 88 l 1
 537 88 l 1
 537 0 l 1
 33 0 l 1
EndSplineSet
Validated: 1
EndChar

StartChar: twosuperior
Encoding: 178 178 111
Width: 300
Flags: MW
LayerCount: 2
Fore
SplineSet
108 290 m 1
 252 427 326 496 326 556 c 0
 326 597 303 622 267 622 c 0
 238 622 217 610 185 574 c 1
 167 585 l 1
 203 651 250 683 311 683 c 0
 371 683 419 639 419 584 c 0
 419 536 393 497 327 444 c 2
 202 343 l 1
 291 343 l 2
 341 343 356 351 381 388 c 1
 397 388 l 1
 346 274 l 1
 108 274 l 1
 108 290 l 1
EndSplineSet
Validated: 1
EndChar

StartChar: threesuperior
Encoding: 179 179 112
Width: 300
Flags: MW
LayerCount: 2
Fore
SplineSet
150 356 m 0
 197 356 190 298 236 298 c 0
 275 298 306 338 306 390 c 0
 306 448 273 478 206 481 c 1
 208 495 l 1
 290 510 329 537 329 580 c 0
 329 612 308 632 274 632 c 0
 246 632 227 622 199 590 c 1
 185 603 l 1
 225 659 265 683 318 683 c 0
 374 683 417 648 417 602 c 0
 417 562 401 547 338 511 c 1
 376 485 390 462 390 423 c 0
 390 336 304 265 198 265 c 0
 145 265 113 284 113 315 c 0
 113 339 129 356 150 356 c 0
EndSplineSet
Validated: 1
EndChar

StartChar: acute
Encoding: 180 180 113
Width: 333
Flags: MW
LayerCount: 2
Fore
SplineSet
188 516 m 1
 139 516 l 1
 261 647 l 2
 296 685 313 697 331 697 c 0
 357 697 379 675 379 650 c 0
 379 631 370 620 340 603 c 2
 188 516 l 1
EndSplineSet
Validated: 1
EndChar

StartChar: micro
Encoding: 181 181 114
Width: 576
Flags: MW
LayerCount: 2
Fore
SplineSet
69 -108 m 0
 69 -187 23 -207 -10 -207 c 0
 -42 -207 -60 -185 -60 -146 c 0
 -60 -92 -40 -75 14 74 c 2
 125 449 l 1
 260 449 l 1
 167 137 l 2
 163 123 160 106 160 95 c 0
 160 79 167 70 179 70 c 0
 221 70 296 177 330 285 c 2
 381 449 l 1
 516 449 l 1
 412 113 l 2
 409 103 407 93 407 86 c 0
 407 78 412 72 419 72 c 0
 434 72 452 90 482 134 c 1
 503 118 l 1
 453 50 407 -13 336 -13 c 0
 300 -13 273 14 273 50 c 0
 273 69 275 80 284 118 c 1
 231 28 200 0 154 0 c 0
 130 0 118 5 92 24 c 1
 78 -19 70 -65 69 -108 c 0
EndSplineSet
Validated: 1
EndChar

StartChar: paragraph
Encoding: 182 182 115
Width: 500
Flags: MW
LayerCount: 2
Fore
SplineSet
141 258 m 1
 58 261 -4 289 -4 388 c 0
 -4 464 29 557 72 603 c 0
 113 647 178 669 267 669 c 2
 562 669 l 1
 556 644 l 1
 475 637 472 635 458 581 c 2
 289 -68 l 2
 285 -86 273 -138 273 -142 c 0
 273 -155 287 -162 323 -166 c 0
 326 -166 336 -167 346 -168 c 1
 339 -193 l 1
 168 -193 l 1
 385 644 l 1
 330 644 l 1
 113 -193 l 1
 -57 -193 l 1
 -50 -168 l 1
 38 -161 33 -158 56 -68 c 2
 141 258 l 1
147 283 m 1
 241 644 l 1
 178 628 152 611 123 564 c 0
 95 518 75 448 75 394 c 0
 75 342 101 302 147 283 c 1
EndSplineSet
Validated: 1
EndChar

StartChar: cedilla
Encoding: 184 184 117
Width: 333
Flags: MW
LayerCount: 2
Fore
SplineSet
-25 -92 m 1
 41 5 l 1
 85 5 l 1
 40 -62 l 1
 50 -60 56 -59 66 -59 c 0
 118 -59 156 -89 156 -131 c 0
 156 -181 103 -218 32 -218 c 0
 -4 -218 -36 -211 -80 -193 c 1
 -58 -160 l 1
 -30 -173 -13 -177 9 -177 c 0
 43 -177 65 -161 65 -136 c 0
 65 -114 47 -100 18 -100 c 0
 8 -100 0 -101 -12 -104 c 1
 -25 -92 l 1
EndSplineSet
Validated: 1
EndChar

StartChar: onesuperior
Encoding: 185 185 118
Width: 272
Flags: MW
LayerCount: 2
Fore
SplineSet
264 612 m 0
 264 617 259 634 238 634 c 0
 232 634 221 633 206 632 c 2
 195 631 l 1
 197 652 l 1
 269 663 311 670 374 683 c 1
 274 353 l 1
 270 341 268 328 268 319 c 0
 268 297 278 293 327 293 c 1
 327 274 l 1
 103 274 l 1
 103 293 l 1
 181 293 175 327 204 414 c 0
 228 485 264 602 264 612 c 0
EndSplineSet
Validated: 1
EndChar

StartChar: ordmasculine
Encoding: 186 186 119
Width: 300
Flags: MW
LayerCount: 2
Fore
SplineSet
347 592 m 0
 347 511 271 400 162 400 c 0
 101 400 56 438 56 489 c 0
 56 589 148 685 243 685 c 0
 304 685 347 647 347 592 c 0
266 630 m 0
 266 658 252 665 239 665 c 0
 174 665 137 505 137 455 c 0
 137 433 148 420 165 420 c 0
 229 420 266 587 266 630 c 0
EndSplineSet
Validated: 1
EndChar

StartChar: guillemotright
Encoding: 187 187 120
Width: 500
Flags: MW
LayerCount: 2
Fore
SplineSet
285 415 m 0
 294 415 312 387 468 230 c 1
 468 221 l 1
 298 97 l 2
 242 57 228 32 210 32 c 0
 203 32 197 38 197 44 c 0
 197 65 227 105 298 178 c 1
 343 227 l 1
 303 310 l 2
 280 358 270 385 270 400 c 0
 270 408 277 415 285 415 c 0
100 415 m 0
 109 415 127 387 283 230 c 1
 283 221 l 1
 113 97 l 2
 57 57 43 32 25 32 c 0
 18 32 12 38 12 44 c 0
 12 65 42 105 113 178 c 1
 158 227 l 1
 118 310 l 2
 95 358 85 385 85 400 c 0
 85 408 92 415 100 415 c 0
EndSplineSet
Validated: 1
EndChar

StartChar: onequarter
Encoding: 188 188 121
Width: 750
Flags: MW
LayerCount: 2
Fore
SplineSet
718 149 m 1
 701 88 l 1
 657 88 l 1
 629 0 l 1
 543 0 l 1
 570 88 l 1
 411 88 l 1
 427 155 l 1
 705 410 l 1
 751 410 l 1
 673 149 l 1
 718 149 l 1
455 149 m 1
 587 149 l 1
 639 319 l 1
 455 149 l 1
659 683 m 1
 224 -14 l 1
 166 -14 l 1
 601 683 l 1
 659 683 l 1
37 274 m 1
 37 293 l 1
 115 293 109 327 138 414 c 0
 167 498 198 602 198 613 c 0
 198 624 186 634 172 634 c 0
 165 634 154 633 140 632 c 2
 129 631 l 1
 131 652 l 1
 203 663 245 670 308 683 c 1
 208 353 l 1
 204 341 202 328 202 319 c 0
 202 297 212 293 261 293 c 1
 261 274 l 1
 37 274 l 1
EndSplineSet
Validated: 1
EndChar

StartChar: onehalf
Encoding: 189 189 122
Width: 750
Flags: MW
LayerCount: 2
Fore
SplineSet
664 683 m 1
 229 -14 l 1
 171 -14 l 1
 606 683 l 1
 664 683 l 1
462 16 m 1
 606 153 680 222 680 282 c 0
 680 323 657 348 621 348 c 0
 592 348 571 336 539 300 c 1
 521 311 l 1
 557 377 604 409 665 409 c 0
 725 409 773 365 773 310 c 0
 773 262 747 223 681 170 c 2
 556 69 l 1
 645 69 l 2
 695 69 710 77 735 114 c 1
 751 114 l 1
 700 0 l 1
 462 0 l 1
 462 16 l 1
41 274 m 1
 41 293 l 1
 119 293 113 327 142 414 c 0
 171 498 202 602 202 613 c 0
 202 624 190 634 176 634 c 0
 169 634 158 633 144 632 c 2
 133 631 l 1
 135 652 l 1
 207 663 249 670 312 683 c 1
 212 353 l 1
 208 341 206 328 206 319 c 0
 206 297 216 293 265 293 c 1
 265 274 l 1
 41 274 l 1
EndSplineSet
Validated: 1
EndChar

StartChar: threequarters
Encoding: 190 190 123
Width: 750
Flags: MW
LayerCount: 2
Fore
SplineSet
734 149 m 1
 717 88 l 1
 673 88 l 1
 645 0 l 1
 559 0 l 1
 586 88 l 1
 427 88 l 1
 443 155 l 1
 721 410 l 1
 767 410 l 1
 689 149 l 1
 734 149 l 1
471 149 m 1
 603 149 l 1
 655 319 l 1
 471 149 l 1
675 683 m 1
 240 -14 l 1
 182 -14 l 1
 617 683 l 1
 675 683 l 1
85 356 m 0
 132 356 125 298 170 298 c 0
 210 298 241 338 241 389 c 0
 241 448 209 478 141 481 c 1
 143 495 l 1
 225 510 264 537 264 580 c 0
 264 612 243 632 209 632 c 0
 181 632 162 622 134 590 c 1
 120 603 l 1
 160 659 200 683 253 683 c 0
 309 683 352 648 352 602 c 0
 352 563 336 548 273 511 c 1
 311 485 325 462 325 423 c 0
 325 336 239 265 134 265 c 0
 80 265 48 284 48 315 c 0
 48 339 64 356 85 356 c 0
EndSplineSet
Validated: 1
EndChar

StartChar: AE
Encoding: 198 198 131
Width: 944
Flags: MW
LayerCount: 2
Fore
SplineSet
543 32 m 0
 712 32 769 111 824 199 c 1
 850 196 l 1
 791 0 l 1
 264 0 l 1
 264 25 l 1
 316 33 327 43 342 96 c 0
 388 255 l 1
 196 255 l 1
 82 98 l 2
 73 85 67 71 67 59 c 0
 67 37 83 29 131 25 c 1
 131 0 l 1
 -64 0 l 1
 -64 25 l 1
 -27 32 -34 30 24 102 c 2
 390 574 l 2
 402 590 410 607 410 618 c 0
 410 636 394 642 329 646 c 1
 329 669 l 1
 918 669 l 1
 873 479 l 1
 849 484 l 1
 847 524 l 1
 843 599 789 637 685 637 c 0
 643 637 633 632 626 605 c 0
 561 370 l 1
 580 370 l 2
 682 370 715 390 755 476 c 1
 781 472 l 1
 708 199 l 1
 683 204 l 1
 684 215 l 2
 685 222 686 230 686 251 c 0
 686 316 663 331 553 338 c 1
 490 97 l 2
 487 86 485 75 485 69 c 0
 485 43 502 32 543 32 c 0
225 294 m 1
 398 294 l 1
 490 627 l 1
 478 627 l 1
 225 294 l 1
EndSplineSet
Validated: 1
EndChar

StartChar: Ccedilla
Encoding: 199 199 132
Width: 667
Flags: MW
LayerCount: 2
Fore
SplineSet
576 131 m 1
 543 86 457 -18 304 -18 c 0
 283 -18 263 -16 241 -12 c 1
 207 -62 l 1
 217 -60 223 -59 233 -59 c 0
 285 -59 323 -89 323 -131 c 0
 323 -181 270 -218 199 -218 c 0
 162 -218 130 -211 87 -193 c 1
 109 -160 l 1
 137 -173 154 -177 176 -177 c 0
 210 -177 232 -161 232 -136 c 0
 232 -114 214 -100 185 -100 c 0
 175 -100 167 -101 155 -104 c 1
 142 -92 l 1
 203 -2 l 1
 94 34 32 122 32 241 c 0
 32 483 217 685 440 685 c 0
 532 685 576 656 609 656 c 0
 624 656 633 663 647 685 c 1
 677 685 l 1
 626 451 l 1
 594 457 l 1
 596 470 597 479 597 492 c 0
 597 590 547 650 466 650 c 0
 298 650 186 383 186 209 c 0
 186 100 242 35 336 35 c 0
 454 35 515 116 546 153 c 1
 576 131 l 1
EndSplineSet
Validated: 1
EndChar

StartChar: Eth
Encoding: 208 208 141
Width: 722
Flags: MW
LayerCount: 2
Fore
SplineSet
182 602 m 0
 182 635 161 637 109 644 c 1
 109 669 l 1
 399 669 l 2
 588 669 700 567 700 396 c 0
 700 169 510 0 255 0 c 2
 -31 0 l 1
 -31 25 l 1
 18 31 35 46 49 97 c 0
 112 329 l 1
 10 329 l 1
 22 373 l 1
 124 373 l 1
 170 543 l 1
 178 574 182 592 182 602 c 0
272 373 m 1
 394 373 l 1
 382 329 l 1
 260 329 l 1
 205 126 l 1
 205 126 204 124 204 122 c 0
 195 96 192 80 192 68 c 0
 192 45 209 34 246 34 c 0
 341 34 412 71 465 147 c 0
 519 224 553 343 553 457 c 0
 553 579 499 638 388 638 c 0
 356 638 340 627 333 600 c 2
 272 373 l 1
EndSplineSet
Validated: 1
EndChar

StartChar: multiply
Encoding: 215 215 148
Width: 570
Flags: MW
LayerCount: 2
Fore
SplineSet
223 253 m 1
 48 428 l 1
 110 490 l 1
 285 314 l 1
 460 490 l 1
 522 428 l 1
 346 253 l 1
 522 78 l 1
 460 16 l 1
 285 192 l 1
 110 16 l 1
 48 78 l 1
 223 253 l 1
EndSplineSet
Validated: 1
EndChar

StartChar: Oslash
Encoding: 216 216 149
Width: 722
Flags: MW
LayerCount: 2
Fore
SplineSet
144 11 m 1
 105 34 27 91 27 212 c 0
 27 453 234 685 449 685 c 0
 479 685 499 682 531 672 c 1
 584 764 l 1
 633 764 l 1
 570 656 l 1
 602 637 691 582 691 453 c 0
 691 250 515 -18 266 -18 c 0
 235 -18 214 -15 183 -5 c 1
 113 -125 l 1
 65 -125 l 1
 144 11 l 1
182 77 m 1
 506 630 l 1
 487 645 468 651 443 651 c 0
 382 651 327 608 278 521 c 0
 220 418 171 243 171 141 c 0
 171 119 175 97 182 77 c 1
273 16 m 0
 457 16 547 421 547 526 c 0
 547 548 542 571 533 593 c 1
 208 38 l 1
 228 22 247 16 273 16 c 0
EndSplineSet
Validated: 1
EndChar

StartChar: Thorn
Encoding: 222 222 155
Width: 611
Flags: MW
LayerCount: 2
Fore
SplineSet
113 644 m 1
 113 669 l 1
 407 669 l 1
 407 644 l 1
 354 637 345 629 325 572 c 2
 312 534 l 1
 360 534 l 2
 499 534 574 480 574 379 c 0
 574 259 467 182 300 182 c 0
 274 182 255 183 219 187 c 1
 205 123 l 2
 198 92 195 73 195 64 c 0
 195 37 211 28 267 25 c 1
 267 0 l 1
 -27 0 l 1
 -27 25 l 1
 25 33 38 44 53 97 c 0
 176 546 l 2
 182 568 186 592 186 607 c 0
 186 627 175 636 144 640 c 0
 139 640 127 642 113 644 c 1
344 502 m 0
 303 502 300 481 293 458 c 2
 229 219 l 1
 248 218 260 217 271 217 c 0
 342 217 379 240 405 299 c 0
 419 330 428 376 428 411 c 0
 428 469 397 502 344 502 c 0
EndSplineSet
Validated: 1
EndChar

StartChar: germandbls
Encoding: 223 223 156
Width: 500
Flags: MW
LayerCount: 2
Fore
SplineSet
315 304 m 0
 315 368 284 378 241 384 c 1
 248 421 l 1
 264 421 l 2
 268 421 268 419 274 419 c 0
 311 419 362 497 362 615 c 0
 362 655 347 675 315 675 c 0
 270 675 240 626 214 509 c 2
 123 102 l 2
 78 -98 2 -200 -103 -200 c 0
 -160 -200 -200 -169 -200 -123 c 0
 -200 -91 -180 -70 -149 -70 c 0
 -119 -70 -101 -87 -101 -115 c 0
 -101 -149 -118 -141 -118 -158 c 0
 -118 -166 -114 -169 -102 -169 c 0
 -69 -169 -45 -150 -16 -20 c 2
 76 403 l 2
 119 601 205 705 327 705 c 0
 412 705 473 650 473 574 c 0
 473 476 379 432 291 399 c 1
 324 392 435 370 435 256 c 0
 435 117 331 -7 215 -7 c 0
 185 -7 164 -1 142 15 c 1
 162 50 l 1
 167 44 181 27 209 27 c 0
 274 27 315 204 315 304 c 0
EndSplineSet
Validated: 1
EndChar

StartChar: ae
Encoding: 230 230 163
Width: 722
Flags: MW
LayerCount: 2
Fore
SplineSet
425 -13 m 0
 339 -13 298 27 282 118 c 1
 226 26 176 -12 109 -12 c 0
 43 -12 -5 38 -5 106 c 0
 -5 269 145 462 271 462 c 0
 314 462 334 446 352 396 c 1
 370 454 l 1
 473 459 l 1
 453 394 l 1
 496 444 524 459 573 459 c 0
 636 459 673 427 673 372 c 0
 673 290 590 223 445 190 c 2
 406 181 l 1
 402 161 401 150 401 134 c 0
 401 83 427 50 468 50 c 0
 515 50 557 80 591 139 c 1
 619 122 l 1
 576 34 509 -13 425 -13 c 0
169 58 m 0
 266 58 333 300 333 363 c 0
 333 395 313 419 285 419 c 0
 191 419 121 183 121 119 c 0
 121 83 140 58 169 58 c 0
413 214 m 1
 483 224 583 289 583 388 c 0
 583 416 573 429 550 429 c 0
 500 429 458 365 418 231 c 2
 413 214 l 1
EndSplineSet
Validated: 1
EndChar

StartChar: ccedilla
Encoding: 231 231 164
Width: 444
Flags: MW
LayerCount: 2
Fore
SplineSet
346 123 m 1
 317 82 259 -13 148 -13 c 0
 142 -13 137 -13 130 -12 c 1
 96 -62 l 1
 106 -60 112 -59 122 -59 c 0
 174 -59 212 -89 212 -131 c 0
 212 -181 159 -218 88 -218 c 0
 52 -218 20 -211 -24 -193 c 1
 -2 -160 l 1
 26 -173 43 -177 65 -177 c 0
 99 -177 121 -161 121 -136 c 0
 121 -114 103 -100 74 -100 c 0
 64 -100 56 -101 44 -104 c 1
 31 -92 l 1
 91 -4 l 1
 30 18 -5 70 -5 138 c 0
 -5 298 139 462 280 462 c 0
 347 462 392 425 392 372 c 0
 392 331 366 302 330 302 c 0
 297 302 272 324 272 354 c 0
 272 380 293 400 293 412 c 0
 293 422 283 429 271 429 c 0
 172 429 123 200 123 141 c 0
 123 87 153 51 196 51 c 0
 239 51 270 74 318 141 c 1
 346 123 l 1
EndSplineSet
Validated: 1
EndChar

StartChar: egrave
Encoding: 232 232 165
Width: 444
Flags: MW
LayerCount: 2
Fore
SplineSet
317 143 m 1
 346 126 l 1
 286 27 232 -12 156 -12 c 0
 69 -12 5 51 5 135 c 0
 5 300 149 463 293 463 c 0
 354 463 398 427 398 376 c 0
 398 333 368 227 141 183 c 1
 137 163 135 150 135 134 c 0
 135 80 157 52 200 52 c 0
 242 52 270 74 317 143 c 1
148 215 m 1
 225 243 306 286 306 396 c 0
 306 418 297 430 278 430 c 0
 230 430 184 353 148 215 c 1
366 516 m 1
 321 516 l 1
 188 605 l 2
 166 620 154 637 154 652 c 0
 154 676 175 697 199 697 c 0
 218 697 239 684 255 663 c 2
 366 516 l 1
EndSplineSet
Validated: 1
EndChar

StartChar: eth
Encoding: 240 240 173
Width: 500
Flags: MW
LayerCount: 2
Fore
SplineSet
283 574 m 1
 164 512 l 1
 131 543 l 1
 253 607 l 1
 214 644 177 665 137 672 c 1
 181 699 l 1
 230 692 270 674 313 639 c 1
 420 696 l 1
 454 664 l 1
 347 608 l 1
 414 529 441 462 441 372 c 0
 441 163 310 -13 155 -13 c 0
 65 -13 -3 50 -3 134 c 0
 -3 299 134 462 272 462 c 0
 303 462 324 449 343 420 c 1
 345 424 l 1
 341 478 322 524 283 574 c 1
165 16 m 0
 271 16 322 309 322 375 c 0
 322 411 304 433 276 433 c 0
 183 433 116 203 116 86 c 0
 116 39 132 16 165 16 c 0
EndSplineSet
Validated: 1
EndChar

StartChar: divide
Encoding: 247 247 180
Width: 570
Flags: MW
LayerCount: 2
Fore
SplineSet
537 209 m 1
 33 209 l 1
 33 297 l 1
 537 297 l 1
 537 209 l 1
286 119 m 0
 326 119 359 85 359 45 c 0
 359 4 326 -29 284 -29 c 0
 243 -29 211 3 211 45 c 0
 211 87 244 119 286 119 c 0
286 535 m 0
 326 535 359 501 359 461 c 0
 359 419 326 387 284 387 c 0
 243 387 211 419 211 461 c 0
 211 503 244 535 286 535 c 0
EndSplineSet
Validated: 1
EndChar

StartChar: oslash
Encoding: 248 248 181
Width: 500
Flags: MW
LayerCount: 2
Fore
SplineSet
424 560 m 1
 359 444 l 1
 416 416 441 375 441 311 c 0
 441 143 305 -13 157 -13 c 0
 139 -13 126 -11 106 -5 c 1
 42 -119 l 1
 2 -119 l 1
 74 7 l 1
 21 37 -3 77 -3 134 c 0
 -3 304 136 462 286 462 c 0
 300 462 310 461 328 456 c 1
 387 560 l 1
 424 560 l 1
275 433 m 0
 168 433 116 155 116 86 c 2
 116 78 l 1
 307 419 l 1
 297 429 288 433 275 433 c 0
165 16 m 0
 266 16 322 292 322 372 c 0
 322 374 322 375 321 377 c 1
 128 34 l 1
 138 22 149 16 165 16 c 0
EndSplineSet
Validated: 1
EndChar

StartChar: thorn
Encoding: 254 254 187
Width: 500
Flags: MW
LayerCount: 2
Fore
SplineSet
129 -178 m 1
 129 -205 l 1
 -120 -205 l 1
 -120 -178 l 1
 -115 -178 l 2
 -70 -178 -60 -164 -42 -93 c 0
 120 537 l 2
 132 583 137 606 137 612 c 0
 137 635 123 642 74 642 c 1
 74 669 l 1
 163 679 212 686 280 699 c 1
 185 359 l 1
 188 356 l 1
 238 431 282 462 339 462 c 0
 404 462 446 414 446 341 c 0
 446 168 304 -13 169 -13 c 0
 148 -13 136 -9 101 9 c 1
 98 -4 l 1
 90 -32 l 2
 71 -100 64 -133 64 -146 c 0
 64 -170 79 -177 129 -178 c 1
321 340 m 0
 321 371 304 391 279 391 c 0
 198 391 160 235 148 195 c 0
 121 104 113 74 113 58 c 0
 113 38 130 22 152 22 c 0
 254 22 321 276 321 340 c 0
EndSplineSet
Validated: 1
EndChar

StartChar: Aogonek
Encoding: 260 260 193
Width: 667
Flags: MW
LayerCount: 2
Fore
SplineSet
368 84 m 0
 368 110 360 151 353 208 c 1
 138 208 l 1
 79 106 l 2
 69 89 64 73 64 60 c 0
 64 36 83 25 129 25 c 1
 129 0 l 1
 -67 0 l 1
 -67 25 l 1
 -31 33 -15 46 16 95 c 0
 388 683 l 1
 413 683 l 1
 509 111 l 1
 522 35 527 30 593 25 c 1
 593 0 l 1
 587 -14 584 -25 584 -39 c 0
 584 -81 606 -104 647 -104 c 0
 675 -104 695 -89 707 -84 c 1
 729 -98 l 1
 704 -144 656 -173 606 -173 c 0
 545 -173 500 -139 500 -92 c 0
 500 -65 509 -45 543 0 c 1
 289 0 l 1
 289 25 l 1
 353 31 368 42 368 84 c 0
161 248 m 1
 346 248 l 1
 309 491 l 1
 161 248 l 1
EndSplineSet
Validated: 1
EndChar

StartChar: aogonek
Encoding: 261 261 194
Width: 500
Flags: MW
LayerCount: 2
Fore
SplineSet
418 -104 m 0
 446 -104 466 -89 478 -84 c 1
 500 -98 l 1
 475 -144 427 -173 377 -173 c 0
 316 -173 271 -139 271 -92 c 0
 271 -67 278 -50 303 -14 c 1
 262 -10 237 15 237 52 c 0
 237 66 240 79 251 119 c 1
 194 24 148 -13 87 -13 c 0
 22 -13 -21 38 -21 114 c 0
 -21 270 129 462 252 462 c 0
 295 462 317 441 326 390 c 1
 344 449 l 1
 455 456 l 1
 384 220 l 2
 360 139 350 97 350 72 c 0
 350 63 355 57 362 57 c 0
 378 57 393 72 434 127 c 1
 455 112 l 1
 375 -10 355 16 355 -41 c 0
 355 -82 378 -104 418 -104 c 0
303 373 m 0
 303 402 285 420 264 420 c 0
 201 420 102 214 102 112 c 0
 102 81 121 58 147 58 c 0
 235 58 303 305 303 373 c 0
EndSplineSet
Validated: 1
EndChar

StartChar: dcaron
Encoding: 271 271 204
Width: 644
Flags: MW
LayerCount: 2
Fore
SplineSet
427 131 m 1
 449 115 l 1
 394 27 349 -11 300 -11 c 0
 262 -11 240 12 240 51 c 0
 240 66 243 81 251 118 c 1
 194 23 148 -13 85 -13 c 0
 24 -13 -21 40 -21 112 c 0
 -21 269 129 462 251 462 c 0
 280 462 299 453 323 429 c 1
 341 497 l 1
 364 581 370 606 370 615 c 0
 370 633 355 643 329 643 c 2
 308 643 l 1
 308 670 l 1
 408 678 457 685 517 699 c 1
 406 294 l 2
 371 167 349 80 349 71 c 0
 349 65 355 59 360 59 c 0
 375 59 400 86 427 131 c 1
308 370 m 0
 308 399 293 420 268 420 c 0
 183 420 103 187 103 117 c 0
 103 84 120 59 144 59 c 0
 231 59 308 319 308 370 c 0
586 527 m 0
 586 564 523 562 523 619 c 0
 523 657 550 685 587 685 c 0
 633 685 664 650 664 597 c 0
 664 524 596 447 492 401 c 1
 480 422 l 1
 551 460 586 495 586 527 c 0
EndSplineSet
Validated: 1
EndChar

StartChar: dcroat
Encoding: 273 273 206
Width: 500
Flags: MW
LayerCount: 2
Fore
SplineSet
353 544 m 1
 356 555 370 602 370 615 c 0
 370 633 355 643 329 643 c 2
 308 643 l 1
 308 670 l 1
 408 678 457 685 517 699 c 1
 474 544 l 1
 540 544 l 1
 532 513 l 1
 466 513 l 1
 406 294 l 2
 371 167 349 80 349 71 c 0
 349 65 355 59 360 59 c 0
 375 59 400 86 427 131 c 1
 449 115 l 1
 394 27 349 -11 300 -11 c 0
 262 -11 240 12 240 51 c 0
 240 66 243 81 251 118 c 1
 194 23 148 -13 85 -13 c 0
 24 -13 -21 40 -21 112 c 0
 -21 269 129 462 251 462 c 0
 280 462 299 453 323 429 c 1
 345 513 l 1
 206 513 l 1
 215 544 l 1
 353 544 l 1
308 370 m 0
 308 399 293 420 268 420 c 0
 183 420 103 187 103 117 c 0
 103 84 120 59 144 59 c 0
 231 59 308 319 308 370 c 0
EndSplineSet
Validated: 1
EndChar

StartChar: Eogonek
Encoding: 280 280 213
Width: 667
Flags: MW
LayerCount: 2
Fore
SplineSet
256 32 m 0
 428 32 504 106 561 199 c 1
 586 194 l 1
 539 41 l 2
 526 -1 522 -23 522 -41 c 0
 522 -82 545 -104 585 -104 c 0
 613 -104 633 -89 645 -84 c 1
 667 -98 l 1
 642 -144 594 -173 544 -173 c 0
 483 -173 438 -139 438 -92 c 0
 438 -65 447 -45 481 0 c 1
 -27 0 l 1
 -27 25 l 1
 25 33 38 44 53 97 c 0
 176 546 l 2
 182 568 186 591 186 606 c 0
 186 635 161 637 113 644 c 1
 113 669 l 1
 653 669 l 1
 610 479 l 1
 583 484 l 1
 583 573 566 637 399 637 c 0
 358 637 346 628 336 593 c 0
 275 370 l 1
 288 370 l 2
 409 370 435 385 480 476 c 1
 508 472 l 1
 434 199 l 1
 406 204 l 1
 409 223 410 234 410 248 c 0
 410 317 380 336 266 338 c 1
 210 129 l 2
 209 125 195 75 195 66 c 0
 195 42 213 32 256 32 c 0
EndSplineSet
Validated: 1
EndChar

StartChar: eogonek
Encoding: 281 281 214
Width: 444
Flags: MW
LayerCount: 2
Fore
SplineSet
322 -104 m 0
 350 -104 370 -89 382 -84 c 1
 404 -98 l 1
 379 -144 331 -173 281 -173 c 0
 220 -173 175 -139 175 -92 c 0
 175 -65 184 -46 216 -3 c 1
 193 -10 177 -13 156 -13 c 0
 69 -13 5 50 5 134 c 0
 5 299 149 462 293 462 c 0
 354 462 398 426 398 375 c 0
 398 332 368 226 141 182 c 1
 137 162 135 149 135 133 c 0
 135 79 157 51 200 51 c 0
 242 51 270 73 317 142 c 1
 346 125 l 1
 285 25 259 26 259 -37 c 0
 259 -81 280 -104 322 -104 c 0
148 214 m 1
 225 242 306 285 306 395 c 0
 306 417 297 429 278 429 c 0
 230 429 184 352 148 214 c 1
EndSplineSet
Validated: 1
EndChar

StartChar: Hbar
Encoding: 294 294 227
Width: 778
Flags: MW
LayerCount: 2
Fore
SplineSet
574 607 m 0
 574 635 554 636 501 644 c 1
 501 669 l 1
 799 669 l 1
 799 644 l 1
 748 637 734 625 718 572 c 1
 711 548 l 1
 788 548 l 1
 769 478 l 1
 692 478 l 1
 603 153 l 2
 589 103 584 80 584 66 c 0
 584 37 602 27 657 25 c 1
 657 0 l 1
 340 0 l 1
 340 25 l 1
 407 29 426 43 441 97 c 0
 505 329 l 1
 266 329 l 1
 216 148 l 2
 212 126 199 94 199 68 c 0
 199 36 209 30 272 25 c 1
 272 0 l 1
 -24 0 l 1
 -24 25 l 1
 26 32 42 44 56 97 c 0
 160 478 l 1
 84 478 l 1
 104 548 l 1
 179 548 l 1
 185 573 189 593 189 604 c 0
 189 634 168 637 116 644 c 1
 116 669 l 1
 433 669 l 1
 433 644 l 1
 368 642 348 627 332 572 c 1
 325 548 l 1
 565 548 l 1
 569 566 574 595 574 607 c 0
546 478 m 1
 306 478 l 1
 278 373 l 1
 517 373 l 1
 546 478 l 1
EndSplineSet
Validated: 1
EndChar

StartChar: hbar
Encoding: 295 295 228
Width: 556
Flags: MW
LayerCount: 2
Fore
SplineSet
187 283 m 1
 254 379 314 462 399 462 c 0
 446 462 475 434 475 387 c 0
 475 368 465 326 445 265 c 0
 387 87 l 2
 384 78 384 77 384 75 c 0
 384 68 394 59 401 59 c 0
 414 59 433 80 476 142 c 1
 498 127 l 1
 432 24 392 -9 331 -9 c 0
 292 -9 265 15 265 49 c 0
 265 103 290 172 337 313 c 0
 344 333 348 344 348 346 c 0
 351 355 353 363 353 369 c 0
 353 380 343 390 331 390 c 0
 305 390 272 361 230 301 c 0
 180 228 159 178 108 0 c 1
 -13 0 l 1
 123 500 l 1
 31 500 l 1
 48 570 l 1
 142 570 l 1
 146 588 149 601 149 610 c 0
 149 632 135 643 108 643 c 0
 103 643 94 643 86 642 c 1
 86 669 l 1
 167 676 217 684 294 699 c 1
 261 570 l 1
 373 570 l 1
 357 500 l 1
 243 500 l 1
 187 283 l 1
EndSplineSet
Validated: 1
EndChar

StartChar: Iogonek
Encoding: 302 302 235
Width: 389
Flags: MW
LayerCount: 2
Fore
SplineSet
181 607 m 0
 181 635 161 636 108 644 c 1
 108 669 l 1
 406 669 l 1
 406 644 l 1
 355 638 338 625 324 572 c 0
 210 152 l 2
 197 103 192 80 192 65 c 0
 192 37 207 28 264 25 c 1
 264 0 l 1
 251 -11 244 -27 244 -45 c 0
 244 -81 268 -104 307 -104 c 0
 336 -104 353 -89 367 -84 c 1
 389 -98 l 1
 364 -144 316 -173 266 -173 c 0
 205 -173 160 -139 160 -92 c 0
 160 -65 169 -45 203 0 c 1
 -32 0 l 1
 -32 25 l 1
 17 31 34 45 48 97 c 0
 171 546 l 2
 176 564 181 595 181 607 c 0
EndSplineSet
Validated: 1
EndChar

StartChar: iogonek
Encoding: 303 303 236
Width: 278
Flags: MW
LayerCount: 2
Fore
SplineSet
196 -104 m 0
 224 -104 244 -89 256 -84 c 1
 278 -98 l 1
 253 -144 205 -173 155 -173 c 0
 94 -173 49 -139 49 -92 c 0
 49 -66 57 -48 86 -8 c 1
 79 -9 72 -9 69 -9 c 0
 30 -9 2 17 2 54 c 0
 2 67 7 95 15 123 c 0
 73 338 l 1
 77 355 80 370 80 378 c 0
 80 399 64 407 21 407 c 1
 21 434 l 1
 99 440 169 450 223 462 c 1
 132 128 l 2
 129 116 123 82 123 76 c 0
 123 68 130 61 138 61 c 0
 153 61 176 82 202 121 c 2
 216 141 l 1
 238 127 l 1
 166 15 133 24 133 -40 c 0
 133 -81 155 -104 196 -104 c 0
194 685 m 0
 231 685 263 654 263 617 c 0
 263 580 232 550 194 550 c 0
 157 550 128 580 128 619 c 0
 128 654 159 685 194 685 c 0
EndSplineSet
Validated: 1
EndChar

StartChar: dotlessi
Encoding: 305 305 238
Width: 278
Flags: MW
LayerCount: 2
Fore
SplineSet
216 141 m 1
 238 127 l 1
 168 22 131 -9 71 -9 c 0
 30 -9 2 17 2 54 c 0
 2 67 7 95 15 123 c 0
 73 338 l 1
 77 355 80 370 80 378 c 0
 80 399 64 407 21 407 c 1
 21 434 l 1
 99 440 169 450 223 462 c 1
 132 128 l 2
 129 116 123 82 123 76 c 0
 123 68 130 61 138 61 c 0
 153 61 176 82 202 121 c 2
 216 141 l 1
EndSplineSet
Validated: 1
EndChar

StartChar: ij
Encoding: 307 307 240
Width: 547
Flags: MW
LayerCount: 2
Fore
SplineSet
546 616 m 0
 546 578 514 550 477 550 c 0
 439 550 411 581 411 618 c 0
 411 653 442 684 477 684 c 0
 514 684 546 653 546 616 c 0
263 616 m 0
 263 578 231 550 194 550 c 0
 156 550 128 581 128 618 c 0
 128 653 159 684 194 684 c 0
 231 684 263 653 263 616 c 0
150 63 m 0
 193 63 351 253 351 376 c 0
 351 403 338 408 319 408 c 0
 312 408 305 408 298 407 c 1
 298 434 l 1
 368 440 437 447 506 462 c 1
 392 24 l 2
 365 -80 310 -207 184 -207 c 0
 137 -207 78 -186 78 -130 c 0
 78 -103 99 -77 127 -77 c 0
 154 -77 176 -99 176 -126 c 0
 176 -147 161 -156 161 -164 c 0
 161 -171 178 -176 183 -176 c 0
 229 -176 247 -78 256 -45 c 0
 314 178 l 1
 316 187 319 195 321 204 c 1
 272 126 189 -9 85 -9 c 0
 30 -9 7 17 7 69 c 0
 7 144 80 312 80 375 c 0
 80 403 55 407 33 407 c 0
 21 407 l 1
 21 434 l 1
 88 439 157 447 223 462 c 1
 193 352 159 241 133 130 c 1
 130 130 127 93 127 87 c 0
 127 71 134 63 150 63 c 0
EndSplineSet
Validated: 1
LCarets2: 1 0 
Ligature2: "'dlig' Discretionary Ligatures in Latin subtable" i j
EndChar

StartChar: kgreenlandic
Encoding: 312 312 245
Width: 534
Flags: MW
LayerCount: 2
Fore
SplineSet
97 376 m 0
 97 400 83 406 42 407 c 1
 42 434 l 1
 98 436 176 447 240 461 c 1
 184 261 l 1
 205 261 l 2
 238 261 290 330 313 368 c 0
 327 390 376 470 453 470 c 0
 509 470 514 447 514 410 c 0
 514 380 486 361 455 361 c 0
 413 361 427 396 401 396 c 0
 364 396 329 271 267 243 c 1
 296 242 331 228 341 200 c 0
 399 39 l 2
 404 26 413 24 424 24 c 1
 418 0 l 1
 270 0 l 1
 214 168 l 1
 214 168 202 214 181 214 c 2
 171 214 l 1
 113 0 l 1
 -6 0 l 1
 86 328 l 2
 93 354 97 367 97 376 c 0
EndSplineSet
Validated: 1
EndChar

StartChar: lcaron
Encoding: 318 318 251
Width: 424
Flags: HMW
LayerCount: 2
Fore
SplineSet
69 -9 m 0,0,-1
EndSplineSet
Refer: 76 108 N 1 0 0 1 0 0 0
Refer: 1642 700 S 1 0 0 1 154 0 2
EndChar

StartChar: Lslash
Encoding: 321 321 254
Width: 611
Flags: MW
LayerCount: 2
Fore
SplineSet
191 607 m 0
 191 635 171 636 118 644 c 1
 118 669 l 1
 435 669 l 1
 435 644 l 1
 369 640 349 627 334 572 c 0
 290 410 l 1
 440 491 l 1
 419 421 l 1
 271 338 l 1
 205 94 l 2
 202 83 200 70 200 62 c 0
 200 41 220 32 264 32 c 0
 346 32 417 52 471 90 c 0
 510 118 532 143 566 199 c 1
 590 194 l 1
 531 0 l 1
 -22 0 l 1
 -22 25 l 1
 28 32 44 45 58 97 c 0
 108 278 l 1
 4 222 l 1
 26 292 l 1
 126 345 l 1
 181 546 l 2
 186 564 191 595 191 607 c 0
EndSplineSet
Validated: 1
EndChar

StartChar: lslash
Encoding: 322 322 255
Width: 278
Flags: MW
LayerCount: 2
Fore
SplineSet
216 141 m 1
 238 127 l 1
 169 22 131 -9 70 -9 c 0
 28 -9 2 15 2 53 c 0
 2 79 16 137 64 309 c 1
 -13 266 l 1
 6 336 l 1
 84 379 l 1
 127 531 144 599 144 615 c 0
 144 633 129 643 102 643 c 0
 97 643 92 643 81 642 c 1
 81 669 l 1
 156 676 204 683 290 699 c 1
 215 427 l 1
 301 474 l 1
 282 406 l 1
 196 359 l 1
 145 176 l 2
 131 125 123 90 123 76 c 0
 123 68 130 61 138 61 c 0
 156 61 176 82 216 141 c 1
EndSplineSet
Validated: 1
EndChar

StartChar: Eng
Encoding: 330 330 263
Width: 722
Flags: MW
LayerCount: 2
Fore
SplineSet
748 644 m 1
 669 625 666 563 646 491 c 2
 495 -47 l 2
 470 -135 403 -207 307 -207 c 0
 259 -207 201 -186 201 -130 c 0
 201 -103 222 -77 250 -77 c 0
 277 -77 299 -99 299 -126 c 0
 299 -147 284 -156 284 -164 c 0
 284 -171 301 -176 306 -176 c 0
 405 -176 447 -80 467 1 c 1
 218 534 l 1
 119 178 l 2
 111 149 101 116 101 86 c 0
 101 35 140 28 181 25 c 1
 181 0 l 1
 -27 0 l 1
 -27 25 l 1
 48 43 54 111 74 178 c 2
 194 589 l 1
 174 635 160 640 111 644 c 1
 111 669 l 1
 306 669 l 1
 521 204 l 1
 601 491 l 2
 609 520 619 553 619 583 c 0
 619 634 580 641 539 644 c 1
 539 669 l 1
 748 669 l 1
 748 644 l 1
EndSplineSet
Validated: 1
EndChar

StartChar: eng
Encoding: 331 331 264
Width: 547
Flags: MW
LayerCount: 2
Fore
SplineSet
474 383 m 0
 474 353 461 317 454 289 c 2
 385 24 l 2
 358 -80 303 -207 177 -207 c 0
 130 -207 71 -186 71 -130 c 0
 71 -103 92 -77 120 -77 c 0
 147 -77 169 -99 169 -126 c 0
 169 -147 154 -156 154 -164 c 0
 154 -171 171 -176 176 -176 c 0
 222 -176 240 -78 249 -45 c 2
 341 310 l 2
 345 327 354 351 354 368 c 0
 354 381 341 390 329 390 c 0
 228 390 132 65 115 0 c 1
 -6 0 l 1
 8 52 96 346 96 381 c 0
 96 406 70 407 50 407 c 2
 42 407 l 1
 42 434 l 1
 107 434 179 447 242 461 c 1
 182 275 l 1
 185 273 l 1
 233 344 301 462 398 462 c 0
 450 462 474 437 474 383 c 0
EndSplineSet
Validated: 1
EndChar

StartChar: OE
Encoding: 338 338 271
Width: 944
Flags: MW
LayerCount: 2
Fore
SplineSet
464 677 m 0
 490 677 576 669 611 669 c 2
 946 669 l 1
 900 478 l 1
 875 484 l 1
 876 498 877 512 877 521 c 0
 877 599 822 637 712 637 c 0
 677 637 670 631 659 590 c 0
 598 370 l 1
 628 370 l 2
 714 370 756 397 787 473 c 1
 814 470 l 1
 742 198 l 1
 715 203 l 1
 716 212 716 219 716 222 c 0
 718 239 719 255 719 263 c 0
 719 325 665 329 589 336 c 1
 525 91 l 1
 523 82 521 72 521 66 c 0
 521 42 542 32 594 32 c 0
 711 32 782 78 851 199 c 1
 878 194 l 1
 818 0 l 1
 494 0 l 2
 484 -1 475 -1 470 -1 c 2
 448 -1 l 1
 294 -8 l 1
 274 -9 l 2
 60 -9 23 133 23 223 c 0
 23 364 99 513 217 602 c 0
 291 657 356 677 464 677 c 0
392 123 m 2
 500 514 l 2
 507 540 512 567 512 582 c 0
 512 623 486 645 439 645 c 0
 379 645 329 613 281 545 c 0
 218 454 164 275 164 158 c 0
 164 77 212 24 285 24 c 0
 343 24 372 51 392 123 c 2
EndSplineSet
Validated: 1
EndChar

StartChar: oe
Encoding: 339 339 272
Width: 722
Flags: MW
LayerCount: 2
Fore
SplineSet
6 144 m 0
 6 279 126 462 300 462 c 0
 353 462 385 445 416 400 c 1
 475 447 510 462 562 462 c 0
 631 462 674 427 674 371 c 0
 674 326 644 282 587 245 c 0
 542 216 517 207 414 184 c 1
 408 156 406 143 406 128 c 0
 406 77 430 50 473 50 c 0
 519 50 547 71 591 139 c 1
 619 124 l 1
 601 89 551 -13 431 -13 c 0
 385 -13 353 3 314 44 c 1
 271 5 224 -13 166 -13 c 0
 71 -13 6 51 6 144 c 0
421 218 m 1
 540 253 586 323 586 392 c 0
 586 416 572 432 549 432 c 0
 498 432 465 339 421 218 c 1
177 16 m 0
 274 16 337 286 337 359 c 0
 337 408 318 433 282 433 c 0
 181 433 124 160 124 97 c 0
 124 45 143 16 177 16 c 0
EndSplineSet
Validated: 1
EndChar

StartChar: Scedilla
Encoding: 350 350 283
Width: 556
Flags: MW
LayerCount: 2
Fore
SplineSet
303 685 m 0
 364 685 422 655 452 655 c 0
 473 655 487 663 496 681 c 1
 526 681 l 1
 486 480 l 1
 459 484 l 1
 446 601 407 650 327 650 c 0
 263 650 223 609 223 545 c 0
 223 500 238 478 300 431 c 0
 422 338 468 271 468 185 c 0
 468 60 379 -18 236 -18 c 0
 225 -18 217 -18 202 -16 c 1
 172 -62 l 1
 182 -60 188 -59 197 -59 c 0
 250 -59 288 -89 288 -131 c 0
 288 -181 235 -218 164 -218 c 0
 127 -218 95 -211 52 -193 c 1
 74 -160 l 1
 102 -173 119 -177 141 -177 c 0
 175 -177 197 -161 197 -136 c 0
 197 -114 179 -100 150 -100 c 0
 139 -100 131 -101 120 -104 c 1
 107 -92 l 1
 163 -9 l 1
 107 8 86 17 70 17 c 0
 51 17 44 11 32 -18 c 1
 2 -18 l 1
 38 206 l 1
 67 204 l 1
 72 123 98 16 221 16 c 0
 298 16 347 73 347 142 c 0
 347 269 102 328 102 491 c 0
 102 601 189 685 303 685 c 0
EndSplineSet
Validated: 1
EndChar

StartChar: scedilla
Encoding: 351 351 284
Width: 389
Flags: MW
LayerCount: 2
Fore
SplineSet
142 376 m 0
 142 313 279 224 279 119 c 0
 279 45 215 -13 133 -13 c 0
 129 -13 122 -13 114 -12 c 1
 80 -62 l 1
 90 -60 96 -59 106 -59 c 0
 158 -59 196 -89 196 -131 c 0
 196 -181 143 -218 72 -218 c 0
 36 -218 4 -211 -40 -193 c 1
 -18 -160 l 1
 10 -173 27 -177 49 -177 c 0
 83 -177 105 -161 105 -136 c 0
 105 -114 87 -100 58 -100 c 0
 48 -100 40 -101 28 -104 c 1
 15 -92 l 1
 75 -3 l 1
 72 -2 69 -1 68 -1 c 0
 55 4 43 7 37 7 c 0
 24 7 12 -1 8 -13 c 1
 -19 -13 l 1
 3 153 l 1
 30 150 l 1
 35 118 49 17 126 17 c 0
 158 17 183 41 183 71 c 0
 183 144 47 221 47 336 c 0
 47 412 100 462 181 462 c 0
 220 462 253 440 275 440 c 0
 290 440 293 442 304 461 c 1
 333 461 l 1
 310 308 l 1
 283 310 l 1
 267 393 241 429 195 429 c 0
 163 429 142 408 142 376 c 0
EndSplineSet
Validated: 1
EndChar

StartChar: uni0162
Encoding: 354 354 287
Width: 611
Flags: MW
LayerCount: 2
Fore
SplineSet
650 669 m 1
 614 477 l 1
 587 479 l 1
 582 590 543 633 449 634 c 1
 309 128 l 2
 302 102 298 81 298 66 c 0
 298 34 311 28 381 25 c 1
 381 0 l 1
 200.328 9.54098e-18 l 1
 156 -66 l 1
 166 -64 172 -63 182 -63 c 0
 234 -63 272 -93 272 -135 c 0
 272 -185 219 -222 148 -222 c 0
 112 -222 80 -215 36 -197 c 1
 58 -164 l 1
 86 -177 103 -181 125 -181 c 0
 159 -181 181 -165 181 -140 c 0
 181 -118 163 -104 134 -104 c 0
 124 -104 116 -105 104 -108 c 1
 91 -96 l 1
 156.32 1.77636e-15 l 1
 50 0 l 1
 50 25 l 1
 64 25 l 2
 115 25 140.948 46.0143 155 97 c 2
 303 634 l 1
 201 632 138 591 86 491 c 1
 61 498 l 1
 99 669 l 1
 650 669 l 1
EndSplineSet
Validated: 1
EndChar

StartChar: Tbar
Encoding: 358 358 291
Width: 611
Flags: MW
LayerCount: 2
Fore
SplineSet
243 416 m 1
 303 634 l 1
 201 632 138 591 86 491 c 1
 61 498 l 1
 99 669 l 1
 650 669 l 1
 614 477 l 1
 587 479 l 1
 582 590 543 633 449 634 c 1
 389 416 l 1
 476 416 l 1
 460 346 l 1
 369 346 l 1
 309 128 l 2
 302 102 298 81 298 66 c 0
 298 34 311 28 381 25 c 1
 381 0 l 1
 50 0 l 1
 50 25 l 1
 64 25 l 2
 115 25 141 46 155 97 c 2
 224 346 l 1
 134 346 l 1
 151 416 l 1
 243 416 l 1
EndSplineSet
Validated: 1
EndChar

StartChar: tbar
Encoding: 359 359 292
Width: 278
Flags: MW
LayerCount: 2
Fore
SplineSet
57 322 m 1
 81 407 l 1
 30 407 l 1
 30 442 l 1
 109 472 159 513 213 594 c 1
 248 594 l 1
 209 449 l 1
 281 449 l 1
 281 407 l 1
 198 407 l 1
 174 322 l 1
 266 322 l 1
 253 252 l 1
 154 252 l 1
 125 152 111 92 111 76 c 0
 111 69 119 61 127 61 c 0
 143 61 169 88 203 141 c 1
 225 127 l 1
 159 24 119 -9 59 -9 c 0
 17 -9 -11 17 -11 56 c 0
 -11 73 -2 118 13 169 c 0
 37 252 l 1
 -15 252 l 1
 -1 322 l 1
 57 322 l 1
EndSplineSet
Validated: 1
EndChar

StartChar: Uogonek
Encoding: 370 370 303
Width: 722
Flags: MW
LayerCount: 2
Fore
SplineSet
521 -104 m 0
 549 -104 563 -92 582 -84 c 1
 604 -98 l 1
 579 -144 531 -173 481 -173 c 0
 419 -173 374 -139 374 -92 c 0
 374 -62 386 -39 428 13 c 1
 386 -8 342 -18 289 -18 c 0
 159 -18 67 50 67 148 c 0
 67 181 78 243 100 323 c 0
 156 529 l 2
 165 562 171 593 171 605 c 0
 171 627 161 635 129 640 c 0
 125 640 112 642 98 644 c 1
 98 669 l 1
 409 669 l 1
 409 644 l 1
 347 641 331 629 315 572 c 0
 233 272 l 2
 208 181 205 166 205 139 c 0
 205 76 251 38 327 38 c 0
 382 38 426 58 460 98 c 0
 490 135 512 185 539 282 c 2
 597 491 l 1
 608 532 616 571 616 588 c 0
 616 623 593 639 536 644 c 1
 536 669 l 1
 744 669 l 1
 744 644 l 1
 689 633 680 623 642 491 c 0
 576 263 l 2
 536 127 528 123 507 92 c 2
 487 62 l 2
 470 36 458 -6 458 -42 c 0
 458 -82 481 -104 521 -104 c 0
EndSplineSet
Validated: 1
EndChar

StartChar: uogonek
Encoding: 371 371 304
Width: 556
Flags: MW
LayerCount: 2
Fore
SplineSet
474 -104 m 0
 502 -104 522 -89 534 -84 c 1
 556 -98 l 1
 531 -144 483 -173 433 -173 c 0
 372 -173 327 -139 327 -92 c 0
 327 -65 336 -46 367 -4 c 1
 351 -8 343 -9 331 -9 c 0
 287 -9 266 10 266 51 c 0
 266 79 272 106 290 161 c 1
 187 17 157 -9 90 -9 c 0
 41 -9 15 16 15 65 c 0
 15 89 22 125 36 173 c 0
 76 306 l 2
 85 335 90 363 90 379 c 0
 90 399 80 404 34 407 c 1
 34 434 l 1
 113 437 214 457 243 462 c 1
 149 154 l 2
 136 111 134 103 134 88 c 0
 134 71 141 63 155 63 c 0
 175 63 197 80 228 118 c 0
 285 190 314 256 370 449 c 1
 488 449 l 1
 410 181 l 1
 385 86 385 86 385 76 c 0
 385 67 391 59 399 59 c 0
 416 59 436 80 471 133 c 1
 492 120 l 1
 445 38 411 29 411 -41 c 0
 411 -82 433 -104 474 -104 c 0
EndSplineSet
Validated: 1
EndChar

StartChar: longs
Encoding: 383 383 316
Width: 333
Flags: MW
LayerCount: 2
Fore
SplineSet
346 614 m 0
 346 636 362 648 362 656 c 0
 362 664 355 669 345 669 c 0
 310 669 277 619 254 520 c 2
 140 30 l 2
 104 -83 56 -205 -70 -205 c 0
 -130 -205 -169 -174 -169 -126 c 0
 -169 -97 -145 -72 -117 -72 c 0
 -92 -72 -68 -96 -68 -120 c 0
 -68 -145 -84 -154 -84 -163 c 0
 -84 -169 -76 -174 -66 -174 c 0
 -4 -174 -2 -95 112 407 c 1
 39 407 l 1
 48 449 l 1
 121 449 l 1
 157 574 211 698 347 698 c 0
 407 698 446 667 446 618 c 0
 446 587 425 565 395 565 c 0
 368 565 346 587 346 614 c 0
EndSplineSet
Validated: 1
EndChar

StartChar: uni01E4
Encoding: 484 484 337
Width: 722
Flags: MW
LayerCount: 2
Fore
SplineSet
442 685 m 0
 550 685 573 655 608 655 c 0
 628 655 643 667 650 685 c 1
 681 685 l 1
 630 464 l 1
 601 468 l 1
 601 566 570 649 458 649 c 0
 267 649 177 353 177 201 c 0
 177 97 230 20 338 20 c 0
 447 20 443 64 469 152 c 1
 386 152 l 1
 402 196 l 1
 480 196 l 1
 485 214 493 243 493 262 c 0
 493 304 451 302 419 304 c 1
 419 330 l 1
 706 330 l 1
 706 304 l 1
 634 300 636 256 620 196 c 1
 700 196 l 1
 685 152 l 1
 608 152 l 1
 579 41 l 1
 499 3 411 -18 322 -18 c 0
 156 -18 21 77 21 253 c 0
 21 483 209 685 442 685 c 0
EndSplineSet
Validated: 1
EndChar

StartChar: uni01E5
Encoding: 485 485 338
Width: 500
Flags: MW
LayerCount: 2
Fore
SplineSet
478 373 m 1
 411 373 l 1
 415 359 417 345 417 330 c 0
 417 214 300 153 197 153 c 0
 180 153 165 161 149 161 c 0
 136 161 122 139 122 127 c 0
 122 66 376 79 376 -46 c 0
 376 -52 375 -59 374 -66 c 1
 423 -66 l 1
 411 -110 l 1
 360 -110 l 1
 317 -184 210 -203 132 -203 c 0
 72 -203 -42 -185 -51 -110 c 1
 -104 -110 l 1
 -92 -66 l 1
 -46 -66 l 1
 -27 -18 33 -4 78 6 c 1
 78 8 l 1
 48 18 19 37 19 72 c 0
 19 124 76 148 115 170 c 1
 65 189 35 229 35 283 c 0
 35 398 158 462 259 462 c 0
 297 462 337 453 367 429 c 1
 478 429 l 1
 478 373 l 1
300 369 m 0
 300 398 288 431 254 431 c 0
 188 431 151 301 151 248 c 0
 151 218 157 184 195 184 c 0
 263 184 300 315 300 369 c 0
255 -66 m 1
 232 -36 150 -16 113 -6 c 1
 86 -17 52 -39 40 -66 c 1
 255 -66 l 1
265 -110 m 1
 38 -110 l 1
 53 -153 102 -169 144 -169 c 0
 186 -169 256 -162 265 -110 c 1
EndSplineSet
Validated: 1
EndChar

StartChar: uni01EA
Encoding: 490 490 343
Width: 722
Flags: M
LayerCount: 2
Fore
SplineSet
340 -136 m 0
 368 -136 388 -121 400 -116 c 1
 422 -130 l 1
 397 -176 349 -205 299 -205 c 0
 238 -205 193 -171 193 -124 c 0
 193 -82.0586 225.527 -44.671 247.556 -17.609 c 1
 115.107 -10.8391 27 83.2856 27 221 c 0
 27 412 204 685 449 685 c 0
 588 685 691 587 691 454 c 0
 691 256.343 530.469 -1.39489 286.722 -17.2326 c 1
 282.081 -35.4493 277 -57.4504 277 -72 c 0
 277 -113 299 -136 340 -136 c 0
445 651 m 0
 381 651 328.212 609.879 277 520 c 0
 222.227 423.871 171 239 171 137 c 0
 171 63 210 16 273 16 c 0
 327 16 372 46 418 113 c 0
 485 211 547 411 547 531 c 0
 547 603 506 651 445 651 c 0
EndSplineSet
EndChar

StartChar: uni01EB
Encoding: 491 491 344
Width: 500
Flags: M
LayerCount: 2
Fore
SplineSet
228 -131 m 0
 256 -131 276 -116 288 -111 c 1
 310 -125 l 1
 285 -171 237 -200 187 -200 c 0
 126 -200 81 -166 81 -119 c 0
 81 -76.7366 114.029 -39.0972 136.062 -11.9876 c 1
 54.478 -3.5838 -3 56.2714 -3 135 c 0
 -3 303 137 462 284 462 c 0
 375 462 441 399 441 311 c 0
 441 149.112 316.206 0.071298 174.734 -12.1869 c 1
 170.089 -30.4125 165 -52.4382 165 -67 c 0
 165 -108 187 -131 228 -131 c 0
165 16 m 0
 271 16 322 309 322 375 c 0
 322 411 304 433 275 433 c 0
 181 433 116 200 116 78 c 0
 116 40 135 16 165 16 c 0
EndSplineSet
EndChar

StartChar: Scommaaccent
Encoding: 536 536 383
Width: 556
Flags: MW
LayerCount: 2
Fore
SplineSet
239 -18 m 0
 154 -18 104 17 70 17 c 0
 51 17 44 11 32 -18 c 1
 2 -18 l 1
 38 206 l 1
 67 204 l 1
 72 123 98 16 221 16 c 0
 298 16 347 73 347 142 c 0
 347 269 102 328 102 491 c 0
 102 601 189 685 303 685 c 0
 364 685 422 655 452 655 c 0
 473 655 487 663 496 681 c 1
 526 681 l 1
 486 480 l 1
 459 484 l 1
 446 601 407 650 327 650 c 0
 263 650 223 609 223 545 c 0
 223 500 238 478 300 431 c 0
 422 338 468 271 468 185 c 0
 468 61 379 -18 239 -18 c 0
165 -198 m 0
 165 -161 102 -163 102 -106 c 0
 102 -68 129 -40 166 -40 c 0
 212 -40 243 -75 243 -128 c 0
 243 -201 175 -278 71 -324 c 1
 59 -303 l 1
 130 -265 165 -230 165 -198 c 0
EndSplineSet
Validated: 1
EndChar

StartChar: scommaaccent
Encoding: 537 537 384
Width: 389
Flags: MW
LayerCount: 2
Fore
SplineSet
181 462 m 0
 220 462 253 440 275 440 c 0
 290 440 293 442 304 461 c 1
 333 461 l 1
 310 308 l 1
 283 310 l 1
 267 393 241 429 195 429 c 0
 163 429 142 408 142 376 c 0
 142 313 279 224 279 119 c 0
 279 44 215 -13 131 -13 c 0
 86 -13 57 7 37 7 c 0
 24 7 12 -1 8 -13 c 1
 -19 -13 l 1
 3 153 l 1
 30 150 l 1
 35 118 49 17 126 17 c 0
 158 17 183 41 183 71 c 0
 183 144 47 221 47 336 c 0
 47 412 100 462 181 462 c 0
80 -198 m 0
 80 -161 17 -163 17 -106 c 0
 17 -68 44 -40 81 -40 c 0
 127 -40 158 -75 158 -128 c 0
 158 -201 90 -278 -14 -324 c 1
 -26 -303 l 1
 45 -265 80 -230 80 -198 c 0
EndSplineSet
Validated: 1
EndChar

StartChar: uni021A
Encoding: 538 538 385
Width: 611
Flags: MW
LayerCount: 2
Fore
SplineSet
650 669 m 1
 614 477 l 1
 587 479 l 1
 582 590 543 633 449 634 c 1
 309 128 l 2
 302 102 298 81 298 66 c 0
 298 34 311 28 381 25 c 1
 381 0 l 1
 50 0 l 1
 50 25 l 1
 64 25 l 2
 115 25 141 46 155 97 c 2
 303 634 l 1
 201 632 138 591 86 491 c 1
 61 498 l 1
 99 669 l 1
 650 669 l 1
191 -198 m 0
 191 -161 128 -163 128 -106 c 0
 128 -68 155 -40 192 -40 c 0
 238 -40 269 -75 269 -128 c 0
 269 -201 201 -278 97 -324 c 1
 85 -303 l 1
 156 -265 191 -230 191 -198 c 0
EndSplineSet
Validated: 1
EndChar

StartChar: uni021B
Encoding: 539 539 386
Width: 278
Flags: MW
LayerCount: 2
Fore
SplineSet
281 449 m 1
 281 407 l 1
 198 407 l 1
 165 289 l 1
 129 167 111 94 111 76 c 0
 111 69 119 61 127 61 c 0
 143 61 169 88 203 141 c 1
 225 127 l 1
 159 24 119 -9 59 -9 c 0
 17 -9 -11 17 -11 56 c 0
 -11 73 -2 118 13 169 c 0
 81 407 l 1
 30 407 l 1
 30 442 l 1
 109 472 159 513 213 594 c 1
 248 594 l 1
 209 449 l 1
 281 449 l 1
25 -198 m 0
 25 -161 -38 -163 -38 -106 c 0
 -38 -68 -11 -40 26 -40 c 0
 72 -40 103 -75 103 -128 c 0
 103 -201 35 -278 -69 -324 c 1
 -81 -303 l 1
 -10 -265 25 -230 25 -198 c 0
EndSplineSet
Validated: 1
EndChar

StartChar: uni0228
Encoding: 552 552 391
Width: 670
Flags: M
LayerCount: 2
Fore
SplineSet
259 32 m 0
 431 32 507 106 564 199 c 1
 589 194 l 1
 530 0 l 1
 235.328 9.54098e-18 l 1
 191 -66 l 1
 201 -64 207 -63 217 -63 c 0
 269 -63 307 -93 307 -135 c 0
 307 -185 254 -222 183 -222 c 0
 147 -222 115 -215 71 -197 c 1
 93 -164 l 1
 121 -177 138 -181 160 -181 c 0
 194 -181 216 -165 216 -140 c 0
 216 -118 198 -104 169 -104 c 0
 159 -104 151 -105 139 -108 c 1
 126 -96 l 1
 191.32 1.77636e-15 l 1
 -24 0 l 1
 -24 25 l 1
 28 33 41 44 56 97 c 2
 179 546 l 2
 185 568 189 591 189 606 c 0
 189 635 164 637 116 644 c 1
 116 669 l 1
 656 669 l 1
 613 479 l 1
 586 484 l 1
 586 573 569 637 402 637 c 0
 361 637 349 628 339 593 c 2
 278 370 l 1
 291 370 l 2
 412 370 438 385 483 476 c 1
 511 472 l 1
 437 199 l 1
 409 204 l 1
 412 223 413 234 413 248 c 0
 413 317 383 336 269 338 c 1
 213 129 l 1
 213 123 198 83 198 66 c 0
 198 42 216 32 259 32 c 0
EndSplineSet
Validated: 1
EndChar

StartChar: uni0292
Encoding: 658 658 403
Width: 461
Flags: MW
LayerCount: 2
Fore
SplineSet
440 432 m 1
 216 256 l 1
 231 259 247 261 263 261 c 0
 352 261 396 196 396 112 c 0
 396 -64 242 -217 66 -217 c 0
 15 -217 -89 -178 -89 -115 c 0
 -89 -81 -61 -53 -27 -53 c 0
 7 -53 35 -81 35 -115 c 0
 35 -137 24 -158 4 -168 c 1
 18 -176 38 -186 55 -186 c 0
 186 -186 271 -61 271 62 c 0
 271 139 223 172 150 172 c 0
 125 172 100 163 76 158 c 1
 65 180 l 1
 138 238 210 297 285 353 c 1
 104 353 l 2
 67 353 52 322 41 292 c 1
 13 295 l 1
 56 449 l 1
 440 449 l 1
 440 432 l 1
EndSplineSet
Validated: 1
EndChar

StartChar: circumflex
Encoding: 710 710 404
Width: 333
Flags: MW
LayerCount: 2
Fore
SplineSet
316 516 m 1
 228 611 l 1
 97 516 l 1
 40 516 l 1
 200 690 l 1
 281 690 l 1
 367 516 l 1
 316 516 l 1
EndSplineSet
Validated: 1
EndChar

StartChar: caron
Encoding: 711 711 405
Width: 333
Flags: MW
LayerCount: 2
Fore
SplineSet
411 690 m 1
 249 516 l 1
 167 516 l 1
 79 690 l 1
 129 690 l 1
 220 593 l 1
 355 690 l 1
 411 690 l 1
EndSplineSet
Validated: 1
EndChar

StartChar: uni02CA
Encoding: 714 714 406
Width: 333
Flags: MW
LayerCount: 2
Fore
SplineSet
379 650 m 0
 379 626 359 614 340 603 c 2
 188 516 l 1
 139 516 l 1
 145 523 288 697 330 697 c 0
 356 697 379 677 379 650 c 0
EndSplineSet
Validated: 1
EndChar

StartChar: uni02CB
Encoding: 715 715 407
Width: 333
Flags: MW
LayerCount: 2
Fore
SplineSet
297 516 m 1
 252 516 l 1
 119 605 l 2
 103 615 85 632 85 652 c 0
 85 676 106 697 130 697 c 0
 154 697 172 681 186 663 c 2
 297 516 l 1
EndSplineSet
Validated: 1
EndChar

StartChar: breve
Encoding: 728 728 408
Width: 333
Flags: MW
LayerCount: 2
Fore
SplineSet
348 678 m 1
 387 678 l 1
 369 574 305 516 208 516 c 0
 115 516 71 564 71 665 c 2
 71 678 l 1
 114 678 l 1
 120 617 153 588 216 588 c 0
 281 588 317 612 348 678 c 1
EndSplineSet
Validated: 1
EndChar

StartChar: dotaccent
Encoding: 729 729 409
Width: 333
Flags: MW
LayerCount: 2
Fore
SplineSet
227 655 m 0
 263 655 293 625 293 589 c 0
 293 555 262 525 227 525 c 0
 193 525 163 555 163 589 c 0
 163 625 192 655 227 655 c 0
EndSplineSet
Validated: 1
EndChar

StartChar: ring
Encoding: 730 730 410
Width: 333
Flags: MW
LayerCount: 2
Fore
SplineSet
234 754 m 0
 292 754 340 706 340 647 c 0
 340 588 292 540 233 540 c 0
 174 540 127 589 127 649 c 0
 127 706 176 754 234 754 c 0
232 706 m 0
 202 706 175 678 175 647 c 0
 175 615 201 588 232 588 c 0
 265 588 292 614 292 646 c 0
 292 679 265 706 232 706 c 0
EndSplineSet
Validated: 1
EndChar

StartChar: ogonek
Encoding: 731 731 411
Width: 333
Flags: MW
LayerCount: 2
Fore
SplineSet
107 -104 m 0
 135 -104 155 -89 167 -84 c 1
 189 -98 l 1
 164 -144 116 -173 66 -173 c 0
 5 -173 -40 -139 -40 -92 c 0
 -40 -40 10 5 28 32 c 1
 61 44 l 1
 59 32 44 -15 44 -40 c 0
 44 -81 66 -104 107 -104 c 0
EndSplineSet
Validated: 1
EndChar

StartChar: tilde
Encoding: 732 732 412
Width: 333
Flags: MW
LayerCount: 2
Fore
SplineSet
164 655 m 0
 222 655 282 613 315 613 c 0
 338 613 351 624 366 655 c 1
 407 655 l 1
 385 572 350 536 290 536 c 0
 271 536 259 539 233 549 c 2
 174 572 l 2
 161 577 147 580 136 580 c 0
 114 580 101 569 88 537 c 1
 48 537 l 1
 61 609 107 655 164 655 c 0
EndSplineSet
Validated: 1
EndChar

StartChar: hungarumlaut
Encoding: 733 733 413
Width: 333
Flags: MW
LayerCount: 2
Fore
SplineSet
118 516 m 1
 69 516 l 1
 191 647 l 2
 226 685 243 697 261 697 c 0
 287 697 309 675 309 650 c 0
 309 631 300 620 270 603 c 2
 118 516 l 1
307 516 m 1
 258 516 l 1
 380 647 l 2
 415 685 432 697 450 697 c 0
 476 697 498 675 498 650 c 0
 498 631 489 620 459 603 c 2
 307 516 l 1
EndSplineSet
Validated: 1
EndChar

StartChar: gravecomb
Encoding: 768 768 414
Width: 0
Flags: MW
AnchorPoint: "above" -80 449 mark 0
LayerCount: 2
Fore
SplineSet
-36 516 m 1
 -81 516 l 1
 -214 605 l 2
 -227 614 -248 631 -248 652 c 0
 -248 673 -230 697 -203 697 c 0
 -176 697 -157 677 -147 663 c 2
 -36 516 l 1
EndSplineSet
Validated: 1
EndChar

StartChar: acutecomb
Encoding: 769 769 415
Width: 0
Flags: MW
AnchorPoint: "above" -152 449 mark 0
LayerCount: 2
Fore
SplineSet
-145 516 m 1
 -194 516 l 1
 -72 647 l 2
 -46 674 -25 697 -3 697 c 0
 18 697 46 682 46 650 c 0
 46 627 30 616 7 603 c 2
 -145 516 l 1
EndSplineSet
Validated: 1
EndChar

StartChar: uni0302
Encoding: 770 770 416
Width: 0
Flags: MW
AnchorPoint: "above" -146 449 mark 0
LayerCount: 2
Fore
SplineSet
-17 516 m 1
 -105 611 l 1
 -236 516 l 1
 -293 516 l 1
 -133 690 l 1
 -52 690 l 1
 34 516 l 1
 -17 516 l 1
EndSplineSet
Validated: 1
EndChar

StartChar: tildecomb
Encoding: 771 771 417
Width: 0
Flags: MW
AnchorPoint: "above" -130 449 mark 0
LayerCount: 2
Fore
SplineSet
33 655 m 1
 74 655 l 1
 65 620 43 536 -44 536 c 0
 -66 536 -83 542 -100 549 c 2
 -159 572 l 2
 -170 576 -182 580 -195 580 c 0
 -228 580 -237 556 -245 537 c 1
 -285 537 l 1
 -285 539 -266 655 -168 655 c 0
 -113 655 -49 613 -20 613 c 0
 14 613 24 636 33 655 c 1
EndSplineSet
Validated: 1
EndChar

StartChar: uni0304
Encoding: 772 772 418
Width: 0
Flags: MW
AnchorPoint: "above" -130 449 mark 0
LayerCount: 2
Fore
SplineSet
60 623 m 1
 44 553 l 1
 -282 553 l 1
 -265 623 l 1
 60 623 l 1
EndSplineSet
Validated: 1
EndChar

StartChar: uni0305
Encoding: 773 773 419
Width: 0
Flags: MW
AnchorPoint: "above" -120 449 mark 0
LayerCount: 2
Fore
SplineSet
134 637 m 1
 134 565 l 1
 -347 565 l 1
 -347 637 l 1
 134 637 l 1
EndSplineSet
Validated: 1
EndChar

StartChar: uni0306
Encoding: 774 774 420
Width: 0
Flags: MW
AnchorPoint: "above" -131 449 mark 0
LayerCount: 2
Fore
SplineSet
-219 678 m 1
 -215 637 -199 588 -117 588 c 0
 -27 588 -1 644 15 678 c 1
 54 678 l 1
 53 672 36 516 -127 516 c 0
 -252 516 -262 613 -262 664 c 2
 -262 678 l 1
 -219 678 l 1
EndSplineSet
Validated: 1
EndChar

StartChar: uni0307
Encoding: 775 775 421
Width: 0
Flags: MW
AnchorPoint: "above" -127 449 mark 0
LayerCount: 2
Fore
SplineSet
-105 525 m 0
 -129 525 -170 545 -170 589 c 0
 -170 626 -141 655 -106 655 c 0
 -70 655 -40 625 -40 589 c 0
 -40 546 -81 525 -105 525 c 0
EndSplineSet
Validated: 1
EndChar

StartChar: diaeresiscomb
Encoding: 776 776 422
Width: 0
Flags: MW
AnchorPoint: "above" -130 449 mark 0
LayerCount: 2
Fore
SplineSet
-213 525 m 0
 -237 525 -278 545 -278 589 c 0
 -278 626 -249 655 -214 655 c 0
 -178 655 -148 625 -148 589 c 0
 -148 546 -189 525 -213 525 c 0
-1 525 m 0
 -25 525 -66 545 -66 589 c 0
 -66 626 -37 655 -2 655 c 0
 34 655 64 625 64 589 c 0
 64 546 23 525 -1 525 c 0
EndSplineSet
Validated: 1
EndChar

StartChar: hookabovecomb
Encoding: 777 777 423
Width: 0
Flags: MW
AnchorPoint: "above" -68 449 mark 0
LayerCount: 2
Fore
SplineSet
45 622 m 0
 45 563 -7 551 -32 501 c 1
 -75 501 l 1
 -48 567 -21 561 -21 621 c 0
 -21 635 -27 645 -47 645 c 0
 -74.5 645 -80 621 -88 593 c 0
 -90 584 -99 572 -112 572 c 0
 -124 572 -128 582 -128 593 c 0
 -128 611 -110 676 -25 676 c 0
 -3 676 45 665 45 622 c 0
EndSplineSet
EndChar

StartChar: uni030A
Encoding: 778 778 424
Width: 0
Flags: MW
AnchorPoint: "above" -142 449 mark 0
LayerCount: 2
Fore
SplineSet
-206 623 m 0
 -206 682 -157 729 -99 729 c 0
 -41 729 7 681 7 623 c 0
 7 564 -41 516 -99 516 c 0
 -157 516 -206 563 -206 623 c 0
-41 622 m 0
 -41 654 -68 681 -101 681 c 0
 -139 681 -158 645 -158 623 c 0
 -158 601 -141 564 -101 564 c 0
 -67 564 -41 591 -41 622 c 0
EndSplineSet
Validated: 1
EndChar

StartChar: uni030B
Encoding: 779 779 425
Width: 0
Flags: MW
AnchorPoint: "above" -140 449 mark 0
LayerCount: 2
Fore
SplineSet
-215 516 m 1
 -264 516 l 1
 -142 647 l 2
 -116 674 -95 697 -73 697 c 0
 -52 697 -24 682 -24 650 c 0
 -24 627 -40 616 -63 603 c 2
 -215 516 l 1
-26 516 m 1
 -75 516 l 1
 47 647 l 2
 73 674 94 697 116 697 c 0
 137 697 165 682 165 650 c 0
 165 627 149 616 126 603 c 2
 -26 516 l 1
EndSplineSet
Validated: 1
EndChar

StartChar: uni030C
Encoding: 780 780 426
Width: 0
Flags: MW
AnchorPoint: "above" -145 449 mark 0
LayerCount: 2
Fore
SplineSet
78 690 m 1
 -84 516 l 1
 -166 516 l 1
 -254 690 l 1
 -204 690 l 1
 -113 593 l 1
 22 690 l 1
 78 690 l 1
EndSplineSet
Validated: 1
EndChar

StartChar: uni030D
Encoding: 781 781 427
Width: 0
Flags: MW
LayerCount: 2
Fore
SplineSet
-154 504 m 1
 -179 504 l 1
 -188 563 -212 692 -212 721 c 0
 -212 748 -187 764 -166 764 c 0
 -146 764 -122 748 -122 721 c 0
 -122 692 -145 563 -154 504 c 1
EndSplineSet
Validated: 1
EndChar

StartChar: uni030E
Encoding: 782 782 428
Width: 0
Flags: MW
LayerCount: 2
Fore
SplineSet
-232 504 m 1
 -257 504 l 1
 -266 563 -290 692 -290 721 c 0
 -290 748 -265 764 -244 764 c 0
 -224 764 -200 748 -200 721 c 0
 -200 692 -223 563 -232 504 c 1
-76 504 m 1
 -101 504 l 1
 -110 563 -134 692 -134 721 c 0
 -134 748 -109 764 -88 764 c 0
 -68 764 -44 748 -44 721 c 0
 -44 692 -67 563 -76 504 c 1
EndSplineSet
Validated: 1
EndChar

StartChar: uni030F
Encoding: 783 783 429
Width: 0
Flags: MW
LayerCount: 2
Fore
SplineSet
11 656 m 0
 11 687 36 713 73 713 c 0
 83 713 101 711 118 685 c 2
 218 528 l 1
 162 528 l 1
 41 616 l 2
 24 628 11 637 11 656 c 0
-189 656 m 0
 -189 687 -164 713 -127 713 c 0
 -117 713 -99 711 -82 685 c 2
 18 528 l 1
 -38 528 l 1
 -159 616 l 2
 -176 628 -189 637 -189 656 c 0
EndSplineSet
Validated: 1
EndChar

StartChar: uni0310
Encoding: 784 784 430
Width: 0
Flags: MW
LayerCount: 2
Fore
SplineSet
101 670 m 1
 145 670 l 1
 114 570 51 507 -46 507 c 0
 -122 507 -165 545 -165 616 c 0
 -165 632 -163 650 -158 670 c 1
 -114 670 l 1
 -114 666 -115 661 -115 656 c 0
 -115 626 -105 583 -27 583 c 0
 57 583 85 639 101 670 c 1
-9 632 m 0
 -33 632 -74 652 -74 696 c 0
 -74 733 -45 762 -10 762 c 0
 26 762 56 732 56 696 c 0
 56 653 15 632 -9 632 c 0
EndSplineSet
Validated: 1
EndChar

StartChar: uni0311
Encoding: 785 785 431
Width: 0
Flags: MW
LayerCount: 2
Fore
SplineSet
62 506 m 1
 61 537 59 593 -25 593 c 0
 -116 593 -142 534 -153 506 c 1
 -197 506 l 1
 -171 612 -101 669 -8 669 c 0
 74 669 110 624 110 551 c 0
 110 537 109 522 106 506 c 1
 62 506 l 1
EndSplineSet
Validated: 1
EndChar

StartChar: uni0312
Encoding: 786 786 432
Width: 0
Flags: MW
LayerCount: 2
Fore
SplineSet
58 586 m 0
 58 550 24 524 -20 524 c 0
 -75 524 -109 551 -109 600 c 0
 -109 609 -108 619 -105 630 c 0
 -89 697 -24 735 39 735 c 0
 51 735 63 733 74 732 c 1
 68 706 l 1
 -2 706 -54 695 -54 636 c 0
 -54 624 -49 612 -35 612 c 0
 -17 612 1 621 18 621 c 0
 42 621 58 608 58 586 c 0
EndSplineSet
Validated: 1
EndChar

StartChar: uni0313
Encoding: 787 787 433
Width: 0
Flags: MW
LayerCount: 2
Fore
SplineSet
-93 674 m 0
 -93 709 -61 736 -16 736 c 0
 39 736 73 709 73 660 c 0
 73 651 72 641 69 630 c 0
 53 563 -12 525 -75 525 c 0
 -87 525 -98 527 -110 528 c 1
 -104 554 l 1
 -34 554 18 565 18 624 c 0
 18 636 13 648 -1 648 c 0
 -19 648 -37 639 -54 639 c 0
 -78 639 -93 652 -93 674 c 0
EndSplineSet
Validated: 1
EndChar

StartChar: uni0314
Encoding: 788 788 434
Width: 0
Flags: MW
LayerCount: 2
Fore
SplineSet
84 698 m 0
 84 684 72 639 22 639 c 0
 5 639 -9 648 -27 648 c 0
 -49 648 -64 617 -64 597 c 0
 -64 554 -5 554 32 554 c 1
 26 528 l 1
 14 527 1 525 -11 525 c 0
 -66 525 -108 554 -108 605 c 0
 -108 631 -81 736 30 736 c 0
 57 736 84 725 84 698 c 0
EndSplineSet
Validated: 1
EndChar

StartChar: uni0315
Encoding: 789 789 435
Width: 0
Flags: MW
LayerCount: 2
Fore
SplineSet
5 585 m 0
 5 606 26 691 110 691 c 0
 167 691 188 653 188 611 c 0
 188 503 85 415 -34 356 c 1
 -40 378 l 1
 -7 397 87 454 100 510 c 0
 100.624 512.497 100.945 514.908 100.945 517.16 c 0
 100.945 525.729 96.2947 532 86 532 c 0
 81 532 75 530 63 530 c 0
 39 530 5 542 5 585 c 0
EndSplineSet
EndChar

StartChar: uni0316
Encoding: 790 790 436
Width: 0
Flags: MW
LayerCount: 2
Fore
SplineSet
-438 -180 m 0
 -438 -168 -425 -125 -377 -125 c 0
 -356 -125 -339 -140 -331 -153 c 2
 -232 -310 l 1
 -288 -310 l 1
 -409 -222 l 2
 -426 -210 -438 -197 -438 -180 c 0
EndSplineSet
Validated: 1
EndChar

StartChar: uni0317
Encoding: 791 791 437
Width: 0
Flags: MW
LayerCount: 2
Fore
SplineSet
-363 -310 m 1
 -188 -153 l 2
 -174 -140 -151 -125 -130 -125 c 0
 -98 -125 -90 -146 -90 -161 c 0
 -90 -189 -119 -208 -144 -222 c 2
 -307 -310 l 1
 -363 -310 l 1
EndSplineSet
Validated: 1
EndChar

StartChar: uni0318
Encoding: 792 792 438
Width: 0
Flags: MW
LayerCount: 2
Fore
SplineSet
-189 -318 m 1
 -355 -318 l 1
 -355 -246 l 1
 -172 -246 l 1
 -143 -127 l 1
 -71 -127 l 1
 -145 -438 l 1
 -217 -438 l 1
 -189 -318 l 1
EndSplineSet
Validated: 1
EndChar

StartChar: uni0319
Encoding: 793 793 439
Width: 0
Flags: MW
LayerCount: 2
Fore
SplineSet
-299 -318 m 1
 -327 -438 l 1
 -399 -438 l 1
 -325 -127 l 1
 -253 -127 l 1
 -282 -246 l 1
 -116 -246 l 1
 -116 -318 l 1
 -299 -318 l 1
EndSplineSet
Validated: 1
EndChar

StartChar: uni031A
Encoding: 794 794 440
Width: 0
Flags: MW
LayerCount: 2
Fore
SplineSet
229 505 m 1
 157 505 l 1
 197 670 l 1
 49 670 l 1
 49 742 l 1
 286 742 l 1
 229 505 l 1
EndSplineSet
Validated: 1
EndChar

StartChar: uni031B
Encoding: 795 795 441
Width: 0
Flags: MW
LayerCount: 2
Fore
SplineSet
321 474 m 0
 321 406 253 319 160 319 c 0
 125 319 95 333 78 356 c 1
 99 446 l 1
 97.667 437 97 431 97 425 c 0
 97 385 124 357 167 357 c 0
 226 357 265 402 265 429 c 0
 265 443 254 450 239 450 c 0
 226 450 221 445 209 445 c 0
 187 445 163 457 163 485 c 0
 163 502 180 562 245 562 c 0
 288 562 321 523 321 474 c 0
EndSplineSet
Validated: 1
EndChar

StartChar: uni031C
Encoding: 796 796 442
Width: 0
Flags: MW
LayerCount: 2
Fore
SplineSet
-405 -273 m 0
 -405 -211 -345 -128 -256 -128 c 0
 -237 -128 -221 -133 -207 -141 c 1
 -254 -205 l 1
 -260 -202 -266 -200 -274 -200 c 0
 -308 -200 -330 -232 -330 -256 c 0
 -330 -276 -316 -290 -295 -290 c 0
 -288 -290 -281 -288 -274 -285 c 1
 -256 -349 l 1
 -274 -357 -293 -362 -312 -362 c 0
 -367 -362 -405 -324 -405 -273 c 0
EndSplineSet
Validated: 1
EndChar

StartChar: uni031D
Encoding: 797 797 443
Width: 0
Flags: MW
LayerCount: 2
Fore
SplineSet
-205 -312 m 1
 -103 -312 l 1
 -103 -384 l 1
 -397 -384 l 1
 -397 -312 l 1
 -277 -312 l 1
 -234 -129 l 1
 -162 -129 l 1
 -205 -312 l 1
EndSplineSet
Validated: 1
EndChar

StartChar: uni031E
Encoding: 798 798 444
Width: 0
Flags: MW
LayerCount: 2
Fore
SplineSet
-190 -249 m 1
 -234 -432 l 1
 -306 -432 l 1
 -262 -249 l 1
 -365 -249 l 1
 -365 -177 l 1
 -71 -177 l 1
 -71 -249 l 1
 -190 -249 l 1
EndSplineSet
Validated: 1
EndChar

StartChar: uni031F
Encoding: 799 799 445
Width: 0
Flags: MW
LayerCount: 2
Fore
SplineSet
-476 -303 m 1
 -476 -231 l 1
 -356 -231 l 1
 -332 -129 l 1
 -260 -129 l 1
 -284 -231 l 1
 -182 -231 l 1
 -182 -303 l 1
 -301 -303 l 1
 -325 -405 l 1
 -397 -405 l 1
 -373 -303 l 1
 -476 -303 l 1
EndSplineSet
Validated: 1
EndChar

StartChar: uni0320
Encoding: 800 800 446
Width: 0
Flags: MW
LayerCount: 2
Fore
SplineSet
-71 -177 m 1
 -71 -249 l 1
 -365 -249 l 1
 -365 -177 l 1
 -71 -177 l 1
EndSplineSet
Validated: 1
EndChar

StartChar: uni0321
Encoding: 801 801 447
Width: 0
Flags: MW
LayerCount: 2
Fore
SplineSet
-155 -140 m 0
 -155 -165 -170 -189 -191 -204 c 1
 -184 -206 -178 -207 -172 -207 c 0
 -142 -207 -123 -182 -116 -152 c 2
 -80 0 l 1
 -126 0 l 1
 -121 23 l 1
 -73 23 l 1
 -61 31 -52 39 -44 46 c 1
 -15 35 l 1
 -59 -152 l 1
 -69 -196 -118 -251 -182 -251 c 0
 -244 -251 -287 -225 -287 -177 c 0
 -287 -121 -238 -89 -206 -89 c 0
 -176 -89 -155 -111 -155 -140 c 0
EndSplineSet
Validated: 1
EndChar

StartChar: uni0322
Encoding: 802 802 448
Width: 0
Flags: MW
LayerCount: 2
Fore
SplineSet
87 -140 m 0
 87 -168 57 -251 -63 -251 c 0
 -117 -251 -140 -212 -140 -173 c 0
 -140 -166 -140 -159 -138 -152 c 0
 -94 35 l 1
 -59 46 l 1
 -55 39 -50 31 -42 23 c 1
 6 23 l 1
 1 0 l 1
 -45 0 l 1
 -81 -152 l 2
 -83 -159 -83 -166 -83 -172 c 0
 -83 -192 -74 -207 -51 -207 c 0
 -45 -207 -39 -206 -32 -204 c 1
 -39 -195 -44 -183 -44 -169 c 0
 -44 -123 5 -89 39 -89 c 0
 74 -89 87 -116 87 -140 c 0
EndSplineSet
Validated: 1
EndChar

StartChar: dotbelowcomb
Encoding: 803 803 449
Width: 0
Flags: MW
LayerCount: 2
Fore
SplineSet
-393 -257 m 0
 -417 -257 -458 -237 -458 -193 c 0
 -458 -156 -429 -127 -394 -127 c 0
 -358 -127 -328 -157 -328 -193 c 0
 -328 -236 -369 -257 -393 -257 c 0
EndSplineSet
Validated: 1
EndChar

StartChar: uni0324
Encoding: 804 804 450
Width: 0
Flags: MW
LayerCount: 2
Fore
SplineSet
-428 -257 m 0
 -452 -257 -493 -237 -493 -193 c 0
 -493 -156 -464 -127 -429 -127 c 0
 -393 -127 -363 -157 -363 -193 c 0
 -363 -236 -404 -257 -428 -257 c 0
-217 -257 m 0
 -241 -257 -282 -237 -282 -193 c 0
 -282 -156 -253 -127 -218 -127 c 0
 -182 -127 -152 -157 -152 -193 c 0
 -152 -236 -193 -257 -217 -257 c 0
EndSplineSet
Validated: 1
EndChar

StartChar: uni0325
Encoding: 805 805 451
Width: 0
Flags: MW
LayerCount: 2
Fore
SplineSet
-416 -236 m 0
 -416 -177 -367 -130 -309 -130 c 0
 -251 -130 -203 -178 -203 -236 c 0
 -203 -295 -251 -343 -309 -343 c 0
 -367 -343 -416 -296 -416 -236 c 0
-251 -237 m 0
 -251 -205 -278 -178 -311 -178 c 0
 -349 -178 -368 -214 -368 -236 c 0
 -368 -258 -351 -295 -311 -295 c 0
 -277 -295 -251 -268 -251 -237 c 0
EndSplineSet
Validated: 1
EndChar

StartChar: uni0326
Encoding: 806 806 452
Width: 0
Flags: MW
LayerCount: 2
Fore
SplineSet
-394 -233 m 0
 -394 -212 -373 -127 -289 -127 c 0
 -231 -127 -210 -166 -210 -208 c 0
 -210 -316 -312 -402 -433 -462 c 1
 -439 -440 l 1
 -339 -383 -297 -331 -297 -302 c 0
 -297 -293 -302 -286 -313 -286 c 0
 -318 -286 -324 -288 -336 -288 c 0
 -360 -288 -394 -276 -394 -233 c 0
EndSplineSet
Validated: 1
EndChar

StartChar: uni0327
Encoding: 807 807 453
Width: 0
Flags: MW
LayerCount: 2
Fore
SplineSet
-374 -92 m 1
 -308 5 l 1
 -264 5 l 1
 -309 -62 l 1
 -300 -60 -292 -59 -283 -59 c 0
 -259 -59 -193 -71 -193 -131 c 0
 -193 -194 -265 -218 -318 -218 c 0
 -370 -218 -412 -200 -429 -193 c 1
 -407 -160 l 1
 -385 -170 -367 -177 -338 -177 c 0
 -307 -177 -284 -162 -284 -136 c 0
 -284 -132 -284 -100 -330 -100 c 0
 -344 -100 -353 -102 -361 -104 c 1
 -374 -92 l 1
EndSplineSet
Validated: 1
EndChar

StartChar: uni0328
Encoding: 808 808 454
Width: 0
Flags: MW
LayerCount: 2
Fore
SplineSet
-282 -157 m 0
 -342 -157 -356 -122 -356 -96 c 0
 -356 -52 -308 0 -248 0 c 0
 -186 0 l 1
 -251 -18 -264 -46 -264 -69 c 0
 -264 -88 -256 -103 -229 -103 c 0
 -209 -103 -167 -92 -139 -69 c 1
 -118 -89 l 1
 -163 -135 -231 -157 -282 -157 c 0
EndSplineSet
Validated: 1
EndChar

StartChar: uni0329
Encoding: 809 809 455
Width: 0
Flags: MW
LayerCount: 2
Fore
SplineSet
-257 -131 m 1
 -248 -190 -225 -319 -225 -348 c 0
 -225 -375 -249 -391 -269 -391 c 0
 -290 -391 -315 -375 -315 -348 c 0
 -315 -319 -291 -190 -282 -131 c 1
 -257 -131 l 1
EndSplineSet
Validated: 1
EndChar

StartChar: uni032A
Encoding: 810 810 456
Width: 0
Flags: MW
LayerCount: 2
Fore
SplineSet
-139 -177 m 1
 -185 -370 l 1
 -257 -370 l 1
 -228 -249 l 1
 -395 -249 l 1
 -424 -370 l 1
 -496 -370 l 1
 -450 -177 l 1
 -139 -177 l 1
EndSplineSet
Validated: 1
EndChar

StartChar: uni032B
Encoding: 811 811 457
Width: 0
Flags: MW
LayerCount: 2
Fore
SplineSet
-318 -214 m 0
 -308 -214 -306 -217 -306 -227 c 2
 -306 -243 l 2
 -306 -255 -307 -269 -307 -282 c 0
 -307 -318 -301 -351 -263 -351 c 0
 -223 -351 -212 -292 -212 -248 c 0
 -212 -198 -234 -179 -234 -164 c 0
 -234 -157 -228 -153 -221 -153 c 0
 -206 -153 -145 -206 -145 -285 c 0
 -145 -312 -164 -417 -239 -417 c 0
 -283 -417 -328 -395 -347 -352 c 1
 -389 -395 -445 -417 -488 -417 c 0
 -521 -417 -538 -396 -538 -360 c 0
 -538 -263 -421 -153 -380 -153 c 0
 -375 -153 -372 -155 -372 -159 c 0
 -372 -172 -463 -247 -463 -332 c 0
 -463 -348 -456 -354 -439 -354 c 0
 -363 -354 -342 -214 -318 -214 c 0
EndSplineSet
Validated: 1
EndChar

StartChar: uni032C
Encoding: 812 812 458
Width: 0
Flags: MW
LayerCount: 2
Fore
SplineSet
-118 -165 m 1
 -283 -341 l 1
 -375 -341 l 1
 -455 -165 l 1
 -399 -165 l 1
 -311 -264 l 1
 -175 -165 l 1
 -118 -165 l 1
EndSplineSet
Validated: 1
EndChar

StartChar: uni032D
Encoding: 813 813 459
Width: 0
Flags: MW
LayerCount: 2
Fore
SplineSet
-147 -342 m 1
 -204 -342 l 1
 -293 -243 l 1
 -428 -342 l 1
 -484 -342 l 1
 -321 -166 l 1
 -229 -166 l 1
 -147 -342 l 1
EndSplineSet
Validated: 1
EndChar

StartChar: uni032E
Encoding: 814 814 460
Width: 0
Flags: MW
LayerCount: 2
Fore
SplineSet
-144 -154 m 1
 -100 -154 l 1
 -131 -254 -194 -317 -291 -317 c 0
 -367 -317 -410 -279 -410 -207 c 0
 -410 -191 -407 -173 -403 -154 c 1
 -359 -154 l 1
 -359 -165 l 2
 -359 -195 -352 -241 -271 -241 c 0
 -187 -241 -159 -185 -144 -154 c 1
EndSplineSet
Validated: 1
EndChar

StartChar: uni032F
Encoding: 815 815 461
Width: 0
Flags: MW
LayerCount: 2
Fore
SplineSet
-179 -318 m 1
 -179 -287 -181 -231 -265 -231 c 0
 -356 -231 -382 -290 -394 -318 c 1
 -438 -318 l 1
 -412 -212 -341 -155 -248 -155 c 0
 -167 -155 -131 -199 -131 -271 c 0
 -131 -286 -132 -301 -135 -318 c 1
 -179 -318 l 1
EndSplineSet
Validated: 1
EndChar

StartChar: uni0330
Encoding: 816 816 462
Width: 0
Flags: MW
LayerCount: 2
Fore
SplineSet
-448 -300 m 1
 -490 -300 l 1
 -475 -265 -435 -175 -343 -175 c 0
 -314 -175 -285 -189 -276 -194 c 2
 -241 -212 l 2
 -219 -223 -216 -224 -208 -224 c 2
 -203 -224 l 2
 -166 -224 -149 -192 -139 -175 c 1
 -96 -175 l 1
 -113 -210 -158 -302 -247 -302 c 0
 -265 -302 -289 -295 -304 -288 c 2
 -330 -275 l 2
 -374 -253 -374 -253 -388 -253 c 0
 -420 -253 -443 -282 -448 -300 c 1
EndSplineSet
Validated: 1
EndChar

StartChar: uni0331
Encoding: 817 817 463
Width: 0
Flags: MW
LayerCount: 2
Fore
SplineSet
-127 -177 m 1
 -127 -249 l 1
 -440 -249 l 1
 -440 -177 l 1
 -127 -177 l 1
EndSplineSet
Validated: 1
EndChar

StartChar: uni0332
Encoding: 818 818 464
Width: 0
Flags: MW
LayerCount: 2
Fore
SplineSet
-60 -177 m 1
 -60 -249 l 1
 -541 -249 l 1
 -541 -177 l 1
 -60 -177 l 1
EndSplineSet
Validated: 1
EndChar

StartChar: uni0333
Encoding: 819 819 465
Width: 0
Flags: MW
LayerCount: 2
Fore
SplineSet
-60 -177 m 1
 -60 -249 l 1
 -541 -249 l 1
 -541 -177 l 1
 -60 -177 l 1
-95 -321 m 1
 -95 -393 l 1
 -575 -393 l 1
 -575 -321 l 1
 -95 -321 l 1
EndSplineSet
Validated: 1
EndChar

StartChar: uni0334
Encoding: 820 820 466
Width: 0
Flags: MW
LayerCount: 2
Fore
SplineSet
-352 193 m 1
 -394 193 l 1
 -379 228 -338 318 -246 318 c 0
 -217 318 -189 303 -180 299 c 2
 -144 281 l 2
 -120 269 -120 269 -107 269 c 0
 -70 269 -52 301 -42 318 c 1
 1 318 l 1
 -17 283 -62 191 -151 191 c 0
 -169 191 -193 198 -207 205 c 2
 -233 218 l 2
 -278 240 -278 240 -292 240 c 0
 -324 240 -347 211 -352 193 c 1
EndSplineSet
Validated: 1
EndChar

StartChar: uni0335
Encoding: 821 821 467
Width: 0
Flags: MW
LayerCount: 2
Fore
SplineSet
-117 258 m 1
 -117 186 l 1
 -378 186 l 1
 -378 258 l 1
 -117 258 l 1
EndSplineSet
Validated: 1
EndChar

StartChar: uni0336
Encoding: 822 822 468
Width: 0
Flags: MW
LayerCount: 2
Fore
SplineSet
-51 259 m 1
 -51 187 l 1
 -478 187 l 1
 -478 259 l 1
 -51 259 l 1
EndSplineSet
Validated: 1
EndChar

StartChar: uni0337
Encoding: 823 823 469
Width: 0
Flags: MW
LayerCount: 2
Fore
SplineSet
-45 348 m 1
 -31 283 l 1
 -477 95 l 1
 -492 161 l 1
 -45 348 l 1
EndSplineSet
Validated: 1
EndChar

StartChar: uni0338
Encoding: 824 824 470
Width: 0
Flags: MW
LayerCount: 2
Fore
SplineSet
-78 406 m 1
 -39 355 l 1
 -429 40 l 1
 -468 91 l 1
 -78 406 l 1
EndSplineSet
Validated: 1
EndChar

StartChar: uni0339
Encoding: 825 825 471
Width: 0
Flags: MW
LayerCount: 2
Fore
SplineSet
-373 -290 m 0
 -340 -290 -316 -259 -316 -235 c 0
 -316 -215 -331 -200 -352 -200 c 0
 -360 -200 -366 -202 -374 -205 c 1
 -391 -141 l 1
 -373 -133 -353 -128 -334 -128 c 0
 -278 -128 -242 -166 -242 -218 c 0
 -242 -280 -303 -362 -390 -362 c 0
 -409 -362 -426 -357 -440 -349 c 1
 -392 -285 l 1
 -387 -288 -380 -290 -373 -290 c 0
EndSplineSet
Validated: 1
EndChar

StartChar: uni033A
Encoding: 826 826 472
Width: 0
Flags: MW
LayerCount: 2
Fore
SplineSet
-186 -306 m 1
 -497 -306 l 1
 -451 -113 l 1
 -379 -113 l 1
 -408 -234 l 1
 -241 -234 l 1
 -212 -113 l 1
 -140 -113 l 1
 -186 -306 l 1
EndSplineSet
Validated: 1
EndChar

StartChar: uni033B
Encoding: 827 827 473
Width: 0
Flags: MW
LayerCount: 2
Fore
SplineSet
-463 -177 m 1
 -152 -177 l 1
 -226 -488 l 1
 -537 -488 l 1
 -463 -177 l 1
-408 -249 m 1
 -448 -416 l 1
 -281 -416 l 1
 -241 -249 l 1
 -408 -249 l 1
EndSplineSet
Validated: 1
EndChar

StartChar: uni033C
Encoding: 828 828 474
Width: 0
Flags: MW
LayerCount: 2
Fore
SplineSet
-182 -242 m 0
 -292 -242 -269 -378 -319 -378 c 0
 -329.083 -378 -331.814 -374.219 -331.814 -365.116 c 0
 -331.814 -354.358 -328 -336.167 -328 -308 c 0
 -328 -268 -344 -242 -392 -242 c 0
 -435 -242 -452 -253 -465 -253 c 0
 -470 -253 -472 -251 -472 -247 c 0
 -472 -233 -405 -165 -352 -165 c 0
 -316 -165 -289 -184 -287 -248 c 1
 -277 -227 -244 -165 -179 -165 c 0
 -131 -165 -102 -199 -102 -242 c 0
 -102 -248 -104 -254 -111 -254 c 0
 -120 -254 -135 -242 -182 -242 c 0
EndSplineSet
EndChar

StartChar: uni033D
Encoding: 829 829 475
Width: 0
Flags: MW
LayerCount: 2
Fore
SplineSet
-243 584 m 1
 -356 493 l 1
 -394 544 l 1
 -282 635 l 1
 -351 726 l 1
 -288 777 l 1
 -219 686 l 1
 -106 777 l 1
 -67 726 l 1
 -180 635 l 1
 -110 544 l 1
 -174 493 l 1
 -243 584 l 1
EndSplineSet
Validated: 1
EndChar

StartChar: uni033E
Encoding: 830 830 476
Width: 0
Flags: MW
LayerCount: 2
Fore
SplineSet
-88 748 m 1
 -112 747 -145 727 -145 701 c 0
 -145 694 -142 686 -134 658 c 2
 -127 634 l 1
 -124 626 -123 614 -123 602 c 0
 -123 530 -207 503 -274 490 c 1
 -266 524 l 1
 -241 531 -206 542 -206 575 c 0
 -206 580 -207 584 -212 598 c 2
 -222 630 l 1
 -224 636 -229 653 -229 671 c 0
 -229 758 -110 777 -80 782 c 1
 -88 748 l 1
EndSplineSet
Validated: 1
EndChar

StartChar: uni033F
Encoding: 831 831 477
Width: 0
Flags: MW
LayerCount: 2
Fore
SplineSet
164 763 m 1
 164 691 l 1
 -317 691 l 1
 -317 763 l 1
 164 763 l 1
129 619 m 1
 129 547 l 1
 -352 547 l 1
 -352 619 l 1
 129 619 l 1
EndSplineSet
Validated: 1
EndChar

StartChar: uni0360
Encoding: 864 864 478
Width: 0
Flags: MW
LayerCount: 2
Fore
SplineSet
-480 502 m 1
 -445 544 -273 749 19 749 c 0
 101 749 309 721 382 502 c 1
 354 502 l 1
 315 586 256 636 -16 636 c 0
 -321 636 -381 572 -453 502 c 1
 -480 502 l 1
EndSplineSet
Validated: 1
EndChar

StartChar: uni0361
Encoding: 865 865 479
Width: 0
Flags: MW
LayerCount: 2
Fore
SplineSet
-186 678 m 0
 -44 678 52 593 205 593 c 0
 303 593 385 667 411 697 c 1
 444 682 l 1
 410 633 323 511 166 511 c 0
 68 511 -133 595 -226 595 c 0
 -291 595 -374 559 -427 498 c 1
 -464 506 l 1
 -430 555 -342 678 -186 678 c 0
EndSplineSet
Validated: 1
EndChar

StartChar: uni0374
Encoding: 884 884 480
Width: 199
Flags: MW
LayerCount: 2
Fore
SplineSet
164 725 m 0
 164 700 52 572 27 551 c 1
 1 569 l 1
 17 615 55 780 111 780 c 0
 139 780 164 753 164 725 c 0
EndSplineSet
Validated: 1
EndChar

StartChar: uni0375
Encoding: 885 885 481
Width: 199
Flags: MW
LayerCount: 2
Fore
SplineSet
200 -9 m 1
 184 -55 146 -220 90 -220 c 0
 62 -220 37 -193 37 -165 c 0
 37 -140 149 -12 174 9 c 1
 200 -9 l 1
EndSplineSet
Validated: 1
EndChar

StartChar: ypogegrammeni
Encoding: 890 890 482
Width: 0
Flags: MW
LayerCount: 2
Fore
SplineSet
175 -152 m 1
 162 -207 123 -233 68 -233 c 0
 36 -233 0 -216 0 -179 c 0
 0 -140 21 -89 31 -50 c 1
 121 -50 l 1
 110 -88 93 -127 93 -167 c 0
 93 -177 94 -193 108 -193 c 0
 131 -193 138 -169 146 -152 c 1
 175 -152 l 1
EndSplineSet
Validated: 1
EndChar

StartChar: dieresistonos
Encoding: 901 901 484
Width: 333
Flags: HMW
LayerCount: 2
Fore
SplineSet
314.792 517 m 5
 272.25 517 l 5
 333.507 700 l 6
 346.095 737.605 369.591 750 385.219 750 c 4
 407.792 750 437.5 740 437.5 702 c 4
 437.5 689 436.4 683.802 424.15 667 c 6
 314.792 517 l 5
202.4 621 m 4
 231.2 621 255.2 597 255.2 568.2 c 4
 255.2 541 230.4 517 202.4 517 c 4
 175.2 517 151.2 541 151.2 568.2 c 4
 151.2 597 174.4 621 202.4 621 c 4
442 621 m 4
 470.8 621 494.8 597 494.8 568.2 c 4
 494.8 541 470 517 442 517 c 4
 414.8 517 390.8 541 390.8 568.2 c 4
 390.8 597 414 621 442 621 c 4
EndSplineSet
EndChar

StartChar: anoteleia
Encoding: 903 903 486
Width: 250
Flags: MW
LayerCount: 2
Fore
SplineSet
218 351 m 0
 218 300 176 258 125 258 c 0
 74 258 32 300 32 351 c 0
 32 402 74 444 125 444 c 0
 176 444 218 402 218 351 c 0
EndSplineSet
Validated: 1
EndChar

StartChar: Alpha
Encoding: 913 913 494
Width: 667
Flags: MW
LayerCount: 2
Fore
SplineSet
593 0 m 1
 289 0 l 1
 289 25 l 1
 329 28 368 30 368 81 c 0
 368 123 359 167 353 208 c 1
 138 208 l 1
 122 180 64 97 64 60 c 0
 64 27 105 25 129 25 c 1
 129 0 l 1
 -67 0 l 1
 -67 25 l 1
 -23 36 -8 57 16 95 c 2
 388 683 l 1
 413 683 l 1
 509 111 l 1
 521 41 523 32 593 25 c 1
 593 0 l 1
346 248 m 1
 309 491 l 1
 161 248 l 1
 346 248 l 1
EndSplineSet
Validated: 1
EndChar

StartChar: Beta
Encoding: 914 914 495
Width: 667
Flags: MW
LayerCount: 2
Fore
SplineSet
624 525 m 0
 624 416 528 378 438 356 c 1
 438 354 l 1
 513 331 572 296 572 208 c 0
 572 45 412 0 277 0 c 2
 -24 0 l 1
 -24 25 l 1
 25 31 43 48 56 97 c 0
 178 546 l 2
 181 557 189 588 189 599 c 0
 189 642 149 643 116 644 c 1
 116 669 l 1
 388 669 l 2
 484 669 624 649 624 525 c 0
477 539 m 0
 477 600 451 637 387 637 c 0
 354 637 346 621 338 593 c 0
 277 368 l 1
 397 372 477 399 477 539 c 0
419 225 m 0
 419 328 353 336 269 338 c 1
 254 282 198 111 198 63 c 0
 198 33 238 32 259 32 c 0
 363 32 419 131 419 225 c 0
EndSplineSet
Validated: 1
EndChar

StartChar: Gamma
Encoding: 915 915 496
Width: 637
Flags: MW
LayerCount: 2
Fore
SplineSet
663 669 m 1
 620 479 l 1
 593 484 l 1
 593 615 530 637 404 637 c 0
 368 637 355 627 346 593 c 2
 220 129 l 2
 215 110 208 88 208 68 c 0
 208 21 256 26 291 25 c 1
 291 0 l 1
 -17 0 l 1
 -17 25 l 1
 34 34 49 44 63 97 c 0
 186 546 l 1
 191 563 196 584 196 602 c 0
 196 644 155 640 123 644 c 1
 123 669 l 1
 663 669 l 1
EndSplineSet
Validated: 1
EndChar

StartChar: Delta
Encoding: 916 916 497
Width: 740
Flags: MW
LayerCount: 2
Fore
SplineSet
670 0 m 1
 -45 0 l 1
 390 683 l 1
 412 683 l 1
 670 0 l 1
508 40 m 1
 328 518 l 1
 24 40 l 1
 508 40 l 1
EndSplineSet
Validated: 1
EndChar

StartChar: Epsilon
Encoding: 917 917 498
Width: 667
Flags: MW
LayerCount: 2
Fore
SplineSet
653 669 m 1
 610 479 l 1
 583 484 l 1
 583 615 520 637 394 637 c 0
 358 637 345 627 336 593 c 2
 275 370 l 1
 306 370 l 2
 406 370 432 385 480 476 c 1
 508 472 l 1
 434 199 l 1
 406 204 l 1
 408 217 410 231 410 244 c 0
 410 337 343 338 266 338 c 1
 260 314 195 96 195 68 c 0
 195 32 232 32 260 32 c 0
 391 32 497 82 561 199 c 1
 586 194 l 1
 527 0 l 1
 -27 0 l 1
 -27 25 l 1
 24 34 39 45 53 97 c 2
 176 546 l 1
 181 563 186 584 186 602 c 0
 186 644 145 640 113 644 c 1
 113 669 l 1
 653 669 l 1
EndSplineSet
Validated: 1
EndChar

StartChar: Zeta
Encoding: 918 918 499
Width: 611
Flags: MW
LayerCount: 2
Fore
SplineSet
620 640 m 1
 186 35 l 1
 266 35 l 2
 396 35 492 83 557 199 c 1
 584 194 l 1
 525 0 l 1
 19 0 l 1
 19 29 l 1
 453 634 l 1
 375 634 l 2
 253 634 190 581 123 487 c 1
 95 491 l 1
 152 669 l 1
 620 669 l 1
 620 640 l 1
EndSplineSet
Validated: 1
EndChar

StartChar: Eta
Encoding: 919 919 500
Width: 778
Flags: MW
LayerCount: 2
Fore
SplineSet
799 644 m 1
 748 636 732 624 718 572 c 2
 609 175 l 1
 601 147 584 94 584 67 c 0
 584 27 627 26 657 25 c 1
 657 0 l 1
 340 0 l 1
 340 25 l 1
 400 27 425 39 441 97 c 2
 505 329 l 1
 266 329 l 1
 255 289 199 124 199 68 c 0
 199 24 239 27 272 25 c 1
 272 0 l 1
 -24 0 l 1
 -24 25 l 1
 26 33 42 46 56 97 c 2
 178 546 l 1
 183 563 189 583 189 600 c 0
 189 642 149 639 116 644 c 1
 116 669 l 1
 433 669 l 1
 433 644 l 1
 376 642 348 630 332 572 c 2
 278 373 l 1
 517 373 l 1
 530 423 574 544 574 602 c 0
 574 644 534 639 501 644 c 1
 501 669 l 1
 799 669 l 1
 799 644 l 1
EndSplineSet
Validated: 1
EndChar

StartChar: Theta
Encoding: 920 920 501
Width: 722
Flags: MW
LayerCount: 2
Fore
SplineSet
691 444 m 0
 691 225 493 -18 265 -18 c 0
 135 -18 27 73 27 207 c 0
 27 430 211 685 449 685 c 0
 592 685 691 588 691 444 c 0
547 526 m 0
 547 593 518 651 442 651 c 0
 274 651 171 284 171 150 c 0
 171 79 195 16 275 16 c 0
 445 16 547 391 547 526 c 0
507 455 m 1
 453 235 l 1
 429 235 l 1
 430 241 431 247 431 252 c 0
 431 280 413 296 386 296 c 2
 316 296 l 2
 280 296 251 269 243 235 c 1
 219 235 l 1
 273 455 l 1
 297 455 l 1
 296 449 295 443 295 438 c 0
 295 410 313 394 340 394 c 2
 410 394 l 2
 446 394 475 421 483 455 c 1
 507 455 l 1
EndSplineSet
Validated: 1
EndChar

StartChar: Iota
Encoding: 921 921 502
Width: 389
Flags: MW
LayerCount: 2
Fore
SplineSet
406 644 m 1
 355 637 338 624 324 572 c 2
 210 152 l 2
 203 127 192 94 192 68 c 0
 192 26 232 26 264 25 c 1
 264 0 l 1
 -32 0 l 1
 -32 25 l 1
 18 32 34 47 48 97 c 2
 171 546 l 1
 176 563 181 585 181 602 c 0
 181 644 141 639 108 644 c 1
 108 669 l 1
 406 669 l 1
 406 644 l 1
EndSplineSet
Validated: 1
EndChar

StartChar: Kappa
Encoding: 922 922 503
Width: 677
Flags: MW
LayerCount: 2
Fore
SplineSet
702 644 m 1
 656 638 643 628 608 596 c 2
 392 398 l 1
 549 60 l 2
 562 32 584 28 612 25 c 1
 612 0 l 1
 332 0 l 1
 332 25 l 1
 355 28 397 24 397 56 c 0
 397 76 290 296 276 325 c 1
 268 327 l 1
 254 274 202 112 202 67 c 0
 202 29 239 27 268 25 c 1
 268 0 l 1
 -21 0 l 1
 -21 25 l 1
 29 32 45 46 59 97 c 2
 181 546 l 1
 186 563 192 583 192 600 c 0
 192 642 152 639 119 644 c 1
 119 669 l 1
 429 669 l 1
 429 644 l 1
 375 640 350 626 335 572 c 0
 275 351 l 1
 280 350 l 1
 326 389 547 574 547 616 c 0
 547 643 510 642 491 644 c 1
 491 669 l 1
 702 669 l 1
 702 644 l 1
EndSplineSet
Validated: 1
EndChar

StartChar: Lambda
Encoding: 923 923 504
Width: 667
Flags: MW
LayerCount: 2
Fore
SplineSet
593 0 m 1
 289 0 l 1
 289 25 l 1
 329 28 368 30 368 81 c 0
 368 127 356 177 349 222 c 0
 309 491 l 1
 79 106 l 2
 71 92 64 76 64 60 c 0
 64 27 105 25 129 25 c 1
 129 0 l 1
 -67 0 l 1
 -67 25 l 1
 -23 36 -8 58 16 95 c 2
 388 683 l 1
 413 683 l 1
 509 111 l 1
 521 41 523 31 593 25 c 1
 593 0 l 1
EndSplineSet
Validated: 1
EndChar

StartChar: Mu
Encoding: 924 924 505
Width: 889
Flags: MW
LayerCount: 2
Fore
SplineSet
917 644 m 1
 866 636 850 624 836 572 c 2
 713 123 l 2
 708 105 703 87 703 68 c 0
 703 26 743 26 775 25 c 1
 775 0 l 1
 463 0 l 1
 463 25 l 1
 519 29 547 39 563 97 c 0
 686 552 l 1
 684 554 l 1
 313 -12 l 1
 285 -12 l 1
 219 542 l 1
 217 542 l 1
 117 178 l 1
 109 150 98 116 98 88 c 0
 98 34 134 30 178 25 c 1
 178 0 l 1
 -29 0 l 1
 -29 25 l 1
 46 43 52 111 72 178 c 0
 181 551 l 2
 186 569 192 590 192 609 c 0
 192 648 148 643 120 644 c 1
 120 669 l 1
 341 669 l 1
 395 192 l 1
 397 192 l 1
 705 669 l 1
 917 669 l 1
 917 644 l 1
EndSplineSet
Validated: 1
EndChar

StartChar: Nu
Encoding: 925 925 506
Width: 722
Flags: MW
LayerCount: 2
Fore
SplineSet
748 644 m 1
 670 625 666 562 646 491 c 2
 503 -15 l 1
 475 -15 l 1
 218 534 l 1
 119 178 l 2
 111 149 101 116 101 86 c 0
 101 35 140 28 181 25 c 1
 181 0 l 1
 -27 0 l 1
 -27 25 l 1
 48 43 54 111 74 178 c 0
 194 589 l 1
 174 635 160 640 111 644 c 1
 111 669 l 1
 306 669 l 1
 521 204 l 1
 601 491 l 2
 609 520 619 553 619 583 c 0
 619 634 580 641 539 644 c 1
 539 669 l 1
 748 669 l 1
 748 644 l 1
EndSplineSet
Validated: 1
EndChar

StartChar: Xi
Encoding: 926 926 507
Width: 650
Flags: MW
LayerCount: 2
Fore
SplineSet
673 669 m 1
 614 439 l 1
 590 439 l 1
 593 450 595 460 595 471 c 0
 595 504 578 528 543 528 c 2
 202 528 l 2
 150 528 120 485 108 439 c 1
 85 439 l 1
 144 669 l 1
 673 669 l 1
519 461 m 1
 454 208 l 1
 431 208 l 1
 433 215 434 222 434 229 c 0
 434 253 422 272 396 272 c 2
 213 272 l 2
 178 272 155 238 147 208 c 1
 125 208 l 1
 190 461 l 1
 212 461 l 1
 210 454 209 446 209 438 c 0
 209 414 221 397 247 397 c 2
 430 397 l 2
 466 397 487 430 496 461 c 1
 519 461 l 1
560 231 m 1
 501 0 l 1
 -28 0 l 1
 32 231 l 1
 54 231 l 1
 51 220 50 209 50 198 c 0
 50 162 68 141 105 141 c 2
 446 141 l 2
 497 141 526 187 537 231 c 1
 560 231 l 1
EndSplineSet
Validated: 1
EndChar

StartChar: Omicron
Encoding: 927 927 508
Width: 722
Flags: MW
LayerCount: 2
Fore
SplineSet
691 444 m 0
 691 225 493 -18 265 -18 c 0
 135 -18 27 73 27 207 c 0
 27 430 211 685 449 685 c 0
 592 685 691 588 691 444 c 0
547 526 m 0
 547 593 518 651 442 651 c 0
 274 651 171 284 171 150 c 0
 171 79 195 16 275 16 c 0
 445 16 547 391 547 526 c 0
EndSplineSet
Validated: 1
EndChar

StartChar: Pi
Encoding: 928 928 509
Width: 778
Flags: MW
LayerCount: 2
Fore
SplineSet
799 644 m 1
 748 636 732 624 718 572 c 2
 609 175 l 1
 601 147 584 94 584 67 c 0
 584 27 627 26 657 25 c 1
 657 0 l 1
 340 0 l 1
 340 25 l 1
 400 27 425 39 441 97 c 2
 586 625 l 1
 347 625 l 1
 216 148 l 2
 209 122 199 95 199 68 c 0
 199 24 239 27 272 25 c 1
 272 0 l 1
 -24 0 l 1
 -24 25 l 1
 26 33 42 46 56 97 c 2
 178 546 l 1
 183 563 189 583 189 600 c 0
 189 642 149 639 116 644 c 1
 116 669 l 1
 799 669 l 1
 799 644 l 1
EndSplineSet
Validated: 1
EndChar

StartChar: Rho
Encoding: 929 929 510
Width: 611
Flags: MW
LayerCount: 2
Fore
SplineSet
613 512 m 0
 613 374 470 317 352 317 c 0
 321 317 290 319 259 322 c 1
 244 268 195 124 195 68 c 0
 195 26 235 26 267 25 c 1
 267 0 l 1
 -27 0 l 1
 -27 25 l 1
 24 34 39 45 53 97 c 2
 176 546 l 1
 181 563 186 584 186 602 c 0
 186 643 145 640 113 644 c 1
 113 669 l 1
 400 669 l 2
 506 669 613 638 613 512 c 0
467 541 m 0
 467 597 444 637 382 637 c 0
 348 637 341 622 333 593 c 2
 269 354 l 1
 282 353 294 352 307 352 c 0
 422 352 467 433 467 541 c 0
EndSplineSet
Validated: 1
EndChar

StartChar: Sigma
Encoding: 931 931 511
Width: 730
Flags: MW
LayerCount: 2
Fore
SplineSet
721 669 m 1
 684 475 l 1
 654 475 l 1
 655 486 656 496 656 507 c 0
 656 602 598 635 510 635 c 2
 294 635 l 1
 415 364 l 1
 158 141 l 1
 434 141 l 2
 512 141 583 150 609 236 c 1
 637 236 l 1
 552 0 l 1
 -28 0 l 1
 -19 33 l 1
 295 303 l 1
 134 624 l 1
 145 669 l 1
 721 669 l 1
EndSplineSet
Validated: 1
EndChar

StartChar: Tau
Encoding: 932 932 512
Width: 621
Flags: MW
LayerCount: 2
Fore
SplineSet
660 669 m 1
 624 477 l 1
 597 479 l 1
 594 581 561 630 459 634 c 1
 319 128 l 2
 314 109 308 88 308 68 c 0
 308 21 356 26 391 25 c 1
 391 0 l 1
 60 0 l 1
 60 25 l 1
 80 25 l 2
 127 25 152 49 165 97 c 2
 313 634 l 1
 209 634 142 583 96 491 c 1
 71 498 l 1
 109 669 l 1
 660 669 l 1
EndSplineSet
Validated: 1
EndChar

StartChar: Upsilon
Encoding: 933 933 513
Width: 722
Flags: MW
LayerCount: 2
Fore
SplineSet
692 519 m 0
 664 519 643 539 643 567 c 0
 643 608 676 638 716 638 c 2
 723 638 l 1
 716 643 707 644 699 644 c 0
 490 644 421 293 382 152 c 0
 375 127 364 94 364 68 c 0
 364 26 404 26 436 25 c 1
 436 0 l 1
 140 0 l 1
 140 25 l 1
 190 32 206 48 220 97 c 0
 248 197 307 355 307 468 c 0
 307 550 280 644 181 644 c 0
 171 644 161 643 152 638 c 1
 178 638 205 634 205 602 c 0
 205 559 164 519 121 519 c 0
 93 519 72 540 72 568 c 0
 72 633 132 676 192 676 c 0
 313 676 370 525 380 425 c 1
 453 538 554 676 703 676 c 0
 743 676 778 661 778 616 c 0
 778 569 743 519 692 519 c 0
EndSplineSet
Validated: 1
EndChar

StartChar: Phi
Encoding: 934 934 514
Width: 748
Flags: MW
LayerCount: 2
Fore
SplineSet
388 122 m 1
 383 105 378 85 378 68 c 0
 378 26 418 26 450 25 c 1
 450 0 l 1
 154 0 l 1
 154 25 l 1
 220 34 225 63 241 122 c 1
 136 123 0 159 0 288 c 0
 0 470 203 559 360 559 c 1
 363 572 367 588 367 602 c 0
 367 644 327 640 294 644 c 1
 294 669 l 1
 592 669 l 1
 592 644 l 1
 534 637 522 614 506 559 c 1
 608 559 752 515 752 390 c 0
 752 202 546 122 388 122 c 1
582 434 m 0
 582 490 560 530 499 530 c 1
 492 503 397 152 395 150 c 1
 400 150 l 2
 526 150 582 332 582 434 c 0
353 530 m 1
 231 530 168 351 168 251 c 0
 168 197 189 152 249 150 c 1
 353 530 l 1
EndSplineSet
Validated: 1
EndChar

StartChar: Chi
Encoding: 935 935 515
Width: 667
Flags: MW
LayerCount: 2
Fore
SplineSet
694 644 m 1
 650 637 625 614 595 583 c 2
 396 378 l 1
 470 141 l 2
 493 67 503 33 586 25 c 1
 586 0 l 1
 278 0 l 1
 278 25 l 1
 305 27 346 27 346 64 c 0
 346 112 302 211 289 264 c 1
 273 247 125 98 125 67 c 0
 125 33 164 27 190 25 c 1
 190 0 l 1
 -24 0 l 1
 -24 25 l 1
 61 49 208 239 275 309 c 1
 191 581 l 2
 175 632 149 639 100 644 c 1
 100 669 l 1
 405 669 l 1
 405 644 l 1
 372 641 331 645 331 602 c 0
 331 579 373 453 382 421 c 1
 392 432 546 582 546 615 c 0
 546 645 513 642 491 644 c 1
 491 669 l 1
 694 669 l 1
 694 644 l 1
EndSplineSet
Validated: 1
EndChar

StartChar: Psi
Encoding: 936 936 516
Width: 868
Flags: MW
LayerCount: 2
Fore
SplineSet
904 681 m 1
 897 653 l 1
 892 655 887 656 882 656 c 0
 759 656 886 215 449 215 c 1
 441 186 414 97 414 68 c 0
 414 26 454 26 486 25 c 1
 486 0 l 1
 190 0 l 1
 190 25 l 1
 240 32 256 47 270 97 c 0
 302 215 l 1
 196 215 74 244 74 373 c 0
 74 454 123 554 123 623 c 0
 123 644 112 656 96 656 c 0
 91 656 86 655 80 653 c 1
 87 681 l 1
 109 685 131 690 153 690 c 0
 227 690 282 667 282 585 c 0
 282 494 230 410 230 320 c 0
 230 267 259 245 310 244 c 1
 393 546 l 1
 398 563 403 585 403 602 c 0
 403 644 363 640 330 644 c 1
 330 669 l 1
 628 669 l 1
 628 644 l 1
 577 638 560 623 546 572 c 2
 457 244 l 1
 691 250 528 690 842 690 c 0
 863 690 884 685 904 681 c 1
EndSplineSet
Validated: 1
EndChar

StartChar: Omega
Encoding: 937 937 517
Width: 741
Flags: MW
LayerCount: 2
Fore
SplineSet
429 177 m 1
 414 122 l 1
 553 122 l 2
 597 122 633 125 644 176 c 1
 667 176 l 1
 622 0 l 1
 351 0 l 1
 405 211 l 1
 510 248 570 409 570 512 c 0
 570 583 540 643 460 643 c 0
 313 643 237 448 237 324 c 0
 237 278 250 231 297 211 c 1
 243 0 l 1
 -28 0 l 1
 17 176 l 1
 40 176 l 1
 38 169 36 162 36 155 c 0
 36 124 68 122 92 122 c 2
 242 122 l 1
 256 177 l 1
 158 192 62 253 62 362 c 0
 62 570 288 676 468 676 c 0
 592 676 746 629 746 480 c 0
 746 309 583 199 429 177 c 1
EndSplineSet
Validated: 1
EndChar

StartChar: alpha
Encoding: 945 945 525
Width: 605
Flags: MW
LayerCount: 2
Fore
SplineSet
569 461 m 1
 391 153 l 1
 395 125 405 84 441 84 c 0
 469 84 494 109 505 133 c 1
 534 133 l 1
 516 82 480 -13 414 -13 c 0
 370 -13 361 41 361 84 c 0
 361 96 362 107 363 115 c 1
 361 115 l 1
 314 54 246 -13 164 -13 c 0
 58 -13 -2 51 -2 155 c 0
 -2 301 124 474 279 474 c 0
 351 474 369 425 369 368 c 0
 369 359 369 351 368 342 c 1
 370 342 l 1
 429 461 l 1
 569 461 l 1
336 355 m 0
 336 390 329 435 285 435 c 0
 194 435 133 158 133 87 c 0
 133 56 141 22 179 22 c 0
 279 22 336 276 336 355 c 0
EndSplineSet
Validated: 1
EndChar

StartChar: beta
Encoding: 946 946 526
Width: 550
Flags: MW
LayerCount: 2
Fore
SplineSet
326 393 m 1
 326 391 l 1
 412 379 489 342 489 248 c 0
 489 124 376 -13 240 -13 c 0
 188.025 -13 126 4 126 72 c 1
 124 72 l 1
 56 -202 l 1
 -77 -202 l 1
 72 385 l 2
 109 526 190 691 366 691 c 0
 438 691 529 664 529 581 c 0
 529 469 426 413 326 393 c 1
395 607 m 0
 395 633 388 663 354 663 c 0
 277 663 239 514 224 457 c 2
 126 80 l 1
 157 80 l 1
 157 74 l 1
 157 74 157 73 157 72 c 0
 157 51 175 31 198 31 c 0
 297 31 310 148 328 216 c 0
 336 246 343 278 343 309 c 0
 343 336 337 370 301 370 c 0
 286 370 272 361 256 361 c 0
 245 361 242 373 242 381 c 0
 242 396 255 414 272 414 c 0
 284 414 294 408 305 408 c 0
 363 408 395 563 395 607 c 0
EndSplineSet
EndChar

StartChar: gamma
Encoding: 947 947 527
Width: 550
Flags: MW
LayerCount: 2
Fore
SplineSet
229 48 m 1
 235 13 240 -23 240 -59 c 0
 240 -127 214 -231 129 -231 c 0
 92 -231 71 -209 71 -173 c 0
 71 -96 148 -2 199 50 c 1
 200 113 l 1
 200 175 199 338 107 338 c 0
 72 338 51 306 44 275 c 1
 10 275 l 1
 26 343 65 474 153 474 c 0
 238 474 241 331 241 273 c 0
 241 210 234 149 231 87 c 1
 233 87 l 1
 278 148 317 215 342 287 c 0
 366 356 402 474 493 474 c 0
 520 474 542 466 542 435 c 0
 542 350 295 119 229 48 c 1
EndSplineSet
Validated: 1
EndChar

StartChar: delta
Encoding: 948 948 528
Width: 550
Flags: MW
LayerCount: 2
Fore
SplineSet
182 -13 m 0
 80 -13 -1 49 -1 150 c 0
 -1 276 119 413 257 413 c 0
 282 413 306 407 329 399 c 1
 331 401 l 1
 271 437 175 476 175 556 c 0
 175 638 264 689 343 689 c 0
 416 689 460 653 484 588 c 1
 446 574 l 1
 440 622 398 656 348 656 c 0
 315 656 273 640 273 602 c 0
 273 547 495 485 495 302 c 0
 495 145 352 -13 182 -13 c 0
334 321 m 0
 334 350 326 385 289 385 c 0
 190 385 144 155 144 83 c 0
 144 52 152 15 192 15 c 0
 283 15 334 253 334 321 c 0
EndSplineSet
Validated: 1
EndChar

StartChar: epsilon
Encoding: 949 949 529
Width: 440
Flags: MW
LayerCount: 2
Fore
SplineSet
365 343 m 0
 287 343 339 440 272 440 c 0
 210 440 184 358 184 307 c 0
 184 285 192 269 216 269 c 0
 242 269 265 283 291 283 c 0
 307 283 321 276 321 258 c 0
 321 230 300 215 273 215 c 0
 248 215 227 230 202 230 c 0
 154 230 125 133 125 95 c 0
 125 47 160 33 202 33 c 0
 258 33 315 75 346 119 c 1
 370 103 l 1
 299 18 233 -13 123 -13 c 0
 56 -13 -24 10 -24 91 c 0
 -24 189 56 237 143 249 c 1
 96 251 44 274 44 328 c 0
 44 431 173 474 257 474 c 0
 300 474 420 464 420 404 c 0
 420 376 394 343 365 343 c 0
EndSplineSet
EndChar

StartChar: zeta
Encoding: 950 950 530
Width: 495
Flags: MW
LayerCount: 2
Fore
SplineSet
338 492 m 0
 315 492 293 494 272 498 c 1
 191 433 92 302 92 197 c 0
 92 140 137 131 187 131 c 0
 221 131 255 134 289 134 c 0
 353 134 396 103 396 40 c 0
 396 -80 275 -174 153 -174 c 0
 129 -174 82 -168 82 -137 c 0
 82 -104 114 -84 147 -84 c 0
 182 -84 215 -102 250 -102 c 0
 289 -102 332 -78 332 -38 c 0
 332 -4 292 -3 266 -3 c 0
 234 -3 201 -7 169 -7 c 0
 80 -7 21 18 21 112 c 0
 21 254 123 415 231 507 c 1
 183 515 120 543 120 597 c 0
 120 664 206 695 266 695 c 0
 281 695 297 694 312 693 c 1
 305 667 l 1
 257 667 191 647 191 591 c 0
 191 557 230 535 262 530 c 1
 306 562 363 599 421 599 c 0
 446 599 485 591 485 561 c 0
 485 501 384 492 338 492 c 0
EndSplineSet
Validated: 1
EndChar

StartChar: eta
Encoding: 951 951 531
Width: 605
Flags: MW
LayerCount: 2
Fore
SplineSet
392 -200 m 1
 237 -200 l 1
 369 327 l 2
 373 342 376 357 376 372 c 0
 376 391 369 406 348 406 c 0
 297 406 243 323 232 278 c 2
 163 0 l 1
 9 0 l 1
 99 359 l 2
 102 370 105 381 105 392 c 0
 105 404 100 411 88 411 c 0
 64 411 41 355 35 335 c 1
 6 335 l 1
 22 401 89 474 161 474 c 0
 217 474 243 449 243 394 c 0
 243 376 241 359 238 342 c 1
 240 342 l 1
 278 415 353 474 438 474 c 0
 491 474 535 446 535 389 c 0
 535 379 534 368 531 358 c 0
 392 -200 l 1
EndSplineSet
Validated: 1
EndChar

StartChar: theta
Encoding: 952 952 532
Width: 550
Flags: MW
LayerCount: 2
Fore
SplineSet
185 -13 m 0
 63 -13 31 105 31 206 c 0
 31 378 156 696 362 696 c 0
 484 696 516 579 516 478 c 0
 516 305 392 -13 185 -13 c 0
396 611 m 0
 396 640 388 667 354 667 c 0
 280 667 262 539 248 485 c 2
 222 382 l 1
 345 382 l 1
 362 449 396 541 396 611 c 0
334 337 m 1
 211 337 l 1
 196 277 150 139 150 71 c 0
 150 43 159 16 192 16 c 0
 267 16 285 143 299 198 c 2
 334 337 l 1
EndSplineSet
Validated: 1
EndChar

StartChar: iota
Encoding: 953 953 533
Width: 330
Flags: MW
LayerCount: 2
Fore
SplineSet
268 148 m 1
 245 56 189 -13 88 -13 c 0
 36 -13 0 18 0 72 c 0
 0 83 1 94 4 105 c 2
 93 461 l 1
 248 461 l 1
 236 411 150 91 150 63 c 0
 150 53 154 45 165 45 c 0
 209 45 230 113 239 148 c 1
 268 148 l 1
EndSplineSet
Validated: 1
EndChar

StartChar: kappa
Encoding: 954 954 534
Width: 608
Flags: MW
LayerCount: 2
Fore
SplineSet
506 368 m 0
 466 368 465 402 436 402 c 0
 400 402 316 328 286 304 c 1
 409 78 l 2
 432 36 444 17 496 17 c 1
 492 0 l 1
 199 0 l 1
 203 17 l 1
 216 17 252 18 252 37 c 0
 252 56 187 163 173 187 c 1
 126 0 l 1
 -29 0 l 1
 55 337 l 1
 60 355 68 375 68 394 c 0
 68 414 53 420 35 420 c 1
 41 447 l 1
 111 448 180 460 246 481 c 1
 194 273 l 1
 264 328 452 486 535 486 c 0
 561 486 581 469 581 442 c 0
 581 403 544 368 506 368 c 0
EndSplineSet
Validated: 1
EndChar

StartChar: lambda
Encoding: 955 955 535
Width: 495
Flags: MW
LayerCount: 2
Fore
SplineSet
441 161 m 1
 425 101 392 -13 312 -13 c 0
 266 -13 265 44 265 76 c 2
 265 272 l 1
 263 272 l 1
 88 0 l 1
 -76 0 l 1
 265 496 l 1
 264 528 268 596 219 596 c 0
 173 596 141 555 127 517 c 1
 98 517 l 1
 117 580 165 691 245 691 c 0
 294 691 302 629 302 577 c 0
 302 553 300 531 300 518 c 0
 303 149 l 1
 303 123 303 82 340 82 c 0
 379 82 405 130 412 161 c 1
 441 161 l 1
EndSplineSet
Validated: 1
EndChar

StartChar: uni03BC
Encoding: 956 956 536
Width: 605
Flags: MW
LayerCount: 2
Fore
SplineSet
533 131 m 1
 508 60 453 -13 371 -13 c 0
 314 -13 292 24 292 76 c 0
 292 92 294 108 297 124 c 1
 295 124 l 1
 260 54 193 -13 110 -13 c 0
 59 -13 32 15 25 64 c 1
 23 64 l 1
 18 45 14 25 14 5 c 0
 14 -42 39 -85 39 -130 c 0
 39 -171 10 -215 -34 -215 c 0
 -62 -215 -78 -195 -78 -169 c 0
 -78 -159 2 95 13 139 c 2
 93 461 l 1
 248 461 l 1
 166 131 l 2
 163 118 159 105 159 91 c 0
 159 69 171 58 193 58 c 0
 262 58 305 194 319 249 c 2
 372 461 l 1
 526 461 l 1
 512 403 429 104 429 66 c 0
 429 56 434 50 444 50 c 0
 474 50 496 108 504 131 c 1
 533 131 l 1
EndSplineSet
Validated: 1
EndChar

StartChar: nu
Encoding: 957 957 537
Width: 495
Flags: MW
LayerCount: 2
Fore
SplineSet
492 439 m 0
 492 374 195 38 175 -13 c 1
 141 -13 l 1
 140 29 131 70 126 112 c 0
 97 344 l 1
 96 355 94 394 78 394 c 0
 53 394 37 339 31 320 c 1
 2 320 l 1
 21 395 74 474 159 474 c 0
 215 474 234 433 240 384 c 2
 267 160 l 1
 359.164 291.662 368.592 320.174 368.592 346.494 c 0
 368.592 353.264 367.968 359.889 367.968 368.087 c 0
 367.968 381.273 369.582 398.527 378 427 c 0
 386 455 418 474 447 474 c 0
 470 474 492 466 492 439 c 0
EndSplineSet
EndChar

StartChar: xi
Encoding: 958 958 538
Width: 495
Flags: MW
LayerCount: 2
Fore
SplineSet
364 518 m 0
 322 518 279 525 239 539 c 1
 204 511 157 466 157 418 c 0
 157 395 168 373 186 360 c 1
 236 386 291 401 348 401 c 0
 377 401 438 397 438 357 c 0
 438 298 340 288 297 288 c 0
 254 288 211 297 171 315 c 1
 128 291 72 243 72 190 c 0
 72 144 142 143 173 143 c 0
 208 143 242 148 277 148 c 0
 343 148 386 114 386 46 c 0
 386 -90 250 -191 122 -191 c 0
 97 -191 49 -188 49 -154 c 0
 49 -108 91 -96 128 -96 c 0
 164 -96 198 -106 234 -106 c 0
 277 -106 331 -81 331 -31 c 0
 331 2 294 3 269 3 c 2
 265 3 l 2
 217 3 168 0 120 0 c 0
 51 0 -5 30 -5 105 c 0
 -5 199 63 289 143 332 c 1
 123 348 113 371 113 396 c 0
 113 456 158 519 207 550 c 1
 172 561 109 590 109 634 c 0
 109 707 195 727 252 727 c 0
 270 727 288 726 306 724 c 1
 300 700 l 1
 294 701 287 703 281 703 c 0
 240 703 187 678 187 630 c 0
 187 604 217 584 238 574 c 1
 286 603 343 631 401 631 c 0
 430 631 485 626 485 586 c 0
 485 533 405 518 364 518 c 0
EndSplineSet
Validated: 1
EndChar

StartChar: omicron
Encoding: 959 959 539
Width: 550
Flags: MW
LayerCount: 2
Fore
SplineSet
185 -13 m 0
 76 -13 -1 53 -1 165 c 0
 -1 327 144 474 306 474 c 0
 415 474 493 408 493 296 c 0
 493 133 348 -13 185 -13 c 0
351 385 m 0
 351 420 338 446 299 446 c 0
 226 446 202 353 188 297 c 0
 172 231 141 148 141 77 c 0
 141 43 153 16 192 16 c 0
 266 16 289 107 303 164 c 0
 319 230 351 314 351 385 c 0
EndSplineSet
Validated: 1
EndChar

StartChar: pi
Encoding: 960 960 540
Width: 605
Flags: MW
LayerCount: 2
Fore
SplineSet
607 498 m 1
 577 404 569 356 457 353 c 1
 446 307 385 94 385 67 c 0
 385 52 391 40 407 40 c 0
 450 40 474 122 485 155 c 1
 519 155 l 1
 489 62 455 -13 344 -13 c 0
 288 -13 257 17 257 73 c 0
 257 135 309 284 326 353 c 1
 211 353 l 1
 190 265 126 -13 12 -13 c 0
 -27 -13 -45 13 -45 49 c 0
 -45 77 -34 105 -26 131 c 1
 6 131 l 1
 3 121 2 111 2 101 c 0
 2 87 5 72 22 72 c 0
 104 72 160 288 176 353 c 1
 124 353 l 2
 88 353 72 344 57 310 c 1
 29 310 l 1
 69 439 97 474 237 474 c 0
 332 474 428 464 523 464 c 0
 548 464 571 473 579 498 c 1
 607 498 l 1
EndSplineSet
Validated: 1
EndChar

StartChar: rho
Encoding: 961 961 541
Width: 550
Flags: MW
LayerCount: 2
Fore
SplineSet
185 -13 m 0
 153 -13 120 -5 93 13 c 1
 36 -200 l 1
 -98 -200 l 1
 -2 168 l 1
 39 330 118 474 306 474 c 0
 414 474 488 410 488 299 c 0
 488 137 349 -13 185 -13 c 0
358 343 m 0
 358 390 346 446 288 446 c 0
 203 446 164 296 148 231 c 1
 103 52 l 1
 127 30 159 16 192 16 c 0
 304 16 358 256 358 343 c 0
EndSplineSet
Validated: 1
EndChar

StartChar: sigma1
Encoding: 962 962 542
Width: 440
Flags: MW
LayerCount: 2
Fore
SplineSet
455 490 m 1
 421 351 374 343 271 343 c 2
 225 343 l 2
 134 343 42 312 42 203 c 0
 42 148 92 142 136 142 c 0
 165 142 195 145 224 145 c 0
 287 145 332 115 332 48 c 0
 332 -88 186 -192 59 -192 c 0
 32 -192 -9 -184 -9 -150 c 0
 -9 -106 38 -95 73 -95 c 0
 110 -95 147 -102 184 -102 c 0
 225 -102 268 -75 268 -30 c 0
 268 -5 236 1 202 1 c 0
 172 1 142 -3 128 -3 c 0
 44 -3 -8 25 -8 117 c 0
 -8 256 90 461 249 461 c 0
 288 461 328 458 367 458 c 0
 391 458 419 462 426 490 c 1
 455 490 l 1
EndSplineSet
Validated: 1
EndChar

StartChar: sigma
Encoding: 963 963 543
Width: 550
Flags: MW
LayerCount: 2
Fore
SplineSet
463 268 m 0
 463 201 390 -13 170 -13 c 0
 64 -13 -6 42 -6 151 c 0
 -6 318 133 474 304 474 c 0
 354 474 402 464 452 464 c 0
 491 464 530 467 568 474 c 1
 543 374 l 1
 494 375 442 375 397 396 c 1
 394 394 l 1
 434 365 463 319 463 268 c 0
326 352 m 0
 326 386 316 417 277 417 c 0
 196 417 174 291 159 231 c 0
 147 183 132 134 132 84 c 0
 132 53 139 16 177 16 c 0
 268 16 326 278 326 352 c 0
EndSplineSet
Validated: 1
EndChar

StartChar: tau
Encoding: 964 964 544
Width: 440
Flags: MW
LayerCount: 2
Fore
SplineSet
460 499 m 1
 432 385 403 355 284 355 c 1
 270 301 214 110 214 67 c 0
 214 51 224 45 239 45 c 0
 282 45 312 118 322 153 c 1
 351 153 l 1
 328 60 268 -13 166 -13 c 0
 111 -13 74 12 74 70 c 0
 74 131 125 295 141 361 c 1
 105 361 l 2
 62 361 41 354 27 310 c 1
 -2 310 l 1
 27 413 60 474 177 474 c 0
 242 474 307 468 372 468 c 0
 395 468 425 471 431 499 c 1
 460 499 l 1
EndSplineSet
Validated: 1
EndChar

StartChar: upsilon
Encoding: 965 965 545
Width: 550
Flags: MW
LayerCount: 2
Fore
SplineSet
173 -13 m 0
 95 -13 40 26 40 108 c 0
 40 199 104 320 104 397 c 0
 104 406 101 417 89 417 c 0
 61 417 42 365 36 343 c 1
 7 343 l 1
 26 421 78 474 161 474 c 0
 220 474 249 445 249 386 c 0
 249 290 192 199 192 103 c 0
 192 67 207 45 245 45 c 0
 338 45 395 148 395 232 c 0
 395 284 371 332 371 383 c 0
 371 422 400 474 444 474 c 0
 485 474 496 444 496 408 c 0
 496 375 488 342 480 310 c 0
 441 159 352 -13 173 -13 c 0
EndSplineSet
Validated: 1
EndChar

StartChar: phi
Encoding: 966 966 546
Width: 660
Flags: MW
LayerCount: 2
Fore
SplineSet
347 -7 m 1
 296 -211 l 1
 162 -211 l 1
 212 -13 l 1
 94 -11 8 77 8 195 c 0
 8 311 109 474 237 474 c 0
 279 474 305 460 330 426 c 1
 302 400 l 1
 297 411 286 429 272 429 c 0
 194 429 140 170 140 105 c 0
 140 52 166 23 220 22 c 1
 277 248 l 2
 305 360 382 474 509 474 c 0
 585 474 613 417 613 349 c 0
 613 191 504 29 347 -7 c 1
575 337 m 0
 575 376 566 435 515 435 c 0
 462 435 441 370 431 328 c 2
 356 27 l 1
 487 58 575 208 575 337 c 0
EndSplineSet
Validated: 1
EndChar

StartChar: chi
Encoding: 967 967 547
Width: 495
Flags: MW
LayerCount: 2
Fore
SplineSet
514 461 m 1
 223 70 l 1
 228 33 229 -105 282 -105 c 0
 326 -105 349 -65 360 -28 c 1
 389 -28 l 1
 369 -94 338 -211 251 -211 c 0
 191 -211 189 -100 189 -59 c 0
 189 -28 192 4 193 35 c 1
 191 35 l 1
 28 -196 l 1
 -127 -196 l 1
 175 214 l 1
 168 260 165 368 100 368 c 0
 58 368 36 335 26 298 c 1
 -3 298 l 1
 13 359 50 474 128 474 c 0
 212 474 202 306 206 250 c 1
 358 461 l 1
 514 461 l 1
EndSplineSet
Validated: 1
EndChar

StartChar: psi
Encoding: 968 968 548
Width: 715
Flags: MW
LayerCount: 2
Fore
SplineSet
349 -13 m 1
 307 -211 l 1
 206 -211 l 1
 265 -13 l 1
 167 -11 52 28 52 145 c 0
 52 224 103 313 103 385 c 0
 103 397 100 411 86 411 c 0
 55 411 42 365 36 341 c 1
 7 341 l 1
 26 416 74 474 156 474 c 0
 215 474 253 453 253 390 c 0
 253 295 197 206 197 110 c 0
 197 57 222 25 275 16 c 1
 441 571 l 1
 469 571 l 1
 353 16 l 1
 457 37 550 156 550 261 c 0
 550 297 543 331 543 367 c 0
 543 409 559 474 612 474 c 0
 654 474 666 443 666 406 c 0
 666 386 663 366 658 346 c 0
 620 192 515 21 349 -13 c 1
EndSplineSet
Validated: 1
EndChar

StartChar: omega
Encoding: 969 969 549
Width: 715
Flags: MW
LayerCount: 2
Fore
SplineSet
408 -13 m 0
 330 -13 297 21 297 94 c 2
 297 104 l 1
 295 104 l 1
 259 29 213 -13 127 -13 c 0
 31 -13 -5 55 -5 143 c 0
 -5 321 105 474 294 474 c 1
 286 440 l 1
 221.001 439.999 194 371 181 318 c 0
 163 245 129 155 129 77 c 0
 129 53 135 22 166 22 c 0
 227 22 254 79 266 130 c 0
 285 209 243 392 368 392 c 0
 398 392 423 382 423 348 c 0
 423 273 332 178 332 79 c 0
 332 44 348 22 385 22 c 0
 441 22 468 117 479 160 c 0
 495 227 528 312 528 382 c 0
 528 417 513 440 476 440 c 2
 474 440 l 1
 482 474 l 1
 584 474 664 428 664 317 c 0
 664 182 561 -13 408 -13 c 0
EndSplineSet
EndChar

StartChar: uni03D0
Encoding: 976 976 555
Width: 550
Flags: MW
LayerCount: 2
Fore
SplineSet
164 492 m 1
 139 437 116 381 100 323 c 1
 102 323 l 1
 158 390 225 435 315 435 c 0
 408 435 484 384 484 284 c 0
 484 120 339 -13 179 -13 c 0
 63 -13 14 54 14 164 c 0
 14 388 189 727 442 727 c 0
 482 727 536 710 536 662 c 0
 536 532 260 493 164 492 c 1
449 648 m 0
 449 676 422 687 398 687 c 0
 313 687 218 590 180 521 c 1
 248 522 449 557 449 648 c 0
337 336 m 0
 337 373 323 400 282 400 c 0
 195 400 169 274 153 209 c 0
 143 167 130 125 130 82 c 0
 130 48 140 16 180 16 c 0
 271 16 295 142 312 210 c 0
 322 251 337 293 337 336 c 0
EndSplineSet
Validated: 1
EndChar

StartChar: theta1
Encoding: 977 977 556
Width: 605
Flags: MW
LayerCount: 2
Fore
SplineSet
587 329 m 1
 558 329 l 1
 562 345 567 362 567 378 c 0
 567 402 554 415 531 415 c 0
 528 415 l 1
 491 245 422 -13 204 -13 c 0
 119 -13 42 23 42 118 c 0
 42 193 90 281 90 347 c 0
 90 357 86 364 75 364 c 0
 47 364 28 312 22 290 c 1
 -7 290 l 1
 13 365 61 417 142 417 c 0
 203 417 232 388 232 328 c 0
 232 236 178 151 178 61 c 0
 178 35 187 16 216 16 c 0
 273 16 304 126 315 170 c 2
 376 415 l 1
 298 415 206 451 206 542 c 0
 206 644 301 727 400 727 c 0
 512 727 543 629 543 534 c 0
 543 504 540 474 535 444 c 1
 575 444 595 424 595 385 c 0
 595 366 591 347 587 329 c 1
388 698 m 0
 324 698 298 590 298 540 c 0
 298 484 324 444 384 444 c 1
 400 507 419 572 419 637 c 0
 419 658 417 698 388 698 c 0
EndSplineSet
Validated: 1
EndChar

StartChar: Upsilon1
Encoding: 978 978 557
Width: 722
Flags: MW
LayerCount: 2
Fore
SplineSet
306 452 m 0
 306 653 98 614 98 653 c 0
 98 669 138 670 148 670 c 0
 292 670 408 575 418 427 c 1
 459 543 568 676 702 676 c 0
 742 676 777 661 777 616 c 0
 777 569 742 519 691 519 c 0
 663 519 642 539 642 567 c 0
 642 608 674 639 713 639 c 0
 716 639 719 638 722 638 c 1
 715 643 706 644 698 644 c 0
 489 644 421 293 382 152 c 0
 375 127 364 94 364 68 c 0
 364 26 404 26 436 25 c 1
 436 0 l 1
 140 0 l 1
 140 25 l 1
 190 32 206 48 220 97 c 2
 291 352 l 2
 300 384 306 418 306 452 c 0
EndSplineSet
Validated: 1
EndChar

StartChar: uni03D3
Encoding: 979 979 558
Width: 901
Flags: MW
LayerCount: 2
Fore
SplineSet
136 467 m 1
 87 467 l 1
 209 598 l 2
 247.385 639.217 259.833 647.999 278.327 647.999 c 1
 277.457 649.516 277 651.173 277 653 c 0
 277 669 317 670 327 670 c 0
 471 670 587 575 597 427 c 1
 638 543 747 676 881 676 c 0
 921 676 956 661 956 616 c 0
 956 569 921 519 870 519 c 0
 842 519 821 539 821 567 c 0
 821 608 853 639 892 639 c 0
 895 639 898 638 901 638 c 1
 894 643 885 644 877 644 c 0
 668 644 600.223 292.938 561 152 c 0
 554.04 126.989 543 94 543 68 c 0
 543 26 583 26 615 25 c 1
 615 0 l 1
 319 0 l 1
 319 25 l 1
 369 32 385 48 399 97 c 2
 470 352 l 2
 478.916 384.023 485 418 485 452 c 0
 485 597.966 375.308 617.365 315.24 631.98 c 1
 322.27 624.433 327 614.152 327 601 c 0
 327 578 310.929 567.124 288 554 c 2
 136 467 l 1
EndSplineSet
EndChar

StartChar: phi1
Encoding: 981 981 560
Width: 660
Flags: MW
LayerCount: 2
Fore
SplineSet
279 -13 m 1
 236 -211 l 1
 144 -211 l 1
 201 -13 l 1
 97 -7 5 53 5 166 c 0
 5 338 180 468 341 474 c 1
 389 630 l 1
 418 630 l 1
 381 474 l 1
 492 470 594 403 594 283 c 0
 594 116 435 -4 279 -13 c 1
451 347 m 0
 451 398 433 442 376 446 c 1
 284 16 l 1
 396 28 451 253 451 347 c 0
332 446 m 1
 204 436 150 213 150 109 c 0
 150 67 161 21 210 16 c 1
 332 446 l 1
EndSplineSet
Validated: 1
EndChar

StartChar: afii10058
Encoding: 1033 1033 563
Width: 987
Flags: MW
LayerCount: 2
Fore
SplineSet
-30 33 m 0
 -30 49 -14 118 53 118 c 0
 103 118 84 66 117 66 c 0
 175 66 252 292 266 341 c 2
 329 573 l 2
 332 584 334 594 334 602 c 0
 334 629 314 639 264 644 c 1
 263 669 l 1
 868 669 l 1
 867 644 l 1
 785 634 775 632 755 559 c 2
 705 373 l 1
 839 372 872 369 912 351 c 0
 968 327 997 284 997 230 c 0
 997 86 848 0 679 0 c 2
 357 0 l 1
 359 25 l 1
 434 33 462 47 476 96 c 2
 620 622 l 1
 420 622 l 1
 343 341 l 2
 329 292 241 -14 49 -14 c 0
 14 -14 -30 -3 -30 33 c 0
624 78 m 2
 623 74 620 63 620 59 c 0
 620 43 635 35 662 35 c 0
 769 35 832 152 832 259 c 0
 832 329 778 338 695 338 c 1
 624 78 l 2
EndSplineSet
Validated: 1
EndChar

StartChar: afii10059
Encoding: 1034 1034 564
Width: 913
Flags: MW
LayerCount: 2
Fore
SplineSet
574 607 m 0
 574 635 554 636 501 644 c 1
 501 669 l 1
 797 669 l 1
 796 644 l 1
 714 634 704 632 684 559 c 2
 634 373 l 1
 768 372 801 369 841 351 c 0
 897 327 926 284 926 230 c 0
 926 86 777 0 608 0 c 2
 338 0 l 1
 340 25 l 1
 407 29 427 43 441 97 c 2
 505 329 l 1
 266 329 l 1
 216 148 l 2
 212 126 199 94 199 68 c 0
 199 36 209 30 272 25 c 1
 272 0 l 1
 -24 0 l 1
 -24 25 l 1
 26 32 40 45 56 97 c 2
 178 546 l 2
 185 572 189 593 189 604 c 0
 189 634 168 637 116 644 c 1
 116 669 l 1
 433 669 l 1
 433 644 l 1
 368 642 348 627 332 572 c 2
 278 373 l 1
 517 373 l 1
 564 546 l 2
 569 564 574 595 574 607 c 0
553 78 m 2
 552 74 549 63 549 59 c 0
 549 43 564 35 591 35 c 0
 698 35 761 152 761 259 c 0
 761 329 707 338 624 338 c 1
 553 78 l 2
EndSplineSet
Validated: 1
EndChar

StartChar: afii10060
Encoding: 1035 1035 565
Width: 829
Flags: MW
LayerCount: 2
Fore
SplineSet
381 388 m 1
 412 405 471 430 535 430 c 0
 636 430 771 411 771 347 c 0
 771 343 770 339 769 334 c 2
 704 96 l 2
 701 85 699 75 699 67 c 0
 699 40 719 30 770 25 c 1
 769 0 l 1
 432 0 l 1
 433 25 l 1
 504 30 528 46 542 96 c 2
 607 336 l 2
 607 338 608 339 608 341 c 0
 608 363 562 376 502 376 c 0
 445 376 387 343 365 331 c 1
 309 128 l 2
 302 102 298 81 298 66 c 0
 298 34 311 28 381 25 c 1
 381 0 l 1
 50 0 l 1
 50 25 l 1
 64 25 l 2
 115 25 141 46 155 97 c 2
 303 634 l 1
 201 632 138 591 86 491 c 1
 61 498 l 1
 99 669 l 1
 650 669 l 1
 614 477 l 1
 587 479 l 1
 582 590 543 633 449 634 c 1
 381 388 l 1
EndSplineSet
Validated: 1
EndChar

StartChar: afii10145
Encoding: 1039 1039 569
Width: 774
Flags: MW
LayerCount: 2
Fore
SplineSet
255 0 m 1
 -24 0 l 1
 -24 25 l 1
 46 30 70 46 84 96 c 2
 214 573 l 2
 218 586 220 596 220 605 c 0
 220 629 203 637 152 644 c 1
 152 669 l 1
 492 669 l 1
 492 644 l 1
 416 636 390 622 376 573 c 2
 232 47 l 1
 473 47 l 1
 617 573 l 2
 621 586 623 596 623 604 c 0
 623 629 605 638 553 644 c 1
 553 669 l 1
 890 669 l 1
 890 644 l 1
 817 635 793 622 779 573 c 2
 649 96 l 2
 646 85 644 75 644 67 c 0
 644 40 664 30 714 25 c 1
 714 0 l 1
 433 0 l 1
 389 -68 337 -228 337 -228 c 1
 231 -228 l 1
 231 -228 257 -110 257 -34 c 0
 257 -21 257 -10 255 0 c 1
EndSplineSet
Validated: 1
EndChar

StartChar: afii10018
Encoding: 1041 1041 571
Width: 655
Flags: MW
LayerCount: 2
Fore
SplineSet
285 32 m 0
 393 32 459 140 459 258 c 0
 459 327 425 374 349 374 c 2
 319 374 l 1
 241 93 l 1
 238 82 236 73 236 65 c 0
 236 42 252 32 285 32 c 0
639 502 m 0
 639 595 604 635 454 635 c 0
 403 635 386 625 376 588 c 2
 327 404 l 1
 585 403 630 351 630 257 c 0
 630 103 494 0 289 0 c 2
 -33 0 l 1
 -33 25 l 1
 42 33 67 45 81 96 c 2
 211 573 l 2
 214 585 216 594 216 603 c 0
 216 631 196 641 143 644 c 1
 143 669 l 1
 717 669 l 1
 662 468 l 1
 638 468 l 1
 639 481 639 492 639 502 c 0
EndSplineSet
EndChar

StartChar: afii10020
Encoding: 1043 1043 573
Width: 532
Flags: MW
LayerCount: 2
Fore
SplineSet
606 484 m 1
 606 577 582 637 429 637 c 0
 389 637 376 628 366 593 c 0
 242 137 l 2
 239 132 227 84 227 69 c 0
 227 38 242 29 298 25 c 1
 298 0 l 1
 3 0 l 1
 3 25 l 1
 55 33 68 44 83 97 c 0
 206 546 l 2
 212 568 216 592 216 606 c 0
 216 636 193 637 143 644 c 1
 143 669 l 1
 676 669 l 1
 633 479 l 1
 606 484 l 1
EndSplineSet
EndChar

StartChar: afii10021
Encoding: 1044 1044 574
Width: 770
Flags: MW
LayerCount: 2
Fore
SplineSet
224 0 m 2
 6 0 -22 -110 -50 -167 c 1
 -74 -167 l 1
 -19 34 l 1
 50 39 77 28 126 66 c 0
 223 141 263 292 276 341 c 2
 339 573 l 1
 342 584 344 594 344 602 c 0
 344 629 324 639 273 644 c 1
 273 669 l 1
 885 669 l 1
 885 644 l 1
 816 639 792 623 778 573 c 0
 650 105 l 1
 647 94 645 85 645 77 c 0
 645 49 667 38 719 34 c 1
 664 -167 l 1
 640 -167 l 1
 641 -154 641 -143 641 -133 c 0
 641 -40 606 0 456 0 c 2
 224 0 l 2
231 47 m 2
 386 47 l 2
 452 47 479 70 492 118 c 0
 629 622 l 1
 429 622 l 1
 353 341 l 2
 345 311 308 185 238 92 c 0
 226 76 216 64 216 56 c 0
 216 50 220 47 231 47 c 2
EndSplineSet
Validated: 1
EndChar

StartChar: afii10022
Encoding: 1045 1045 575
Width: 657
Flags: MW
LayerCount: 2
Fore
SplineSet
286 32 m 0
 458 32 534 106 591 199 c 1
 616 194 l 1
 557 0 l 1
 3 0 l 1
 3 25 l 1
 55 33 68 44 83 97 c 0
 206 546 l 2
 212 568 216 591 216 606 c 0
 216 635 191 637 143 644 c 1
 143 669 l 1
 683 669 l 1
 640 479 l 1
 613 484 l 1
 613 573 596 637 429 637 c 0
 388 637 376 628 366 593 c 0
 305 370 l 1
 318 370 l 2
 439 370 465 385 510 476 c 1
 538 472 l 1
 464 199 l 1
 436 204 l 1
 439 223 440 234 440 248 c 0
 440 317 410 336 296 338 c 1
 240 129 l 2
 239 125 225 75 225 66 c 0
 225 42 243 32 286 32 c 0
EndSplineSet
EndChar

StartChar: afii10024
Encoding: 1046 1046 576
Width: 1074
Flags: MW
LayerCount: 2
Fore
SplineSet
411 591 m 0
 411 578 407 563 407 532 c 0
 407 438 450 374 487 372 c 2
 516 371 l 1
 565 550 l 1
 570 569 573 585 573 597 c 0
 573 630 553 641 503 644 c 1
 503 669 l 1
 841 669 l 1
 841 644 l 1
 766 639 746 623 727 552 c 0
 678 371 l 1
 707 372 l 2
 751 374 849 460 896 578 c 0
 916 626 983 685 1052 685 c 0
 1086 685 1132 675 1132 634 c 0
 1132 601 1115 556 1049 556 c 0
 982 556 1009 583 966 583 c 0
 934 583 897 418 787 352 c 1
 818 349 870 329 886 286 c 0
 978 46 l 1
 987 31 989 26 1014 25 c 1
 1014 0 l 1
 816 0 l 1
 729 254 l 1
 711 292 710 318 682 318 c 2
 663 318 l 1
 603 96 l 1
 599 83 597 72 597 63 c 0
 597 40 614 32 664 25 c 1
 664 0 l 1
 327 0 l 1
 327 25 l 1
 401 33 427 45 441 96 c 2
 501 318 l 1
 482 318 l 2
 454 318 437 294 401 254 c 0
 174 0 l 1
 -24 0 l 1
 -24 25 l 1
 1 26 23 29 38 46 c 0
 262 286 l 2
 302 328 363 349 397 352 c 1
 360 385 355 443 355 492 c 0
 355 512 356 530 356 545 c 0
 356 568 354 583 344 583 c 0
 301 583 313 556 245 556 c 0
 215 556 195 563 195 592 c 0
 195 647 242 685 314 685 c 0
 376 685 411 636 411 591 c 0
EndSplineSet
Validated: 1
EndChar

StartChar: afii10025
Encoding: 1047 1047 577
Width: 581
Flags: MW
LayerCount: 2
Fore
SplineSet
236 658 m 0
 269 658 331 691 396 691 c 0
 512 691 602 639 602 544 c 0
 602 425 505 362 468 358 c 1
 504 347 552 321 553 246 c 0
 553 54 360 -19 195 -19 c 0
 41 -19 16 68 -2 135 c 1
 45 168 l 1
 71 102 110 55 190 55 c 0
 292 55 378 115 378 234 c 0
 378 278 356 325 259 325 c 2
 201 325 l 1
 217 383 l 1
 296 383 l 2
 381 383 446 461 446 557 c 0
 446 606 417 642 355 642 c 0
 261 642 205 575 155 475 c 1
 118 475 l 1
 176 688 l 1
 209 688 l 1
 211 666 218 658 236 658 c 0
EndSplineSet
EndChar

StartChar: afii10026
Encoding: 1048 1048 578
Width: 759
Flags: MW
LayerCount: 2
Fore
SplineSet
573 456 m 1
 256 176 l 1
 234 96 l 1
 230 83 228 73 228 64 c 0
 228 40 245 31 297 25 c 1
 298 0 l 1
 -39 0 l 1
 -40 25 l 1
 33 34 59 47 72 96 c 0
 202 573 l 1
 205 584 207 594 207 602 c 0
 207 629 187 639 137 644 c 1
 137 669 l 1
 474 669 l 1
 474 644 l 1
 402 639 380 630 366 580 c 0
 274 243 l 1
 592 523 l 1
 605 573 l 1
 608 584 610 593 610 601 c 0
 610 629 588 640 535 644 c 1
 535 669 l 1
 875 669 l 1
 875 644 l 1
 805 639 781 623 767 573 c 0
 637 96 l 1
 633 83 631 72 631 63 c 0
 631 40 648 32 698 25 c 1
 699 0 l 1
 359 0 l 1
 358 25 l 1
 434 33 462 47 475 96 c 0
 573 456 l 1
EndSplineSet
EndChar

StartChar: afii10028
Encoding: 1050 1050 580
Width: 707
Flags: MW
LayerCount: 2
Fore
SplineSet
787 634 m 0
 787 601 770 556 704 556 c 0
 637 556 664 583 621 583 c 0
 589 583 552 418 442 352 c 1
 473 349 525 329 541 286 c 0
 633 46 l 1
 642 31 644 26 669 25 c 1
 669 0 l 1
 471 0 l 1
 381 254 l 1
 363 292 358 318 330 318 c 2
 303 318 l 1
 243 96 l 1
 239 83 237 72 237 63 c 0
 237 40 254 32 304 25 c 1
 304 0 l 1
 -33 0 l 1
 -33 25 l 1
 41 33 67 45 81 96 c 2
 211 573 l 2
 214 585 216 595 216 603 c 0
 216 631 196 641 143 644 c 1
 143 669 l 1
 481 669 l 1
 481 644 l 1
 406 639 386 623 367 552 c 0
 318 371 l 1
 355 372 l 2
 399 373 504 460 551 578 c 0
 571 626 638 685 707 685 c 0
 741 685 787 675 787 634 c 0
EndSplineSet
EndChar

StartChar: afii10029
Encoding: 1051 1051 581
Width: 760
Flags: MW
LayerCount: 2
Fore
SplineSet
-30 33 m 0
 -30 49 -14 118 53 118 c 0
 103 118 84 66 117 66 c 0
 175 66 253 292 266 341 c 0
 329 573 l 1
 332 584 334 594 334 602 c 0
 334 629 314 639 264 644 c 1
 263 669 l 1
 875 669 l 1
 876 644 l 1
 806 639 782 623 768 573 c 0
 638 96 l 1
 634 83 632 72 632 63 c 0
 632 40 649 32 699 25 c 1
 699 0 l 1
 359 0 l 1
 359 25 l 1
 434 33 463 47 476 96 c 0
 620 622 l 1
 420 622 l 1
 343 341 l 1
 329 292 241 -14 49 -14 c 0
 14 -14 -30 -3 -30 33 c 0
EndSplineSet
Validated: 1
EndChar

StartChar: afii10033
Encoding: 1055 1055 585
Width: 765
Flags: MW
LayerCount: 2
Fore
SplineSet
625 622 m 1
 384 622 l 1
 240 96 l 1
 236 83 234 73 234 65 c 0
 234 40 252 31 304 25 c 1
 304 0 l 1
 -33 0 l 1
 -33 25 l 1
 40 34 65 47 78 96 c 0
 208 573 l 1
 211 584 213 594 213 602 c 0
 213 629 193 639 143 644 c 1
 143 669 l 1
 881 669 l 1
 881 644 l 1
 811 639 787 623 773 573 c 0
 643 96 l 1
 639 83 637 73 637 64 c 0
 637 40 654 32 705 25 c 1
 705 0 l 1
 365 0 l 1
 365 25 l 1
 441 33 468 47 481 96 c 0
 625 622 l 1
EndSplineSet
EndChar

StartChar: afii10034
Encoding: 1056 1056 586
Width: 578
Flags: MW
LayerCount: 2
Fore
SplineSet
216 606 m 0
 216 636 193 637 143 644 c 1
 143 669 l 1
 430 669 l 2
 569 669 643 615 643 514 c 0
 643 394 536 317 370 317 c 0
 344 317 325 318 289 322 c 1
 235 123 l 1
 231 107 225 74 225 64 c 0
 225 37 241 28 297 25 c 1
 297 0 l 1
 3 0 l 1
 3 25 l 1
 55 33 68 44 83 97 c 0
 206 546 l 2
 212 568 216 592 216 606 c 0
413 637 m 0
 371 637 369 613 363 593 c 2
 299 354 l 1
 316 353 327 352 341 352 c 0
 411 352 448 375 474 434 c 0
 488 465 497 511 497 546 c 0
 497 604 466 637 413 637 c 0
EndSplineSet
EndChar

StartChar: afii10037
Encoding: 1059 1059 589
Width: 627
Flags: MW
LayerCount: 2
Fore
SplineSet
608 618 m 0
 608 641 577 640 540 644 c 1
 540 669 l 1
 793 669 l 1
 793 644 l 1
 717 637 689 610 598 492 c 0
 245 34 l 2
 218 0 160 -14 98 -14 c 0
 29 -14 7 3 7 31 c 0
 7 49 24 120 93 120 c 0
 137 120 143 102 143 83 c 0
 143 76 142 69 142 63 c 0
 142 53 144 45 158 45 c 0
 176 45 237 96.0049 237 122 c 9
 171 586 l 2
 164 636 142 641 107 644 c 1
 107 669 l 1
 427 669 l 1
 427 644 l 1
 413 643 401 642 396 642 c 0
 359 640 345 632 339 611 c 1
 384 289 l 1
 541 495 l 2
 590 554 608 594 608 618 c 0
EndSplineSet
EndChar

StartChar: afii10038
Encoding: 1060 1060 590
Width: 847
Flags: MW
LayerCount: 2
Fore
SplineSet
412 522 m 1
 358 522 186 468 186 258 c 0
 186 161 256 145 305 145 c 2
 309 145 l 1
 412 522 l 1
839 410 m 0
 839 342 781 91 454 91 c 1
 451 80 449 71 449 63 c 0
 449 38 467 29 524 25 c 1
 525 0 l 1
 175 0 l 1
 174 25 l 1
 252 30 282 44 294 91 c 1
 199 91 46 118 46 268 c 0
 46 537 345 585 430 585 c 1
 432 594 433 601 433 607 c 0
 433 635 410 642 351 644 c 1
 351 669 l 1
 702 669 l 1
 701 644 l 1
 626 641 602 632 590 585 c 1
 626 585 839 572 839 410 c 0
473 145 m 0
 651 145 695 343 695 401 c 0
 695 501 609 522 572 522 c 1
 469 145 l 1
 470 145 472 145 473 145 c 0
EndSplineSet
EndChar

StartChar: afii10040
Encoding: 1062 1062 592
Width: 766
Flags: MW
LayerCount: 2
Fore
SplineSet
637 -133 m 0
 637 -40 602 0 452 0 c 2
 -33 0 l 1
 -33 25 l 1
 36 31 65 46 79 96 c 0
 209 573 l 1
 212 584 214 594 214 602 c 0
 214 628 195 637 143 644 c 1
 143 669 l 1
 480 669 l 1
 480 644 l 1
 405 636 384 622 371 573 c 0
 227 47 l 1
 468 47 l 1
 612 573 l 1
 615 584 616 593 616 601 c 0
 616 628 596 638 541 644 c 1
 541 669 l 1
 881 669 l 1
 881 644 l 1
 807 635 787 622 774 573 c 0
 646 105 l 1
 643 94 641 85 641 77 c 0
 641 49 663 38 715 34 c 1
 660 -167 l 1
 636 -167 l 1
 637 -154 637 -143 637 -133 c 0
EndSplineSet
EndChar

StartChar: afii10041
Encoding: 1063 1063 593
Width: 765
Flags: MW
LayerCount: 2
Fore
SplineSet
531 281 m 1
 500 264 441 239 377 239 c 0
 276 239 141 258 141 322 c 0
 141 326 142 330 143 335 c 2
 208 573 l 1
 211 584 213 594 213 602 c 0
 213 629 193 639 142 644 c 1
 143 669 l 1
 480 669 l 1
 479 644 l 1
 408 639 384 623 370 573 c 0
 305 333 l 2
 305 331 304 330 304 328 c 0
 304 306 350 293 410 293 c 0
 467 293 525 326 547 338 c 1
 611 573 l 1
 614 584 616 593 616 601 c 0
 616 629 594 640 540 644 c 1
 541 669 l 1
 881 669 l 1
 880 644 l 1
 811 639 787 623 773 573 c 0
 643 96 l 1
 639 83 637 73 637 64 c 0
 637 40 654 32 705 25 c 1
 705 0 l 1
 365 0 l 1
 365 25 l 1
 441 33 468 47 481 96 c 0
 531 281 l 1
EndSplineSet
EndChar

StartChar: afii10042
Encoding: 1064 1064 594
Width: 1105
Flags: MW
LayerCount: 2
Fore
SplineSet
599 47 m 1
 807 47 l 1
 951 573 l 1
 954 584 955 593 955 601 c 0
 955 628 935 638 880 644 c 1
 881 669 l 1
 1221 669 l 1
 1220 644 l 1
 1146 635 1126 622 1113 573 c 0
 983 96 l 1
 980 84 978 73 978 65 c 0
 978 39 996 29 1045 25 c 1
 1045 0 l 1
 -32 0 l 1
 -32 25 l 1
 37 31 65 46 79 96 c 0
 209 573 l 1
 212 584 214 594 214 602 c 0
 214 628 195 637 143 644 c 1
 144 669 l 1
 481 669 l 1
 480 644 l 1
 405 636 384 622 371 573 c 0
 227 47 l 1
 437 47 l 1
 581 573 l 1
 584 584 585 593 585 601 c 0
 585 628 565 638 510 644 c 1
 511 669 l 1
 851 669 l 1
 850 644 l 1
 776 635 756 622 743 573 c 0
 599 47 l 1
EndSplineSet
EndChar

StartChar: afii10043
Encoding: 1065 1065 595
Width: 1104
Flags: MW
LayerCount: 2
Fore
SplineSet
975 -133 m 0
 975 -40 940 0 790 0 c 2
 -34 0 l 1
 -33 25 l 1
 36 31 64 46 78 96 c 0
 208 573 l 1
 211 584 213 594 213 602 c 0
 213 628 194 637 142 644 c 1
 143 669 l 1
 480 669 l 1
 479 644 l 1
 404 636 383 622 370 573 c 0
 226 47 l 1
 436 47 l 1
 580 573 l 1
 583 584 584 593 584 601 c 0
 584 628 564 638 509 644 c 1
 510 669 l 1
 850 669 l 1
 849 644 l 1
 775 635 755 622 742 573 c 0
 598 47 l 1
 806 47 l 1
 950 573 l 1
 953 584 954 593 954 601 c 0
 954 628 934 638 879 644 c 1
 880 669 l 1
 1220 669 l 1
 1219 644 l 1
 1145 635 1125 622 1112 573 c 0
 984 105 l 1
 981 94 979 85 979 77 c 0
 979 49 1001 38 1053 34 c 1
 998 -167 l 1
 974 -167 l 1
 975 -154 975 -143 975 -133 c 0
EndSplineSet
EndChar

StartChar: afii10044
Encoding: 1066 1066 596
Width: 775
Flags: MW
LayerCount: 2
Fore
SplineSet
750 238 m 0
 750 149 686 0 431 0 c 2
 109 0 l 1
 108 25 l 1
 180 31 206 47 225 117 c 0
 367 637 l 1
 242 633 177 587 128 468 c 1
 99 468 l 1
 157 669 l 1
 620 669 l 1
 619 644 l 1
 537 634 526 632 507 559 c 0
 463 392 l 1
 597 391 630 388 670 370 c 0
 724 347 750 295 750 238 c 0
374 70 m 1
 373 66 372 63 372 59 c 0
 372 43 387 35 414 35 c 0
 497 35 542 79 572 187 c 0
 581 221 587 253 587 280 c 0
 587 342 557 357 453 357 c 1
 374 70 l 1
EndSplineSet
EndChar

StartChar: afii10045
Encoding: 1067 1067 597
Width: 966
Flags: MW
LayerCount: 2
Fore
SplineSet
613 238 m 0
 613 149 549 0 294 0 c 2
 -28 0 l 1
 -28 25 l 1
 44 31 70 47 88 117 c 0
 202 553 l 2
 207 573 210 588 210 600 c 0
 210 626 197 637 166 641 c 0
 163 641 154 643 143 645 c 1
 143 670 l 1
 483 669 l 1
 482 644 l 1
 400 634 389 632 370 559 c 0
 326 392 l 1
 460 391 493 388 533 370 c 0
 587 347 613 295 613 238 c 0
237 70 m 1
 236 66 235 63 235 59 c 0
 235 43 250 35 277 35 c 0
 360 35 405 79 435 187 c 0
 444 221 450 253 450 280 c 0
 450 342 420 357 316 357 c 1
 237 70 l 1
675 96 m 2
 801 574 l 1
 804 584 805 593 805 601 c 0
 805 631 783 641 727 645 c 1
 727 670 l 1
 1077 670 l 1
 1077 645 l 1
 1002 642 977 626 963 574 c 0
 837 96 l 1
 833 83 831 72 831 63 c 0
 831 37 850 29 905 25 c 1
 906 0 l 1
 556 0 l 1
 555 25 l 1
 632 32 662 46 675 96 c 2
EndSplineSet
EndChar

StartChar: afii10046
Encoding: 1068 1068 598
Width: 626
Flags: MW
LayerCount: 2
Fore
SplineSet
601 238 m 0
 601 149 537 0 282 0 c 2
 -40 0 l 1
 -40 25 l 1
 32 31 57 47 76 117 c 0
 195 552 l 2
 200 572 203 587 203 599 c 0
 203 625 190 636 159 640 c 0
 156 640 146 642 136 644 c 1
 137 669 l 1
 471 669 l 1
 470 644 l 1
 388 634 377 632 358 559 c 0
 314 392 l 1
 448 391 481 388 521 370 c 0
 575 347 601 295 601 238 c 0
225 70 m 1
 224 66 223 63 223 59 c 0
 223 43 238 35 265 35 c 0
 348 35 393 79 423 187 c 0
 432 221 438 253 438 280 c 0
 438 342 408 357 304 357 c 1
 225 70 l 1
EndSplineSet
EndChar

StartChar: afii10047
Encoding: 1069 1069 599
Width: 685
Flags: MW
LayerCount: 2
Fore
SplineSet
29 152 m 1
 54 115 107 29 225 29 c 0
 282 29 429 47 508 326 c 1
 256 326 l 1
 269 373 l 1
 520 373 l 1
 532 424 539 469 539 507 c 0
 539 606 496 658 414 658 c 0
 305 658 204 562 124 454 c 1
 99 454 l 1
 163 688 l 1
 190 688 l 1
 195 653 203 642 222 642 c 0
 262 642 332 691 436 691 c 0
 599 691 701 587 701 437 c 0
 701 404 696 369 686 333 c 0
 630 127 443 -19 236 -19 c 0
 99 -19 43 44 -8 127 c 1
 29 152 l 1
EndSplineSet
Validated: 1
EndChar

StartChar: afii10048
Encoding: 1070 1070 600
Width: 1043
Flags: MW
LayerCount: 2
Fore
SplineSet
1077 454 m 0
 1077 250 906 -18 649 -18 c 0
 508 -18 413 78 413 221 c 0
 413 255 419 291 429 326 c 1
 303 326 l 1
 240 96 l 1
 237 83 235 73 235 64 c 0
 235 40 251 31 304 25 c 1
 304 0 l 1
 -33 0 l 1
 -33 25 l 1
 39 34 65 47 78 96 c 0
 209 573 l 2
 212 584 214 594 214 602 c 0
 214 629 194 639 143 644 c 1
 143 669 l 1
 480 669 l 1
 480 644 l 1
 409 639 385 623 371 573 c 2
 316 373 l 1
 444 373 l 1
 474 451 600 685 835 685 c 0
 974 685 1077 587 1077 454 c 0
831 651 m 0
 767 651 714 610 663 520 c 0
 608 424 557 239 557 137 c 0
 557 63 596 16 659 16 c 0
 713 16 758 46 804 113 c 0
 871 211 933 411 933 531 c 0
 933 603 892 651 831 651 c 0
EndSplineSet
EndChar

StartChar: afii10049
Encoding: 1071 1071 601
Width: 726
Flags: MW
LayerCount: 2
Fore
SplineSet
190 445 m 0
 190 532 257 669 527 669 c 2
 842 669 l 1
 842 644 l 1
 766 639 749 624 729 552 c 0
 610 117 l 2
 603 92 599 75 599 62 c 0
 599 37 616 31 665 25 c 1
 666 0 l 1
 328 0 l 1
 327 25 l 1
 408 35 429 46 448 117 c 0
 499 306 l 1
 472 306 l 1
 182 0 l 1
 -23 0 l 1
 -24 25 l 1
 -6 25 17 30 30 44 c 0
 307 322 l 1
 250 342 190 367 190 445 c 0
579 609 m 0
 579 624 576 635 535 635 c 0
 443 635 394 592 366 487 c 0
 359 462 355 440 355 422 c 0
 355 357 393 340 508 338 c 1
 578 593 l 1
 579 596 579 603 579 609 c 0
EndSplineSet
Validated: 1
EndChar

StartChar: afii10066
Encoding: 1073 1073 603
Width: 486
Flags: MW
LayerCount: 2
Fore
SplineSet
499 304 m 0
 499 169 378 -14 197 -14 c 0
 100 -14 35 27 35 144 c 0
 35 250 137 647 343 672 c 2
 524 673 l 2
 550 673 572 690 572 690 c 1
 594 690 l 1
 569 626 500 587 452 587 c 2
 304 587 l 2
 222 587 176 464 139 394 c 1
 194 443 262 473 330 473 c 0
 435 473 499 404 499 304 c 0
322 442 m 0
 260 442 228 390 180 214 c 0
 163 152 154 108 154 77 c 0
 154 34 171 17 205 17 c 0
 263 17 297 69 340 223 c 0
 360 296 370 348 370 382 c 0
 370 425 354 442 322 442 c 0
EndSplineSet
EndChar

StartChar: afii10067
Encoding: 1074 1074 604
Width: 440
Flags: MW
LayerCount: 2
Fore
SplineSet
318 232 m 1
 372 231 410 199 410 130 c 0
 410 51 298 -13 178 -13 c 0
 31 -13 27 43 27 119 c 0
 27 134 l 0
 27 299 171 462 315 462 c 0
 376 462 409 426 409 375 c 0
 409 340 382 256 318 232 c 1
159 183 m 1
 151 165 145 141 145 125 c 0
 145 55 163 35 197 35 c 0
 272 35 324 91 324 138 c 0
 324 173 296 203 229 203 c 0
 210 203 180 193 159 183 c 1
173 229 m 1
 279 248 346 323 346 390 c 0
 346 412 318 419 299 419 c 0
 269 419 223 353 173 229 c 1
EndSplineSet
EndChar

StartChar: afii10068
Encoding: 1075 1075 605
Width: 339
Flags: MW
LayerCount: 2
Fore
SplineSet
66 326 m 1
 94 366 153 462 264 462 c 0
 323 462 356 435 356 391 c 0
 356 309 274 239 191 175 c 0
 155 147 118 122 118 81 c 0
 118 63 130 51 153 51 c 0
 196 51 227 74 275 141 c 1
 303 123 l 1
 275 83 216 -13 105 -13 c 0
 41 -13 3 20 3 69 c 0
 3 157 127 248 166 278 c 0
 219 320 246 327 246 370 c 0
 246 386 238 398 216 398 c 0
 173 398 142 375 94 308 c 1
 66 326 l 1
EndSplineSet
EndChar

StartChar: afii10069
Encoding: 1076 1076 606
Width: 511
Flags: MW
LayerCount: 2
Fore
SplineSet
26 155 m 0
 26 290 147 473 328 473 c 0
 396 473 429 461 456 412 c 1
 462 439 469 473 469 504 c 0
 469 554 451 597 382 597 c 0
 319 597 292 577 234 537 c 1
 203 584 l 1
 275 644 333 675 447 675 c 0
 522 675 543 610 543 534 c 0
 543 441 511 331 502 296 c 0
 438 60 326 -14 195 -14 c 0
 90 -14 26 55 26 155 c 0
318 442 m 0
 260 442 226 387 182 223 c 0
 163 156 154 109 154 76 c 0
 154 34 170 17 203 17 c 0
 262 17 296 68 336 214 c 0
 358 293 369 347 369 383 c 0
 369 426 352 442 318 442 c 0
EndSplineSet
EndChar

StartChar: afii10072
Encoding: 1078 1078 608
Width: 995
Flags: MW
LayerCount: 2
Fore
SplineSet
963 123 m 1
 935 83 876 -13 765 -13 c 0
 675 -13 612 49 612 138 c 0
 612 157 614 175 618 194 c 1
 563 194 l 1
 508 0 l 1
 389 0 l 1
 445 194 l 1
 385 194 l 1
 338 80 231 -13 125 -13 c 0
 59 -13 13 24 13 77 c 0
 13 118 39 147 75 147 c 0
 108 147 133 125 133 95 c 0
 133 69 112 49 112 37 c 0
 112 27 122 20 134 20 c 0
 233 20 282 250 282 308 c 0
 282 362 252 398 209 398 c 0
 166 398 135 375 87 308 c 1
 59 326 l 1
 87 366 146 462 257 462 c 0
 347 462 410 400 410 311 c 0
 410 288 406 265 400 242 c 1
 455 242 l 1
 516 449 l 1
 639 449 l 1
 575 242 l 1
 631 242 l 1
 674 363 786 462 897 462 c 0
 963 462 1009 425 1009 372 c 0
 1009 331 983 302 947 302 c 0
 914 302 889 324 889 354 c 0
 889 380 910 400 910 412 c 0
 910 422 900 429 888 429 c 0
 789 429 740 200 740 141 c 0
 740 87 770 51 813 51 c 0
 856 51 887 74 935 141 c 1
 963 123 l 1
EndSplineSet
EndChar

StartChar: afii10073
Encoding: 1079 1079 609
Width: 425
Flags: MW
LayerCount: 2
Fore
SplineSet
158 451 m 0
 182 451 223 473 267 473 c 0
 347 473 412 437 412 372 c 0
 412 299 354 251 325 243 c 1
 349 236 378 219 378 170 c 0
 378 30 243 -14 128 -14 c 0
 23 -14 7 45 -6 91 c 1
 26 113 l 1
 44 68 71 36 125 36 c 0
 192 36 253 76 253 157 c 0
 253 188 239 220 172 220 c 2
 132 220 l 1
 143 260 l 1
 185 260 l 2
 257 260 301 309 301 382 c 0
 301 415 282 440 239 440 c 0
 175 440 137 394 102 326 c 1
 77 326 l 1
 117 471 l 1
 139 471 l 1
 141 456 146 451 158 451 c 0
EndSplineSet
EndChar

StartChar: afii10076
Encoding: 1082 1082 612
Width: 483
Flags: MW
LayerCount: 2
Fore
SplineSet
241 261 m 2
 314 261 338 470 476 470 c 0
 532 470 537 447 537 410 c 0
 537 380 509 361 478 361 c 0
 436 361 450 396 424 396 c 0
 387 396 365 271 303 243 c 1
 332 242 367 228 377 200 c 0
 435 39 l 2
 440 26 449 24 460 24 c 1
 454 0 l 1
 306 0 l 1
 250 168 l 1
 250 168 238 214 217 214 c 2
 207 214 l 1
 149 0 l 1
 30 0 l 1
 122 328 l 2
 129 354 133 367 133 376 c 0
 133 400 119 406 78 407 c 1
 78 434 l 1
 134 436 212 447 276 461 c 1
 220 261 l 1
 241 261 l 2
EndSplineSet
EndChar

StartChar: afii10077
Encoding: 1083 1083 613
Width: 535
Flags: MW
LayerCount: 2
Fore
SplineSet
-30 23 m 0
 -30 35 -18 82 27 82 c 0
 57 82 55 55 78 55 c 0
 131 55 153 167 166 209 c 0
 194 298 l 1
 220 388 291 449 418 449 c 2
 538 449 l 1
 457 163 l 1
 457 163 432 86 432 76 c 0
 432 66 438 59 446 59 c 0
 463 59 476 73 516 135 c 1
 538 122 l 1
 480 25 438 -9 379 -9 c 0
 337 -9 311 14 311 51 c 0
 311 77 314 83 328 132 c 2
 405 400 l 1
 259 399 237 250 225 206 c 0
 193 92 179 -10 29 -10 c 0
 3 -10 -30 -2 -30 23 c 0
EndSplineSet
EndChar

StartChar: afii10078
Encoding: 1084 1084 614
Width: 757
Flags: MW
LayerCount: 2
Fore
SplineSet
-30 23 m 0
 -30 35 -18 82 27 82 c 0
 57 82 55 55 78 55 c 0
 131 55 153 167 166 209 c 0
 194 298 l 1
 220 388 271 449 398 449 c 2
 432 449 l 1
 440 182 l 1
 607 449 l 1
 760 449 l 1
 679 163 l 1
 679 163 654 86 654 76 c 0
 654 66 660 59 668 59 c 0
 685 59 698 73 738 135 c 1
 760 122 l 1
 702 25 660 -9 601 -9 c 0
 559 -9 533 14 533 51 c 0
 533 77 536 83 550 132 c 2
 627 400 l 1
 364 -18 l 1
 332 -18 l 1
 320 378 l 1
 168 289 276 -10 29 -10 c 0
 3 -10 -30 -2 -30 23 c 0
EndSplineSet
EndChar

StartChar: afii10079
Encoding: 1085 1085 615
Width: 526
Flags: MW
LayerCount: 2
Fore
SplineSet
202 194 m 1
 149 0 l 1
 30 0 l 1
 86 204 l 2
 119 324 132 371 132 382 c 0
 132 401 120 406 78 407 c 1
 78 434 l 1
 134 436 210 447 274 461 c 1
 216 242 l 1
 348 242 l 1
 409 449 l 1
 532 449 l 1
 448 163 l 1
 430 109 423 86 423 76 c 0
 423 66 429 59 437 59 c 0
 454 59 467 73 507 135 c 1
 529 122 l 1
 471 25 429 -9 370 -9 c 0
 328 -9 302 14 302 51 c 0
 302 77 314 134 330 182 c 2
 334 194 l 1
 202 194 l 1
EndSplineSet
EndChar

StartChar: afii10086
Encoding: 1092 1092 622
Width: 710
Flags: MW
LayerCount: 2
Fore
SplineSet
181 -120 m 0
 181 -145 165 -154 165 -163 c 0
 165 -169 173 -174 183 -174 c 0
 223 -174 240 -133 273 15 c 2
 288 83 l 1
 229 0 185 -32 128 -32 c 0
 62 -32 20 15 20 89 c 0
 20 262 162 443 297 443 c 0
 318 443 340 436 375 418 c 1
 386 455 l 1
 386 455 384 449 383 449 c 0
 419 574 473 698 609 698 c 0
 669 698 708 667 708 618 c 0
 708 587 687 565 657 565 c 0
 630 565 608 587 608 614 c 0
 608 636 624 648 624 656 c 0
 624 664 617 669 607 669 c 0
 572 669 541 619 516 520 c 2
 476 359 l 1
 513 414 564 462 621 462 c 0
 687 462 729 415 729 341 c 0
 729 168 587 -13 452 -13 c 0
 431 -13 407 -6 380 14 c 1
 350 -79 309 -205 179 -205 c 0
 119 -205 80 -174 80 -126 c 0
 80 -97 104 -72 132 -72 c 0
 157 -72 181 -96 181 -120 c 0
145 90 m 0
 145 59 162 39 187 39 c 0
 268 39 306 195 318 235 c 0
 345 326 353 356 353 372 c 0
 353 392 336 408 314 408 c 0
 212 408 145 154 145 90 c 0
604 340 m 0
 604 371 587 391 562 391 c 0
 481 391 443 235 431 195 c 0
 404 104 396 74 396 58 c 0
 396 38 413 22 435 22 c 0
 537 22 604 276 604 340 c 0
EndSplineSet
EndChar

StartChar: afii10088
Encoding: 1094 1094 624
Width: 540
Flags: MW
LayerCount: 2
Fore
SplineSet
537 120 m 1
 487 32 460 36 460 18 c 0
 460 5 470 -18 470 -39 c 0
 470 -47 469 -54 465 -61 c 0
 438 -106 349 -122 349 -122 c 1
 336 -102 l 1
 415 -49 425 -44 425 0 c 1
 409 -7 393 -9 376 -9 c 0
 332 -9 311 11 311 51 c 0
 311 79 317 106 335 161 c 1
 232 17 202 -9 135 -9 c 0
 86 -9 60 16 60 65 c 0
 60 89 67 125 81 173 c 0
 121 306 l 2
 130 335 135 363 135 379 c 0
 135 399 125 404 79 407 c 1
 79 434 l 1
 158 437 259 457 288 462 c 1
 194 154 l 2
 181 111 179 103 179 88 c 0
 179 71 186 63 200 63 c 0
 220 63 242 80 273 118 c 0
 330 190 359 256 415 449 c 1
 533 449 l 1
 455 181 l 1
 430 86 430 86 430 76 c 0
 430 67 436 59 444 59 c 0
 461 59 481 80 516 133 c 1
 537 120 l 1
EndSplineSet
EndChar

StartChar: afii10089
Encoding: 1095 1095 625
Width: 535
Flags: MW
LayerCount: 2
Fore
SplineSet
516 133 m 1
 537 120 l 1
 485 31 436 -9 376 -9 c 0
 332 -9 311 11 311 51 c 0
 311 79 356 239 374 294 c 1
 271 150 241 124 174 124 c 0
 125 124 99 149 99 198 c 0
 99 222 106 258 120 306 c 1
 126 328 l 2
 134 357 135 363 135 379 c 0
 135 399 125 404 79 407 c 1
 79 434 l 1
 158 437 259 457 288 462 c 1
 233 287 l 1
 220 244 218 236 218 221 c 0
 218 204 225 196 239 196 c 0
 259 196 281 213 312 251 c 0
 369 323 378 323 415 449 c 1
 533 449 l 1
 455 181 l 1
 430 86 430 86 430 76 c 0
 430 67 436 59 444 59 c 0
 461 59 481 80 516 133 c 1
EndSplineSet
EndChar

StartChar: afii10090
Encoding: 1096 1096 626
Width: 784
Flags: MW
LayerCount: 2
Fore
SplineSet
384 -9 m 0
 340 -9 310 11 310 51 c 0
 310 79 316 106 334 161 c 1
 231 17 201 -9 134 -9 c 0
 85 -9 59 16 59 65 c 0
 59 89 66 125 80 173 c 0
 120 306 l 2
 129 335 134 363 134 379 c 0
 134 399 124 404 78 407 c 1
 78 434 l 1
 157 437 258 457 287 462 c 1
 193 154 l 2
 180 111 178 103 178 88 c 0
 178 71 185 63 199 63 c 0
 219 63 241 80 272 118 c 0
 329 190 358 256 414 449 c 1
 532 449 l 1
 454 181 l 1
 434 104 432 95 432 90 c 2
 432 85 l 2
 432 68 435 63 449 63 c 0
 469 63 491 80 522 118 c 0
 579 190 608 256 664 449 c 1
 782 449 l 1
 704 181 l 1
 679 86 679 86 679 76 c 0
 679 67 685 59 693 59 c 0
 710 59 730 80 765 133 c 1
 786 120 l 1
 734 31 685 -9 625 -9 c 0
 581 -9 560 11 560 51 c 0
 560 79 566 106 584 161 c 1
 481 17 451 -9 384 -9 c 0
EndSplineSet
EndChar

StartChar: afii10091
Encoding: 1097 1097 627
Width: 789
Flags: MW
LayerCount: 2
Fore
SplineSet
786 120 m 1
 736 32 709 36 709 18 c 0
 709 5 719 -18 719 -39 c 0
 719 -47 718 -54 714 -61 c 0
 687 -106 598 -122 598 -122 c 1
 585 -102 l 1
 664 -49 674 -44 674 0 c 1
 658 -7 642 -9 625 -9 c 0
 581 -9 560 11 560 51 c 0
 560 79 566 106 584 161 c 1
 481 17 451 -9 384 -9 c 0
 340 -9 310 11 310 51 c 0
 310 79 316 106 334 161 c 1
 231 17 201 -9 134 -9 c 0
 85 -9 59 16 59 65 c 0
 59 89 66 125 80 173 c 0
 120 306 l 2
 129 335 134 363 134 379 c 0
 134 399 124 404 78 407 c 1
 78 434 l 1
 157 437 258 457 287 462 c 1
 193 154 l 2
 180 111 178 103 178 88 c 0
 178 71 185 63 199 63 c 0
 219 63 241 80 272 118 c 0
 329 190 358 256 414 449 c 1
 532 449 l 1
 454 181 l 1
 434 104 432 95 432 90 c 2
 432 85 l 2
 432 68 435 63 449 63 c 0
 469 63 491 80 522 118 c 0
 579 190 608 256 664 449 c 1
 782 449 l 1
 704 181 l 1
 679 86 679 86 679 76 c 0
 679 67 685 59 693 59 c 0
 710 59 730 80 765 133 c 1
 786 120 l 1
EndSplineSet
EndChar

StartChar: afii10092
Encoding: 1098 1098 628
Width: 619
Flags: MW
LayerCount: 2
Fore
SplineSet
582 141 m 0
 582 46 481 -13 351 -13 c 0
 204 -13 200 43 200 119 c 0
 200 134 l 0
 200 234 277 325 350 388 c 1
 306 360 276 352 253 352 c 0
 217 352 199 372 171 372 c 0
 119 372 100 329 86 292 c 1
 58 295 l 1
 101 457 l 1
 135 468 159 472 177 472 c 0
 238 472 235 426 313 426 c 0
 348 426 351 428 443 462 c 1
 469 435 l 1
 443 411 407 367 350 240 c 1
 366 255 410 275 454 275 c 0
 549 275 582 218 582 141 c 0
334 190 m 1
 326 172 318 141 318 125 c 0
 318 55 336 35 370 35 c 0
 449 35 508 102 508 155 c 0
 508 190 483 219 420 219 c 0
 401 219 351 203 334 190 c 1
EndSplineSet
EndChar

StartChar: afii10093
Encoding: 1099 1099 629
Width: 732
Flags: MW
LayerCount: 2
Fore
SplineSet
714 141 m 1
 736 127 l 1
 666 22 629 -9 569 -9 c 0
 528 -9 500 17 500 54 c 0
 500 67 505 95 513 123 c 0
 571 338 l 1
 575 355 578 370 578 378 c 0
 578 399 562 407 519 407 c 1
 519 434 l 1
 597 440 667 450 721 462 c 1
 630 128 l 2
 627 116 621 82 621 76 c 0
 621 68 628 61 636 61 c 0
 651 61 674 82 700 121 c 2
 714 141 l 1
71 111 m 0
 71 199 132 330 132 382 c 0
 132 401 120 406 78 407 c 1
 78 434 l 1
 134 436 210 447 274 461 c 1
 215 241 l 1
 231 260 274 276 318 276 c 0
 418 276 451 221 451 143 c 0
 451 44 337 -13 217 -13 c 0
 98 -13 71 53 71 111 c 0
199 191 m 1
 191 173 184 141 184 125 c 0
 184 55 202 35 236 35 c 0
 315 35 374 102 374 155 c 0
 374 191 348 220 285 220 c 0
 266 220 216 204 199 191 c 1
EndSplineSet
EndChar

StartChar: afii10094
Encoding: 1100 1100 630
Width: 487
Flags: MW
LayerCount: 2
Fore
SplineSet
71 111 m 0
 71 199 132 330 132 382 c 0
 132 401 120 406 78 407 c 1
 78 434 l 1
 134 436 210 447 274 461 c 1
 216 242 l 1
 232 261 275 277 319 277 c 0
 418 277 451 221 451 143 c 0
 451 44 337 -13 217 -13 c 0
 98 -13 71 53 71 111 c 0
200 192 m 1
 192 174 184 141 184 125 c 0
 184 55 202 35 236 35 c 0
 315 35 374 103 374 156 c 0
 374 192 349 221 286 221 c 0
 267 221 217 205 200 192 c 1
EndSplineSet
EndChar

StartChar: afii10095
Encoding: 1101 1101 631
Width: 397
Flags: MW
LayerCount: 2
Fore
SplineSet
130 95 m 0
 130 69 109 49 109 37 c 0
 109 27 119 20 131 20 c 0
 155 20 215 48 260 194 c 1
 140 194 l 1
 154 242 l 1
 272 242 l 1
 277 266 279 288 279 308 c 0
 279 362 249 398 206 398 c 0
 163 398 132 375 84 308 c 1
 56 326 l 1
 84 366 143 462 254 462 c 0
 344 462 407 400 407 311 c 0
 407 151 263 -13 122 -13 c 0
 56 -13 10 24 10 77 c 0
 10 118 36 147 72 147 c 0
 105 147 130 125 130 95 c 0
EndSplineSet
EndChar

StartChar: afii10096
Encoding: 1102 1102 632
Width: 733
Flags: MW
LayerCount: 2
Fore
SplineSet
305 194 m 1
 203 194 l 1
 150 0 l 1
 31 0 l 1
 87 204 l 2
 120 324 133 371 133 382 c 0
 133 401 121 406 79 407 c 1
 79 434 l 1
 135 436 211 447 275 461 c 1
 217 242 l 1
 318 242 l 1
 361 365 471 462 586 462 c 0
 677 462 743 399 743 311 c 0
 743 142 607 -13 458 -13 c 0
 366 -13 299 50 299 135 c 0
 299 155 301 175 305 194 c 1
467 16 m 0
 573 16 624 309 624 375 c 0
 624 411 606 433 577 433 c 0
 483 433 418 200 418 78 c 0
 418 40 437 16 467 16 c 0
EndSplineSet
EndChar

StartChar: afii10097
Encoding: 1103 1103 633
Width: 513
Flags: MW
LayerCount: 2
Fore
SplineSet
-4 23 m 0
 -4 35 8 82 53 82 c 0
 83 82 81 55 104 55 c 0
 157 55 179 165 191 207 c 1
 166 212 81 229 81 296 c 0
 81 303 82 312 85 321 c 0
 106 398 196 449 312 449 c 2
 521 449 l 1
 435 163 l 1
 435 163 410 86 410 76 c 0
 410 66 416 59 424 59 c 0
 441 59 454 73 494 135 c 1
 516 122 l 1
 458 25 416 -9 357 -9 c 0
 315 -9 289 14 289 51 c 0
 289 77 292 83 306 132 c 2
 325 197 l 1
 248 197 l 1
 218 86 201 -10 55 -10 c 0
 29 -10 -4 -2 -4 23 c 0
309 408 m 0
 218 408 203 308 203 281 c 0
 203 246 226 235 280 235 c 2
 335 235 l 1
 375 367 l 2
 376 370 376 372 376 375 c 0
 376 399 336 408 309 408 c 0
EndSplineSet
EndChar

StartChar: afii10099
Encoding: 1106 1106 636
Width: 508
Flags: MW
LayerCount: 2
Fore
SplineSet
268 375 m 1
 308 420 371 453 431 453 c 0
 497 453 534 418 534 360 c 0
 534 345 532 329 527 312 c 2
 443 2 l 2
 412 -105 350 -203 210 -203 c 0
 138 -203 94 -172 94 -125 c 0
 94 -78 133 -42 176 -42 c 0
 203 -42 222 -59 222 -83 c 0
 222 -116 180 -136 180 -158 c 0
 180 -166 191 -172 208 -172 c 0
 241 -172 262 -149 277 -96 c 2
 386 303 l 2
 391 320 393 335 393 347 c 0
 393 373 381 386 357 386 c 0
 320 386 262 339 255 328 c 2
 171 0 l 1
 44 0 l 1
 180 500 l 1
 111 500 l 1
 128 570 l 1
 199 570 l 1
 203 588 206 601 206 610 c 0
 206 632 192 643 165 643 c 0
 160 643 151 643 143 642 c 1
 143 669 l 1
 224 676 274 684 351 699 c 1
 318 570 l 1
 413 570 l 1
 397 500 l 1
 300 500 l 1
 268 375 l 1
EndSplineSet
EndChar

StartChar: afii10100
Encoding: 1107 1107 637
Width: 470
Flags: MW
LayerCount: 2
Fore
SplineSet
245 516 m 1
 196 516 l 1
 318 647 l 2
 353 685 370 697 388 697 c 0
 414 697 436 675 436 650 c 0
 436 631 427 620 397 603 c 2
 245 516 l 1
498 461 m 1
 466 319 l 1
 440 319 l 1
 440 325 l 0
 440 412 418 429 291 429 c 0
 279 429 l 1
 184 81 l 2
 181 71 180 63 180 56 c 0
 180 37 191 28 218 24 c 1
 211 0 l 1
 -30 0 l 1
 -23 24 l 1
 24 33 34 42 46 84 c 0
 127 380 l 2
 130 389 131 397 131 404 c 0
 131 424 120 434 95 437 c 1
 102 461 l 1
 498 461 l 1
EndSplineSet
EndChar

StartChar: afii10101
Encoding: 1108 1108 638
Width: 458
Flags: MW
LayerCount: 2
Fore
SplineSet
355 416 m 0
 355 432 340 442 322 442 c 0
 270 442 221 379 193 276 c 1
 187 256 l 1
 331 256 l 1
 320 216 l 1
 180 216 l 1
 178 202 177 188 177 175 c 0
 177 99 211 53 274 53 c 0
 315 53 345 67 393 109 c 1
 406 91 l 1
 328 17 263 -14 186 -14 c 0
 86 -14 26 50 26 147 c 0
 26 288 154 473 342 473 c 0
 419 473 470 436 470 385 c 0
 470 340 435 300 381 300 c 0
 353 300 340 313 340 339 c 0
 340 367 355 401 355 416 c 0
EndSplineSet
EndChar

StartChar: afii10106
Encoding: 1113 1113 643
Width: 756
Flags: MW
LayerCount: 2
Fore
SplineSet
-20 23 m 0
 -20 35 -8 82 37 82 c 0
 67 82 65 55 88 55 c 0
 141 55 164 167 176 209 c 2
 204 298 l 2
 230 388 301 449 428 449 c 2
 548 449 l 1
 488 233 l 1
 504 253 550 268 595 268 c 0
 666 268 725 241 725 143 c 0
 725 44 610 -13 491 -13 c 0
 372 -13 345 58 345 111 c 0
 345 145 351 180 358 204 c 2
 415 400 l 1
 269 399 247 250 235 206 c 0
 203 92 189 -10 39 -10 c 0
 13 -10 -20 -2 -20 23 c 0
472 183 m 1
 464 165 458 141 458 125 c 0
 458 55 476 35 510 35 c 0
 589 35 647 99 647 150 c 0
 647 184 624 212 558 212 c 0
 539 212 489 196 472 183 c 1
EndSplineSet
EndChar

StartChar: afii10107
Encoding: 1114 1114 644
Width: 750
Flags: MW
LayerCount: 2
Fore
SplineSet
344 194 m 1
 212 194 l 1
 159 0 l 1
 40 0 l 1
 96 204 l 2
 129 324 142 371 142 382 c 0
 142 401 130 406 88 407 c 1
 88 434 l 1
 144 436 220 447 284 461 c 1
 226 242 l 1
 358 242 l 1
 419 449 l 1
 542 449 l 1
 480 233 l 1
 496 253 542 268 587 268 c 0
 658 268 717 241 717 143 c 0
 717 44 602 -13 483 -13 c 0
 364 -13 335 58 335 111 c 0
 335 145 338 170 344 194 c 1
464 183 m 1
 456 165 450 141 450 125 c 0
 450 55 468 35 502 35 c 0
 581 35 639 99 639 150 c 0
 639 184 616 212 550 212 c 0
 531 212 481 196 464 183 c 1
EndSplineSet
EndChar

StartChar: afii10108
Encoding: 1115 1115 645
Width: 561
Flags: MW
LayerCount: 2
Fore
SplineSet
254 283 m 1
 321 379 381 462 466 462 c 0
 513 462 542 434 542 387 c 0
 542 368 531 326 512 265 c 2
 454 87 l 2
 451 78 451 77 451 75 c 0
 451 68 461 59 468 59 c 0
 481 59 500 80 543 142 c 1
 565 127 l 1
 499 24 459 -9 398 -9 c 0
 359 -9 332 15 332 49 c 0
 332 103 357 172 404 313 c 0
 411 333 415 344 415 346 c 2
 418 355 420 363 420 369 c 0
 420 380 410 390 398 390 c 0
 372 390 339 361 297 301 c 0
 247 228 226 178 175 0 c 1
 54 0 l 1
 190 500 l 1
 121 500 l 1
 138 570 l 1
 209 570 l 1
 213 588 216 601 216 610 c 0
 216 632 202 643 175 643 c 0
 170 643 161 643 153 642 c 1
 153 669 l 1
 234 676 284 684 361 699 c 1
 328 570 l 1
 423 570 l 1
 407 500 l 1
 310 500 l 1
 254 283 l 1
EndSplineSet
EndChar

StartChar: afii10193
Encoding: 1119 1119 649
Width: 545
Flags: MW
LayerCount: 2
Fore
SplineSet
236 26 m 0
 234 24 233 21 233 18 c 0
 233 5 243 -18 243 -39 c 0
 243 -102 122 -122 122 -122 c 1
 109 -102 l 1
 142 -80 198 -55 198 -13 c 2
 198 0 l 1
 182 -7 165 -9 145 -9 c 0
 96 -9 70 16 70 65 c 0
 70 89 77 125 91 173 c 2
 131 306 l 2
 140 335 145 363 145 379 c 0
 145 399 135 404 89 407 c 1
 89 434 l 1
 168 437 269 457 298 462 c 1
 204 154 l 2
 191 111 189 103 189 88 c 0
 189 71 196 63 210 63 c 0
 230 63 252 80 283 118 c 0
 340 190 369 256 425 449 c 1
 543 449 l 1
 465 181 l 2
 440 86 440 86 440 76 c 0
 440 67 446 59 454 59 c 0
 471 59 491 80 526 133 c 1
 547 120 l 1
 495 31 446 -9 386 -9 c 0
 342 -9 321 11 321 51 c 0
 321 79 327 106 345 161 c 1
 296 92 263 50 236 26 c 0
EndSplineSet
EndChar

StartChar: uni048C
Encoding: 1164 1164 650
Width: 628
Flags: MW
LayerCount: 2
Fore
SplineSet
241 70 m 1
 240 66 239 63 239 59 c 0
 239 43 254 35 281 35 c 0
 364 35 409 79 439 187 c 0
 447 216 451 240 451 259 c 0
 451 282 445 299 435 311 c 1
 416 331 385 338 314 338 c 1
 241 70 l 1
616 230 m 0
 616 94 490 0 298 0 c 2
 -24 0 l 1
 -24 25 l 1
 48 31 73 47 92 117 c 0
 193 488 l 1
 117 488 l 1
 134 558 l 1
 213 558 l 1
 217 575 219 588 219 599 c 0
 219 625 206 636 175 640 c 0
 172 640 162 642 152 644 c 1
 153 669 l 1
 487 669 l 1
 486 644 l 1
 426 637 397 644 374 558 c 1
 459 558 l 1
 443 488 l 1
 355 488 l 1
 324 373 l 1
 458 372 491 369 531 351 c 0
 587 327 616 284 616 230 c 0
EndSplineSet
Validated: 1
EndChar

StartChar: uni048D
Encoding: 1165 1165 651
Width: 416
Flags: MW
LayerCount: 2
Fore
SplineSet
142 183 m 1
 134 165 128 141 128 125 c 0
 128 55 146 35 180 35 c 0
 259 35 317 99 317 150 c 0
 317 184 291 212 228 212 c 0
 209 212 159 196 142 183 c 1
261 268 m 0
 367 268 395 216 395 143 c 0
 395 44 281 -13 161 -13 c 0
 42 -13 15 53 15 111 c 0
 15 145 23 180 30 204 c 0
 56 298 l 1
 -5 298 l 1
 14 368 l 1
 74 368 l 1
 75 375 76 379 76 382 c 0
 76 401 64 406 22 407 c 1
 22 434 l 1
 78 436 154 447 218 461 c 1
 194 368 l 1
 279 368 l 1
 261 298 l 1
 175 298 l 1
 158 233 l 1
 174 252 217 268 261 268 c 0
EndSplineSet
Validated: 1
EndChar

StartChar: uni048E
Encoding: 1166 1166 652
Width: 599
Flags: MW
LayerCount: 2
Fore
SplineSet
447 434 m 1
 461 465 470 511 470 546 c 0
 470 604 439 637 386 637 c 0
 344 637 342 613 336 593 c 2
 272 354 l 1
 289 353 300 352 314 352 c 0
 351 352 380 359 401 374 c 1
 334 491 l 1
 404 511 l 1
 447 434 l 1
189 606 m 0
 189 636 166 637 116 644 c 1
 116 669 l 1
 403 669 l 2
 542 669 616 615 616 514 c 0
 616 438 573 378 498 346 c 1
 565 229 l 1
 496 208 l 1
 429 325 l 1
 403 320 374 317 343 317 c 0
 317 317 298 318 262 322 c 1
 208 123 l 1
 204 107 198 74 198 64 c 0
 198 37 214 28 270 25 c 1
 270 0 l 1
 -24 0 l 1
 -24 25 l 1
 28 33 41 44 56 97 c 0
 179 546 l 2
 185 568 189 592 189 606 c 0
EndSplineSet
Validated: 1
EndChar

StartChar: uni048F
Encoding: 1167 1167 653
Width: 473
Flags: MW
LayerCount: 2
Fore
SplineSet
321 340 m 0
 321 371 304 391 279 391 c 0
 198 391 160 235 148 195 c 0
 121 104 113 74 113 58 c 0
 113 38 130 22 152 22 c 0
 179 22 207 41 233 79 c 1
 165 198 l 1
 234 218 l 1
 272 152 l 1
 303 223 321 302 321 340 c 0
324 61 m 1
 395 -64 l 1
 326 -85 l 1
 268 17 l 1
 236 -2 202 -13 169 -13 c 0
 148 -13 136 -9 101 9 c 1
 98 -4 l 1
 90 -32 l 1
 72 -100 64 -133 64 -145 c 0
 64 -169 80 -177 129 -178 c 1
 129 -205 l 1
 -120 -205 l 1
 -120 -178 l 1
 -114 -178 l 2
 -73 -178 -61 -165 -45 -104 c 2
 55 284 l 1
 68 333 77 373 77 382 c 0
 77 401 68 405 23 407 c 1
 23 434 l 1
 75 440 114 446 216 462 c 1
 178 347 l 1
 237 430 281 462 338 462 c 0
 404 462 446 415 446 341 c 0
 446 237 394 130 324 61 c 1
EndSplineSet
Validated: 1
EndChar

StartChar: afii10050
Encoding: 1168 1168 654
Width: 499
Flags: MW
LayerCount: 2
Fore
SplineSet
399 675 m 2
 521 675 619 699 674 842 c 1
 698 842 l 1
 644 642 l 1
 390 642 l 2
 339 642 324 632 314 595 c 2
 177 96 l 2
 174 84 172 74 172 66 c 0
 172 36 197 28 268 25 c 1
 261 0 l 1
 -99 0 l 1
 -92 25 l 1
 -16 33 1 44 15 96 c 2
 147 580 l 1
 150 592 152 602 152 610 c 0
 152 638 131 648 79 651 c 1
 86 676 l 1
 399 675 l 2
EndSplineSet
Validated: 1
EndChar

StartChar: afii10098
Encoding: 1169 1169 655
Width: 382
Flags: MW
LayerCount: 2
Fore
SplineSet
251 428 m 1
 157 81 l 2
 154 71 153 63 153 56 c 0
 153 37 164 28 190 24 c 1
 184 0 l 1
 -57 0 l 1
 -51 24 l 1
 -3 33 7 42 19 84 c 0
 100 380 l 2
 103 389 104 397 104 404 c 0
 104 424 93 434 68 437 c 1
 75 461 l 1
 261 461 l 2
 398 462 431 476 482 571 c 1
 508 571 l 1
 462 429 l 1
 251 428 l 1
EndSplineSet
Validated: 1
EndChar

